G04 EAGLE Gerber X2 export*
%TF.Part,Single*%
%TF.FileFunction,Other,Silk bottom*%
%TF.FilePolarity,Positive*%
%TF.GenerationSoftware,Autodesk,EAGLE,8.7.0*%
%TF.CreationDate,2019-08-22T10:02:17Z*%
G75*
%MOMM*%
%FSLAX34Y34*%
%LPD*%
%AMOC8*
5,1,8,0,0,1.08239X$1,22.5*%
G01*
%ADD10C,0.000000*%
%ADD11C,0.101600*%
%ADD12C,0.152400*%


D10*
X0Y25400D02*
X1000000Y25400D01*
X1000000Y800000D01*
X0Y800000D01*
X0Y25400D01*
X942340Y762000D02*
X942343Y762249D01*
X942352Y762499D01*
X942368Y762747D01*
X942389Y762996D01*
X942416Y763244D01*
X942450Y763491D01*
X942490Y763737D01*
X942535Y763982D01*
X942587Y764226D01*
X942644Y764469D01*
X942708Y764710D01*
X942777Y764949D01*
X942853Y765187D01*
X942934Y765423D01*
X943021Y765657D01*
X943113Y765888D01*
X943212Y766117D01*
X943315Y766344D01*
X943425Y766568D01*
X943540Y766789D01*
X943660Y767008D01*
X943785Y767223D01*
X943916Y767436D01*
X944052Y767645D01*
X944193Y767850D01*
X944339Y768052D01*
X944490Y768251D01*
X944646Y768445D01*
X944807Y768636D01*
X944972Y768823D01*
X945142Y769006D01*
X945316Y769184D01*
X945494Y769358D01*
X945677Y769528D01*
X945864Y769693D01*
X946055Y769854D01*
X946249Y770010D01*
X946448Y770161D01*
X946650Y770307D01*
X946855Y770448D01*
X947064Y770584D01*
X947277Y770715D01*
X947492Y770840D01*
X947711Y770960D01*
X947932Y771075D01*
X948156Y771185D01*
X948383Y771288D01*
X948612Y771387D01*
X948843Y771479D01*
X949077Y771566D01*
X949313Y771647D01*
X949551Y771723D01*
X949790Y771792D01*
X950031Y771856D01*
X950274Y771913D01*
X950518Y771965D01*
X950763Y772010D01*
X951009Y772050D01*
X951256Y772084D01*
X951504Y772111D01*
X951753Y772132D01*
X952001Y772148D01*
X952251Y772157D01*
X952500Y772160D01*
X952749Y772157D01*
X952999Y772148D01*
X953247Y772132D01*
X953496Y772111D01*
X953744Y772084D01*
X953991Y772050D01*
X954237Y772010D01*
X954482Y771965D01*
X954726Y771913D01*
X954969Y771856D01*
X955210Y771792D01*
X955449Y771723D01*
X955687Y771647D01*
X955923Y771566D01*
X956157Y771479D01*
X956388Y771387D01*
X956617Y771288D01*
X956844Y771185D01*
X957068Y771075D01*
X957289Y770960D01*
X957508Y770840D01*
X957723Y770715D01*
X957936Y770584D01*
X958145Y770448D01*
X958350Y770307D01*
X958552Y770161D01*
X958751Y770010D01*
X958945Y769854D01*
X959136Y769693D01*
X959323Y769528D01*
X959506Y769358D01*
X959684Y769184D01*
X959858Y769006D01*
X960028Y768823D01*
X960193Y768636D01*
X960354Y768445D01*
X960510Y768251D01*
X960661Y768052D01*
X960807Y767850D01*
X960948Y767645D01*
X961084Y767436D01*
X961215Y767223D01*
X961340Y767008D01*
X961460Y766789D01*
X961575Y766568D01*
X961685Y766344D01*
X961788Y766117D01*
X961887Y765888D01*
X961979Y765657D01*
X962066Y765423D01*
X962147Y765187D01*
X962223Y764949D01*
X962292Y764710D01*
X962356Y764469D01*
X962413Y764226D01*
X962465Y763982D01*
X962510Y763737D01*
X962550Y763491D01*
X962584Y763244D01*
X962611Y762996D01*
X962632Y762747D01*
X962648Y762499D01*
X962657Y762249D01*
X962660Y762000D01*
X962657Y761751D01*
X962648Y761501D01*
X962632Y761253D01*
X962611Y761004D01*
X962584Y760756D01*
X962550Y760509D01*
X962510Y760263D01*
X962465Y760018D01*
X962413Y759774D01*
X962356Y759531D01*
X962292Y759290D01*
X962223Y759051D01*
X962147Y758813D01*
X962066Y758577D01*
X961979Y758343D01*
X961887Y758112D01*
X961788Y757883D01*
X961685Y757656D01*
X961575Y757432D01*
X961460Y757211D01*
X961340Y756992D01*
X961215Y756777D01*
X961084Y756564D01*
X960948Y756355D01*
X960807Y756150D01*
X960661Y755948D01*
X960510Y755749D01*
X960354Y755555D01*
X960193Y755364D01*
X960028Y755177D01*
X959858Y754994D01*
X959684Y754816D01*
X959506Y754642D01*
X959323Y754472D01*
X959136Y754307D01*
X958945Y754146D01*
X958751Y753990D01*
X958552Y753839D01*
X958350Y753693D01*
X958145Y753552D01*
X957936Y753416D01*
X957723Y753285D01*
X957508Y753160D01*
X957289Y753040D01*
X957068Y752925D01*
X956844Y752815D01*
X956617Y752712D01*
X956388Y752613D01*
X956157Y752521D01*
X955923Y752434D01*
X955687Y752353D01*
X955449Y752277D01*
X955210Y752208D01*
X954969Y752144D01*
X954726Y752087D01*
X954482Y752035D01*
X954237Y751990D01*
X953991Y751950D01*
X953744Y751916D01*
X953496Y751889D01*
X953247Y751868D01*
X952999Y751852D01*
X952749Y751843D01*
X952500Y751840D01*
X952251Y751843D01*
X952001Y751852D01*
X951753Y751868D01*
X951504Y751889D01*
X951256Y751916D01*
X951009Y751950D01*
X950763Y751990D01*
X950518Y752035D01*
X950274Y752087D01*
X950031Y752144D01*
X949790Y752208D01*
X949551Y752277D01*
X949313Y752353D01*
X949077Y752434D01*
X948843Y752521D01*
X948612Y752613D01*
X948383Y752712D01*
X948156Y752815D01*
X947932Y752925D01*
X947711Y753040D01*
X947492Y753160D01*
X947277Y753285D01*
X947064Y753416D01*
X946855Y753552D01*
X946650Y753693D01*
X946448Y753839D01*
X946249Y753990D01*
X946055Y754146D01*
X945864Y754307D01*
X945677Y754472D01*
X945494Y754642D01*
X945316Y754816D01*
X945142Y754994D01*
X944972Y755177D01*
X944807Y755364D01*
X944646Y755555D01*
X944490Y755749D01*
X944339Y755948D01*
X944193Y756150D01*
X944052Y756355D01*
X943916Y756564D01*
X943785Y756777D01*
X943660Y756992D01*
X943540Y757211D01*
X943425Y757432D01*
X943315Y757656D01*
X943212Y757883D01*
X943113Y758112D01*
X943021Y758343D01*
X942934Y758577D01*
X942853Y758813D01*
X942777Y759051D01*
X942708Y759290D01*
X942644Y759531D01*
X942587Y759774D01*
X942535Y760018D01*
X942490Y760263D01*
X942450Y760509D01*
X942416Y760756D01*
X942389Y761004D01*
X942368Y761253D01*
X942352Y761501D01*
X942343Y761751D01*
X942340Y762000D01*
X15240Y393700D02*
X15243Y393949D01*
X15252Y394199D01*
X15268Y394447D01*
X15289Y394696D01*
X15316Y394944D01*
X15350Y395191D01*
X15390Y395437D01*
X15435Y395682D01*
X15487Y395926D01*
X15544Y396169D01*
X15608Y396410D01*
X15677Y396649D01*
X15753Y396887D01*
X15834Y397123D01*
X15921Y397357D01*
X16013Y397588D01*
X16112Y397817D01*
X16215Y398044D01*
X16325Y398268D01*
X16440Y398489D01*
X16560Y398708D01*
X16685Y398923D01*
X16816Y399136D01*
X16952Y399345D01*
X17093Y399550D01*
X17239Y399752D01*
X17390Y399951D01*
X17546Y400145D01*
X17707Y400336D01*
X17872Y400523D01*
X18042Y400706D01*
X18216Y400884D01*
X18394Y401058D01*
X18577Y401228D01*
X18764Y401393D01*
X18955Y401554D01*
X19149Y401710D01*
X19348Y401861D01*
X19550Y402007D01*
X19755Y402148D01*
X19964Y402284D01*
X20177Y402415D01*
X20392Y402540D01*
X20611Y402660D01*
X20832Y402775D01*
X21056Y402885D01*
X21283Y402988D01*
X21512Y403087D01*
X21743Y403179D01*
X21977Y403266D01*
X22213Y403347D01*
X22451Y403423D01*
X22690Y403492D01*
X22931Y403556D01*
X23174Y403613D01*
X23418Y403665D01*
X23663Y403710D01*
X23909Y403750D01*
X24156Y403784D01*
X24404Y403811D01*
X24653Y403832D01*
X24901Y403848D01*
X25151Y403857D01*
X25400Y403860D01*
X25649Y403857D01*
X25899Y403848D01*
X26147Y403832D01*
X26396Y403811D01*
X26644Y403784D01*
X26891Y403750D01*
X27137Y403710D01*
X27382Y403665D01*
X27626Y403613D01*
X27869Y403556D01*
X28110Y403492D01*
X28349Y403423D01*
X28587Y403347D01*
X28823Y403266D01*
X29057Y403179D01*
X29288Y403087D01*
X29517Y402988D01*
X29744Y402885D01*
X29968Y402775D01*
X30189Y402660D01*
X30408Y402540D01*
X30623Y402415D01*
X30836Y402284D01*
X31045Y402148D01*
X31250Y402007D01*
X31452Y401861D01*
X31651Y401710D01*
X31845Y401554D01*
X32036Y401393D01*
X32223Y401228D01*
X32406Y401058D01*
X32584Y400884D01*
X32758Y400706D01*
X32928Y400523D01*
X33093Y400336D01*
X33254Y400145D01*
X33410Y399951D01*
X33561Y399752D01*
X33707Y399550D01*
X33848Y399345D01*
X33984Y399136D01*
X34115Y398923D01*
X34240Y398708D01*
X34360Y398489D01*
X34475Y398268D01*
X34585Y398044D01*
X34688Y397817D01*
X34787Y397588D01*
X34879Y397357D01*
X34966Y397123D01*
X35047Y396887D01*
X35123Y396649D01*
X35192Y396410D01*
X35256Y396169D01*
X35313Y395926D01*
X35365Y395682D01*
X35410Y395437D01*
X35450Y395191D01*
X35484Y394944D01*
X35511Y394696D01*
X35532Y394447D01*
X35548Y394199D01*
X35557Y393949D01*
X35560Y393700D01*
X35557Y393451D01*
X35548Y393201D01*
X35532Y392953D01*
X35511Y392704D01*
X35484Y392456D01*
X35450Y392209D01*
X35410Y391963D01*
X35365Y391718D01*
X35313Y391474D01*
X35256Y391231D01*
X35192Y390990D01*
X35123Y390751D01*
X35047Y390513D01*
X34966Y390277D01*
X34879Y390043D01*
X34787Y389812D01*
X34688Y389583D01*
X34585Y389356D01*
X34475Y389132D01*
X34360Y388911D01*
X34240Y388692D01*
X34115Y388477D01*
X33984Y388264D01*
X33848Y388055D01*
X33707Y387850D01*
X33561Y387648D01*
X33410Y387449D01*
X33254Y387255D01*
X33093Y387064D01*
X32928Y386877D01*
X32758Y386694D01*
X32584Y386516D01*
X32406Y386342D01*
X32223Y386172D01*
X32036Y386007D01*
X31845Y385846D01*
X31651Y385690D01*
X31452Y385539D01*
X31250Y385393D01*
X31045Y385252D01*
X30836Y385116D01*
X30623Y384985D01*
X30408Y384860D01*
X30189Y384740D01*
X29968Y384625D01*
X29744Y384515D01*
X29517Y384412D01*
X29288Y384313D01*
X29057Y384221D01*
X28823Y384134D01*
X28587Y384053D01*
X28349Y383977D01*
X28110Y383908D01*
X27869Y383844D01*
X27626Y383787D01*
X27382Y383735D01*
X27137Y383690D01*
X26891Y383650D01*
X26644Y383616D01*
X26396Y383589D01*
X26147Y383568D01*
X25899Y383552D01*
X25649Y383543D01*
X25400Y383540D01*
X25151Y383543D01*
X24901Y383552D01*
X24653Y383568D01*
X24404Y383589D01*
X24156Y383616D01*
X23909Y383650D01*
X23663Y383690D01*
X23418Y383735D01*
X23174Y383787D01*
X22931Y383844D01*
X22690Y383908D01*
X22451Y383977D01*
X22213Y384053D01*
X21977Y384134D01*
X21743Y384221D01*
X21512Y384313D01*
X21283Y384412D01*
X21056Y384515D01*
X20832Y384625D01*
X20611Y384740D01*
X20392Y384860D01*
X20177Y384985D01*
X19964Y385116D01*
X19755Y385252D01*
X19550Y385393D01*
X19348Y385539D01*
X19149Y385690D01*
X18955Y385846D01*
X18764Y386007D01*
X18577Y386172D01*
X18394Y386342D01*
X18216Y386516D01*
X18042Y386694D01*
X17872Y386877D01*
X17707Y387064D01*
X17546Y387255D01*
X17390Y387449D01*
X17239Y387648D01*
X17093Y387850D01*
X16952Y388055D01*
X16816Y388264D01*
X16685Y388477D01*
X16560Y388692D01*
X16440Y388911D01*
X16325Y389132D01*
X16215Y389356D01*
X16112Y389583D01*
X16013Y389812D01*
X15921Y390043D01*
X15834Y390277D01*
X15753Y390513D01*
X15677Y390751D01*
X15608Y390990D01*
X15544Y391231D01*
X15487Y391474D01*
X15435Y391718D01*
X15390Y391963D01*
X15350Y392209D01*
X15316Y392456D01*
X15289Y392704D01*
X15268Y392953D01*
X15252Y393201D01*
X15243Y393451D01*
X15240Y393700D01*
X942340Y50800D02*
X942343Y51049D01*
X942352Y51299D01*
X942368Y51547D01*
X942389Y51796D01*
X942416Y52044D01*
X942450Y52291D01*
X942490Y52537D01*
X942535Y52782D01*
X942587Y53026D01*
X942644Y53269D01*
X942708Y53510D01*
X942777Y53749D01*
X942853Y53987D01*
X942934Y54223D01*
X943021Y54457D01*
X943113Y54688D01*
X943212Y54917D01*
X943315Y55144D01*
X943425Y55368D01*
X943540Y55589D01*
X943660Y55808D01*
X943785Y56023D01*
X943916Y56236D01*
X944052Y56445D01*
X944193Y56650D01*
X944339Y56852D01*
X944490Y57051D01*
X944646Y57245D01*
X944807Y57436D01*
X944972Y57623D01*
X945142Y57806D01*
X945316Y57984D01*
X945494Y58158D01*
X945677Y58328D01*
X945864Y58493D01*
X946055Y58654D01*
X946249Y58810D01*
X946448Y58961D01*
X946650Y59107D01*
X946855Y59248D01*
X947064Y59384D01*
X947277Y59515D01*
X947492Y59640D01*
X947711Y59760D01*
X947932Y59875D01*
X948156Y59985D01*
X948383Y60088D01*
X948612Y60187D01*
X948843Y60279D01*
X949077Y60366D01*
X949313Y60447D01*
X949551Y60523D01*
X949790Y60592D01*
X950031Y60656D01*
X950274Y60713D01*
X950518Y60765D01*
X950763Y60810D01*
X951009Y60850D01*
X951256Y60884D01*
X951504Y60911D01*
X951753Y60932D01*
X952001Y60948D01*
X952251Y60957D01*
X952500Y60960D01*
X952749Y60957D01*
X952999Y60948D01*
X953247Y60932D01*
X953496Y60911D01*
X953744Y60884D01*
X953991Y60850D01*
X954237Y60810D01*
X954482Y60765D01*
X954726Y60713D01*
X954969Y60656D01*
X955210Y60592D01*
X955449Y60523D01*
X955687Y60447D01*
X955923Y60366D01*
X956157Y60279D01*
X956388Y60187D01*
X956617Y60088D01*
X956844Y59985D01*
X957068Y59875D01*
X957289Y59760D01*
X957508Y59640D01*
X957723Y59515D01*
X957936Y59384D01*
X958145Y59248D01*
X958350Y59107D01*
X958552Y58961D01*
X958751Y58810D01*
X958945Y58654D01*
X959136Y58493D01*
X959323Y58328D01*
X959506Y58158D01*
X959684Y57984D01*
X959858Y57806D01*
X960028Y57623D01*
X960193Y57436D01*
X960354Y57245D01*
X960510Y57051D01*
X960661Y56852D01*
X960807Y56650D01*
X960948Y56445D01*
X961084Y56236D01*
X961215Y56023D01*
X961340Y55808D01*
X961460Y55589D01*
X961575Y55368D01*
X961685Y55144D01*
X961788Y54917D01*
X961887Y54688D01*
X961979Y54457D01*
X962066Y54223D01*
X962147Y53987D01*
X962223Y53749D01*
X962292Y53510D01*
X962356Y53269D01*
X962413Y53026D01*
X962465Y52782D01*
X962510Y52537D01*
X962550Y52291D01*
X962584Y52044D01*
X962611Y51796D01*
X962632Y51547D01*
X962648Y51299D01*
X962657Y51049D01*
X962660Y50800D01*
X962657Y50551D01*
X962648Y50301D01*
X962632Y50053D01*
X962611Y49804D01*
X962584Y49556D01*
X962550Y49309D01*
X962510Y49063D01*
X962465Y48818D01*
X962413Y48574D01*
X962356Y48331D01*
X962292Y48090D01*
X962223Y47851D01*
X962147Y47613D01*
X962066Y47377D01*
X961979Y47143D01*
X961887Y46912D01*
X961788Y46683D01*
X961685Y46456D01*
X961575Y46232D01*
X961460Y46011D01*
X961340Y45792D01*
X961215Y45577D01*
X961084Y45364D01*
X960948Y45155D01*
X960807Y44950D01*
X960661Y44748D01*
X960510Y44549D01*
X960354Y44355D01*
X960193Y44164D01*
X960028Y43977D01*
X959858Y43794D01*
X959684Y43616D01*
X959506Y43442D01*
X959323Y43272D01*
X959136Y43107D01*
X958945Y42946D01*
X958751Y42790D01*
X958552Y42639D01*
X958350Y42493D01*
X958145Y42352D01*
X957936Y42216D01*
X957723Y42085D01*
X957508Y41960D01*
X957289Y41840D01*
X957068Y41725D01*
X956844Y41615D01*
X956617Y41512D01*
X956388Y41413D01*
X956157Y41321D01*
X955923Y41234D01*
X955687Y41153D01*
X955449Y41077D01*
X955210Y41008D01*
X954969Y40944D01*
X954726Y40887D01*
X954482Y40835D01*
X954237Y40790D01*
X953991Y40750D01*
X953744Y40716D01*
X953496Y40689D01*
X953247Y40668D01*
X952999Y40652D01*
X952749Y40643D01*
X952500Y40640D01*
X952251Y40643D01*
X952001Y40652D01*
X951753Y40668D01*
X951504Y40689D01*
X951256Y40716D01*
X951009Y40750D01*
X950763Y40790D01*
X950518Y40835D01*
X950274Y40887D01*
X950031Y40944D01*
X949790Y41008D01*
X949551Y41077D01*
X949313Y41153D01*
X949077Y41234D01*
X948843Y41321D01*
X948612Y41413D01*
X948383Y41512D01*
X948156Y41615D01*
X947932Y41725D01*
X947711Y41840D01*
X947492Y41960D01*
X947277Y42085D01*
X947064Y42216D01*
X946855Y42352D01*
X946650Y42493D01*
X946448Y42639D01*
X946249Y42790D01*
X946055Y42946D01*
X945864Y43107D01*
X945677Y43272D01*
X945494Y43442D01*
X945316Y43616D01*
X945142Y43794D01*
X944972Y43977D01*
X944807Y44164D01*
X944646Y44355D01*
X944490Y44549D01*
X944339Y44748D01*
X944193Y44950D01*
X944052Y45155D01*
X943916Y45364D01*
X943785Y45577D01*
X943660Y45792D01*
X943540Y46011D01*
X943425Y46232D01*
X943315Y46456D01*
X943212Y46683D01*
X943113Y46912D01*
X943021Y47143D01*
X942934Y47377D01*
X942853Y47613D01*
X942777Y47851D01*
X942708Y48090D01*
X942644Y48331D01*
X942587Y48574D01*
X942535Y48818D01*
X942490Y49063D01*
X942450Y49309D01*
X942416Y49556D01*
X942389Y49804D01*
X942368Y50053D01*
X942352Y50301D01*
X942343Y50551D01*
X942340Y50800D01*
X561340Y533400D02*
X561343Y533649D01*
X561352Y533899D01*
X561368Y534147D01*
X561389Y534396D01*
X561416Y534644D01*
X561450Y534891D01*
X561490Y535137D01*
X561535Y535382D01*
X561587Y535626D01*
X561644Y535869D01*
X561708Y536110D01*
X561777Y536349D01*
X561853Y536587D01*
X561934Y536823D01*
X562021Y537057D01*
X562113Y537288D01*
X562212Y537517D01*
X562315Y537744D01*
X562425Y537968D01*
X562540Y538189D01*
X562660Y538408D01*
X562785Y538623D01*
X562916Y538836D01*
X563052Y539045D01*
X563193Y539250D01*
X563339Y539452D01*
X563490Y539651D01*
X563646Y539845D01*
X563807Y540036D01*
X563972Y540223D01*
X564142Y540406D01*
X564316Y540584D01*
X564494Y540758D01*
X564677Y540928D01*
X564864Y541093D01*
X565055Y541254D01*
X565249Y541410D01*
X565448Y541561D01*
X565650Y541707D01*
X565855Y541848D01*
X566064Y541984D01*
X566277Y542115D01*
X566492Y542240D01*
X566711Y542360D01*
X566932Y542475D01*
X567156Y542585D01*
X567383Y542688D01*
X567612Y542787D01*
X567843Y542879D01*
X568077Y542966D01*
X568313Y543047D01*
X568551Y543123D01*
X568790Y543192D01*
X569031Y543256D01*
X569274Y543313D01*
X569518Y543365D01*
X569763Y543410D01*
X570009Y543450D01*
X570256Y543484D01*
X570504Y543511D01*
X570753Y543532D01*
X571001Y543548D01*
X571251Y543557D01*
X571500Y543560D01*
X571749Y543557D01*
X571999Y543548D01*
X572247Y543532D01*
X572496Y543511D01*
X572744Y543484D01*
X572991Y543450D01*
X573237Y543410D01*
X573482Y543365D01*
X573726Y543313D01*
X573969Y543256D01*
X574210Y543192D01*
X574449Y543123D01*
X574687Y543047D01*
X574923Y542966D01*
X575157Y542879D01*
X575388Y542787D01*
X575617Y542688D01*
X575844Y542585D01*
X576068Y542475D01*
X576289Y542360D01*
X576508Y542240D01*
X576723Y542115D01*
X576936Y541984D01*
X577145Y541848D01*
X577350Y541707D01*
X577552Y541561D01*
X577751Y541410D01*
X577945Y541254D01*
X578136Y541093D01*
X578323Y540928D01*
X578506Y540758D01*
X578684Y540584D01*
X578858Y540406D01*
X579028Y540223D01*
X579193Y540036D01*
X579354Y539845D01*
X579510Y539651D01*
X579661Y539452D01*
X579807Y539250D01*
X579948Y539045D01*
X580084Y538836D01*
X580215Y538623D01*
X580340Y538408D01*
X580460Y538189D01*
X580575Y537968D01*
X580685Y537744D01*
X580788Y537517D01*
X580887Y537288D01*
X580979Y537057D01*
X581066Y536823D01*
X581147Y536587D01*
X581223Y536349D01*
X581292Y536110D01*
X581356Y535869D01*
X581413Y535626D01*
X581465Y535382D01*
X581510Y535137D01*
X581550Y534891D01*
X581584Y534644D01*
X581611Y534396D01*
X581632Y534147D01*
X581648Y533899D01*
X581657Y533649D01*
X581660Y533400D01*
X581657Y533151D01*
X581648Y532901D01*
X581632Y532653D01*
X581611Y532404D01*
X581584Y532156D01*
X581550Y531909D01*
X581510Y531663D01*
X581465Y531418D01*
X581413Y531174D01*
X581356Y530931D01*
X581292Y530690D01*
X581223Y530451D01*
X581147Y530213D01*
X581066Y529977D01*
X580979Y529743D01*
X580887Y529512D01*
X580788Y529283D01*
X580685Y529056D01*
X580575Y528832D01*
X580460Y528611D01*
X580340Y528392D01*
X580215Y528177D01*
X580084Y527964D01*
X579948Y527755D01*
X579807Y527550D01*
X579661Y527348D01*
X579510Y527149D01*
X579354Y526955D01*
X579193Y526764D01*
X579028Y526577D01*
X578858Y526394D01*
X578684Y526216D01*
X578506Y526042D01*
X578323Y525872D01*
X578136Y525707D01*
X577945Y525546D01*
X577751Y525390D01*
X577552Y525239D01*
X577350Y525093D01*
X577145Y524952D01*
X576936Y524816D01*
X576723Y524685D01*
X576508Y524560D01*
X576289Y524440D01*
X576068Y524325D01*
X575844Y524215D01*
X575617Y524112D01*
X575388Y524013D01*
X575157Y523921D01*
X574923Y523834D01*
X574687Y523753D01*
X574449Y523677D01*
X574210Y523608D01*
X573969Y523544D01*
X573726Y523487D01*
X573482Y523435D01*
X573237Y523390D01*
X572991Y523350D01*
X572744Y523316D01*
X572496Y523289D01*
X572247Y523268D01*
X571999Y523252D01*
X571749Y523243D01*
X571500Y523240D01*
X571251Y523243D01*
X571001Y523252D01*
X570753Y523268D01*
X570504Y523289D01*
X570256Y523316D01*
X570009Y523350D01*
X569763Y523390D01*
X569518Y523435D01*
X569274Y523487D01*
X569031Y523544D01*
X568790Y523608D01*
X568551Y523677D01*
X568313Y523753D01*
X568077Y523834D01*
X567843Y523921D01*
X567612Y524013D01*
X567383Y524112D01*
X567156Y524215D01*
X566932Y524325D01*
X566711Y524440D01*
X566492Y524560D01*
X566277Y524685D01*
X566064Y524816D01*
X565855Y524952D01*
X565650Y525093D01*
X565448Y525239D01*
X565249Y525390D01*
X565055Y525546D01*
X564864Y525707D01*
X564677Y525872D01*
X564494Y526042D01*
X564316Y526216D01*
X564142Y526394D01*
X563972Y526577D01*
X563807Y526764D01*
X563646Y526955D01*
X563490Y527149D01*
X563339Y527348D01*
X563193Y527550D01*
X563052Y527755D01*
X562916Y527964D01*
X562785Y528177D01*
X562660Y528392D01*
X562540Y528611D01*
X562425Y528832D01*
X562315Y529056D01*
X562212Y529283D01*
X562113Y529512D01*
X562021Y529743D01*
X561934Y529977D01*
X561853Y530213D01*
X561777Y530451D01*
X561708Y530690D01*
X561644Y530931D01*
X561587Y531174D01*
X561535Y531418D01*
X561490Y531663D01*
X561450Y531909D01*
X561416Y532156D01*
X561389Y532404D01*
X561368Y532653D01*
X561352Y532901D01*
X561343Y533151D01*
X561340Y533400D01*
D11*
X615442Y629158D02*
X615442Y640842D01*
X612196Y640842D01*
X612083Y640840D01*
X611970Y640834D01*
X611857Y640824D01*
X611744Y640810D01*
X611632Y640793D01*
X611521Y640771D01*
X611411Y640746D01*
X611301Y640716D01*
X611193Y640683D01*
X611086Y640646D01*
X610980Y640606D01*
X610876Y640561D01*
X610773Y640513D01*
X610672Y640462D01*
X610573Y640407D01*
X610476Y640349D01*
X610381Y640287D01*
X610288Y640222D01*
X610198Y640154D01*
X610110Y640083D01*
X610024Y640008D01*
X609941Y639931D01*
X609861Y639851D01*
X609784Y639768D01*
X609709Y639682D01*
X609638Y639594D01*
X609570Y639504D01*
X609505Y639411D01*
X609443Y639316D01*
X609385Y639219D01*
X609330Y639120D01*
X609279Y639019D01*
X609231Y638916D01*
X609186Y638812D01*
X609146Y638706D01*
X609109Y638599D01*
X609076Y638491D01*
X609046Y638381D01*
X609021Y638271D01*
X608999Y638160D01*
X608982Y638048D01*
X608968Y637935D01*
X608958Y637822D01*
X608952Y637709D01*
X608950Y637596D01*
X608951Y637596D02*
X608951Y632404D01*
X608950Y632404D02*
X608952Y632291D01*
X608958Y632178D01*
X608968Y632065D01*
X608982Y631952D01*
X608999Y631840D01*
X609021Y631729D01*
X609046Y631619D01*
X609076Y631509D01*
X609109Y631401D01*
X609146Y631294D01*
X609186Y631188D01*
X609231Y631084D01*
X609279Y630981D01*
X609330Y630880D01*
X609385Y630781D01*
X609443Y630684D01*
X609505Y630589D01*
X609570Y630496D01*
X609638Y630406D01*
X609709Y630318D01*
X609784Y630232D01*
X609861Y630149D01*
X609941Y630069D01*
X610024Y629992D01*
X610110Y629917D01*
X610198Y629846D01*
X610288Y629778D01*
X610381Y629713D01*
X610476Y629651D01*
X610573Y629593D01*
X610672Y629538D01*
X610773Y629487D01*
X610876Y629439D01*
X610980Y629394D01*
X611086Y629354D01*
X611193Y629317D01*
X611301Y629284D01*
X611411Y629254D01*
X611521Y629229D01*
X611632Y629207D01*
X611744Y629190D01*
X611857Y629176D01*
X611970Y629166D01*
X612083Y629160D01*
X612196Y629158D01*
X615442Y629158D01*
X601797Y629158D02*
X598551Y629158D01*
X601797Y629158D02*
X601884Y629160D01*
X601972Y629166D01*
X602058Y629176D01*
X602145Y629189D01*
X602230Y629207D01*
X602315Y629228D01*
X602399Y629253D01*
X602481Y629282D01*
X602562Y629315D01*
X602642Y629351D01*
X602720Y629390D01*
X602796Y629434D01*
X602870Y629480D01*
X602941Y629530D01*
X603011Y629583D01*
X603078Y629639D01*
X603142Y629698D01*
X603204Y629760D01*
X603263Y629824D01*
X603319Y629891D01*
X603372Y629961D01*
X603422Y630032D01*
X603468Y630106D01*
X603512Y630182D01*
X603551Y630260D01*
X603587Y630340D01*
X603620Y630421D01*
X603649Y630503D01*
X603674Y630587D01*
X603695Y630672D01*
X603713Y630757D01*
X603726Y630844D01*
X603736Y630930D01*
X603742Y631018D01*
X603744Y631105D01*
X603744Y634351D01*
X603743Y634351D02*
X603741Y634452D01*
X603735Y634552D01*
X603725Y634652D01*
X603712Y634752D01*
X603694Y634851D01*
X603673Y634950D01*
X603648Y635047D01*
X603619Y635144D01*
X603586Y635239D01*
X603550Y635333D01*
X603510Y635425D01*
X603467Y635516D01*
X603420Y635605D01*
X603370Y635692D01*
X603316Y635778D01*
X603259Y635861D01*
X603199Y635941D01*
X603136Y636020D01*
X603069Y636096D01*
X603000Y636169D01*
X602928Y636239D01*
X602854Y636307D01*
X602777Y636372D01*
X602697Y636433D01*
X602615Y636492D01*
X602531Y636547D01*
X602445Y636599D01*
X602357Y636648D01*
X602267Y636693D01*
X602175Y636735D01*
X602082Y636773D01*
X601987Y636807D01*
X601892Y636838D01*
X601795Y636865D01*
X601697Y636888D01*
X601598Y636908D01*
X601498Y636923D01*
X601398Y636935D01*
X601298Y636943D01*
X601197Y636947D01*
X601097Y636947D01*
X600996Y636943D01*
X600896Y636935D01*
X600796Y636923D01*
X600696Y636908D01*
X600597Y636888D01*
X600499Y636865D01*
X600402Y636838D01*
X600307Y636807D01*
X600212Y636773D01*
X600119Y636735D01*
X600027Y636693D01*
X599937Y636648D01*
X599849Y636599D01*
X599763Y636547D01*
X599679Y636492D01*
X599597Y636433D01*
X599517Y636372D01*
X599440Y636307D01*
X599366Y636239D01*
X599294Y636169D01*
X599225Y636096D01*
X599158Y636020D01*
X599095Y635941D01*
X599035Y635861D01*
X598978Y635778D01*
X598924Y635692D01*
X598874Y635605D01*
X598827Y635516D01*
X598784Y635425D01*
X598744Y635333D01*
X598708Y635239D01*
X598675Y635144D01*
X598646Y635047D01*
X598621Y634950D01*
X598600Y634851D01*
X598582Y634752D01*
X598569Y634652D01*
X598559Y634552D01*
X598553Y634452D01*
X598551Y634351D01*
X598551Y633053D01*
X603744Y633053D01*
X594219Y636947D02*
X591622Y629158D01*
X589026Y636947D01*
X582747Y629158D02*
X579501Y629158D01*
X582747Y629158D02*
X582834Y629160D01*
X582922Y629166D01*
X583008Y629176D01*
X583095Y629189D01*
X583180Y629207D01*
X583265Y629228D01*
X583349Y629253D01*
X583431Y629282D01*
X583512Y629315D01*
X583592Y629351D01*
X583670Y629390D01*
X583746Y629434D01*
X583820Y629480D01*
X583891Y629530D01*
X583961Y629583D01*
X584028Y629639D01*
X584092Y629698D01*
X584154Y629760D01*
X584213Y629824D01*
X584269Y629891D01*
X584322Y629961D01*
X584372Y630032D01*
X584418Y630106D01*
X584462Y630182D01*
X584501Y630260D01*
X584537Y630340D01*
X584570Y630421D01*
X584599Y630503D01*
X584624Y630587D01*
X584645Y630672D01*
X584663Y630757D01*
X584676Y630844D01*
X584686Y630930D01*
X584692Y631018D01*
X584694Y631105D01*
X584694Y634351D01*
X584693Y634351D02*
X584691Y634452D01*
X584685Y634552D01*
X584675Y634652D01*
X584662Y634752D01*
X584644Y634851D01*
X584623Y634950D01*
X584598Y635047D01*
X584569Y635144D01*
X584536Y635239D01*
X584500Y635333D01*
X584460Y635425D01*
X584417Y635516D01*
X584370Y635605D01*
X584320Y635692D01*
X584266Y635778D01*
X584209Y635861D01*
X584149Y635941D01*
X584086Y636020D01*
X584019Y636096D01*
X583950Y636169D01*
X583878Y636239D01*
X583804Y636307D01*
X583727Y636372D01*
X583647Y636433D01*
X583565Y636492D01*
X583481Y636547D01*
X583395Y636599D01*
X583307Y636648D01*
X583217Y636693D01*
X583125Y636735D01*
X583032Y636773D01*
X582937Y636807D01*
X582842Y636838D01*
X582745Y636865D01*
X582647Y636888D01*
X582548Y636908D01*
X582448Y636923D01*
X582348Y636935D01*
X582248Y636943D01*
X582147Y636947D01*
X582047Y636947D01*
X581946Y636943D01*
X581846Y636935D01*
X581746Y636923D01*
X581646Y636908D01*
X581547Y636888D01*
X581449Y636865D01*
X581352Y636838D01*
X581257Y636807D01*
X581162Y636773D01*
X581069Y636735D01*
X580977Y636693D01*
X580887Y636648D01*
X580799Y636599D01*
X580713Y636547D01*
X580629Y636492D01*
X580547Y636433D01*
X580467Y636372D01*
X580390Y636307D01*
X580316Y636239D01*
X580244Y636169D01*
X580175Y636096D01*
X580108Y636020D01*
X580045Y635941D01*
X579985Y635861D01*
X579928Y635778D01*
X579874Y635692D01*
X579824Y635605D01*
X579777Y635516D01*
X579734Y635425D01*
X579694Y635333D01*
X579658Y635239D01*
X579625Y635144D01*
X579596Y635047D01*
X579571Y634950D01*
X579550Y634851D01*
X579532Y634752D01*
X579519Y634652D01*
X579509Y634552D01*
X579503Y634452D01*
X579501Y634351D01*
X579501Y633053D01*
X584694Y633053D01*
X574638Y631105D02*
X574638Y640842D01*
X574638Y631105D02*
X574636Y631018D01*
X574630Y630930D01*
X574620Y630844D01*
X574607Y630757D01*
X574589Y630672D01*
X574568Y630587D01*
X574543Y630503D01*
X574514Y630421D01*
X574481Y630340D01*
X574445Y630260D01*
X574406Y630182D01*
X574362Y630106D01*
X574316Y630032D01*
X574266Y629961D01*
X574213Y629891D01*
X574157Y629824D01*
X574098Y629760D01*
X574036Y629698D01*
X573972Y629639D01*
X573905Y629583D01*
X573835Y629530D01*
X573764Y629480D01*
X573690Y629434D01*
X573614Y629390D01*
X573536Y629351D01*
X573456Y629315D01*
X573375Y629282D01*
X573293Y629253D01*
X573209Y629228D01*
X573124Y629207D01*
X573039Y629189D01*
X572952Y629176D01*
X572866Y629166D01*
X572778Y629160D01*
X572691Y629158D01*
X568692Y631754D02*
X568692Y634351D01*
X568690Y634452D01*
X568684Y634552D01*
X568674Y634652D01*
X568661Y634752D01*
X568643Y634851D01*
X568622Y634950D01*
X568597Y635047D01*
X568568Y635144D01*
X568535Y635239D01*
X568499Y635333D01*
X568459Y635425D01*
X568416Y635516D01*
X568369Y635605D01*
X568319Y635692D01*
X568265Y635778D01*
X568208Y635861D01*
X568148Y635941D01*
X568085Y636020D01*
X568018Y636096D01*
X567949Y636169D01*
X567877Y636239D01*
X567803Y636307D01*
X567726Y636372D01*
X567646Y636433D01*
X567564Y636492D01*
X567480Y636547D01*
X567394Y636599D01*
X567306Y636648D01*
X567216Y636693D01*
X567124Y636735D01*
X567031Y636773D01*
X566936Y636807D01*
X566841Y636838D01*
X566744Y636865D01*
X566646Y636888D01*
X566547Y636908D01*
X566447Y636923D01*
X566347Y636935D01*
X566247Y636943D01*
X566146Y636947D01*
X566046Y636947D01*
X565945Y636943D01*
X565845Y636935D01*
X565745Y636923D01*
X565645Y636908D01*
X565546Y636888D01*
X565448Y636865D01*
X565351Y636838D01*
X565256Y636807D01*
X565161Y636773D01*
X565068Y636735D01*
X564976Y636693D01*
X564886Y636648D01*
X564798Y636599D01*
X564712Y636547D01*
X564628Y636492D01*
X564546Y636433D01*
X564466Y636372D01*
X564389Y636307D01*
X564315Y636239D01*
X564243Y636169D01*
X564174Y636096D01*
X564107Y636020D01*
X564044Y635941D01*
X563984Y635861D01*
X563927Y635778D01*
X563873Y635692D01*
X563823Y635605D01*
X563776Y635516D01*
X563733Y635425D01*
X563693Y635333D01*
X563657Y635239D01*
X563624Y635144D01*
X563595Y635047D01*
X563570Y634950D01*
X563549Y634851D01*
X563531Y634752D01*
X563518Y634652D01*
X563508Y634552D01*
X563502Y634452D01*
X563500Y634351D01*
X563499Y634351D02*
X563499Y631754D01*
X563500Y631754D02*
X563502Y631653D01*
X563508Y631553D01*
X563518Y631453D01*
X563531Y631353D01*
X563549Y631254D01*
X563570Y631155D01*
X563595Y631058D01*
X563624Y630961D01*
X563657Y630866D01*
X563693Y630772D01*
X563733Y630680D01*
X563776Y630589D01*
X563823Y630500D01*
X563873Y630413D01*
X563927Y630327D01*
X563984Y630244D01*
X564044Y630164D01*
X564107Y630085D01*
X564174Y630009D01*
X564243Y629936D01*
X564315Y629866D01*
X564389Y629798D01*
X564466Y629733D01*
X564546Y629672D01*
X564628Y629613D01*
X564712Y629558D01*
X564798Y629506D01*
X564886Y629457D01*
X564976Y629412D01*
X565068Y629370D01*
X565161Y629332D01*
X565256Y629298D01*
X565351Y629267D01*
X565448Y629240D01*
X565546Y629217D01*
X565645Y629197D01*
X565745Y629182D01*
X565845Y629170D01*
X565945Y629162D01*
X566046Y629158D01*
X566146Y629158D01*
X566247Y629162D01*
X566347Y629170D01*
X566447Y629182D01*
X566547Y629197D01*
X566646Y629217D01*
X566744Y629240D01*
X566841Y629267D01*
X566936Y629298D01*
X567031Y629332D01*
X567124Y629370D01*
X567216Y629412D01*
X567306Y629457D01*
X567394Y629506D01*
X567480Y629558D01*
X567564Y629613D01*
X567646Y629672D01*
X567726Y629733D01*
X567803Y629798D01*
X567877Y629866D01*
X567949Y629936D01*
X568018Y630009D01*
X568085Y630085D01*
X568148Y630164D01*
X568208Y630244D01*
X568265Y630327D01*
X568319Y630413D01*
X568369Y630500D01*
X568416Y630589D01*
X568459Y630680D01*
X568499Y630772D01*
X568535Y630866D01*
X568568Y630961D01*
X568597Y631058D01*
X568622Y631155D01*
X568643Y631254D01*
X568661Y631353D01*
X568674Y631453D01*
X568684Y631553D01*
X568690Y631653D01*
X568692Y631754D01*
X558346Y636947D02*
X558346Y625263D01*
X558346Y636947D02*
X555101Y636947D01*
X555014Y636945D01*
X554926Y636939D01*
X554840Y636929D01*
X554753Y636916D01*
X554668Y636898D01*
X554583Y636877D01*
X554499Y636852D01*
X554417Y636823D01*
X554336Y636790D01*
X554256Y636754D01*
X554178Y636715D01*
X554102Y636671D01*
X554028Y636625D01*
X553957Y636575D01*
X553887Y636522D01*
X553820Y636466D01*
X553756Y636407D01*
X553694Y636346D01*
X553635Y636281D01*
X553579Y636214D01*
X553526Y636144D01*
X553476Y636073D01*
X553430Y635999D01*
X553387Y635923D01*
X553347Y635845D01*
X553311Y635765D01*
X553278Y635684D01*
X553249Y635602D01*
X553224Y635518D01*
X553203Y635433D01*
X553185Y635348D01*
X553172Y635261D01*
X553162Y635175D01*
X553156Y635087D01*
X553154Y635000D01*
X553153Y635000D02*
X553153Y631105D01*
X553154Y631105D02*
X553156Y631018D01*
X553162Y630930D01*
X553172Y630844D01*
X553185Y630757D01*
X553203Y630672D01*
X553224Y630587D01*
X553249Y630503D01*
X553278Y630421D01*
X553311Y630340D01*
X553347Y630260D01*
X553386Y630182D01*
X553430Y630106D01*
X553476Y630032D01*
X553526Y629961D01*
X553579Y629891D01*
X553635Y629824D01*
X553694Y629759D01*
X553756Y629698D01*
X553820Y629639D01*
X553887Y629583D01*
X553957Y629530D01*
X554028Y629480D01*
X554102Y629434D01*
X554178Y629390D01*
X554256Y629351D01*
X554336Y629315D01*
X554417Y629282D01*
X554499Y629253D01*
X554583Y629228D01*
X554668Y629207D01*
X554753Y629189D01*
X554840Y629176D01*
X554927Y629166D01*
X555014Y629160D01*
X555101Y629158D01*
X558346Y629158D01*
X546552Y629158D02*
X543306Y629158D01*
X546552Y629158D02*
X546639Y629160D01*
X546727Y629166D01*
X546813Y629176D01*
X546900Y629189D01*
X546985Y629207D01*
X547070Y629228D01*
X547154Y629253D01*
X547236Y629282D01*
X547317Y629315D01*
X547397Y629351D01*
X547475Y629390D01*
X547551Y629434D01*
X547625Y629480D01*
X547696Y629530D01*
X547766Y629583D01*
X547833Y629639D01*
X547897Y629698D01*
X547959Y629760D01*
X548018Y629824D01*
X548074Y629891D01*
X548127Y629961D01*
X548177Y630032D01*
X548223Y630106D01*
X548267Y630182D01*
X548306Y630260D01*
X548342Y630340D01*
X548375Y630421D01*
X548404Y630503D01*
X548429Y630587D01*
X548450Y630672D01*
X548468Y630757D01*
X548481Y630844D01*
X548491Y630930D01*
X548497Y631018D01*
X548499Y631105D01*
X548499Y634351D01*
X548497Y634452D01*
X548491Y634552D01*
X548481Y634652D01*
X548468Y634752D01*
X548450Y634851D01*
X548429Y634950D01*
X548404Y635047D01*
X548375Y635144D01*
X548342Y635239D01*
X548306Y635333D01*
X548266Y635425D01*
X548223Y635516D01*
X548176Y635605D01*
X548126Y635692D01*
X548072Y635778D01*
X548015Y635861D01*
X547955Y635941D01*
X547892Y636020D01*
X547825Y636096D01*
X547756Y636169D01*
X547684Y636239D01*
X547610Y636307D01*
X547533Y636372D01*
X547453Y636433D01*
X547371Y636492D01*
X547287Y636547D01*
X547201Y636599D01*
X547113Y636648D01*
X547023Y636693D01*
X546931Y636735D01*
X546838Y636773D01*
X546743Y636807D01*
X546648Y636838D01*
X546551Y636865D01*
X546453Y636888D01*
X546354Y636908D01*
X546254Y636923D01*
X546154Y636935D01*
X546054Y636943D01*
X545953Y636947D01*
X545853Y636947D01*
X545752Y636943D01*
X545652Y636935D01*
X545552Y636923D01*
X545452Y636908D01*
X545353Y636888D01*
X545255Y636865D01*
X545158Y636838D01*
X545063Y636807D01*
X544968Y636773D01*
X544875Y636735D01*
X544783Y636693D01*
X544693Y636648D01*
X544605Y636599D01*
X544519Y636547D01*
X544435Y636492D01*
X544353Y636433D01*
X544273Y636372D01*
X544196Y636307D01*
X544122Y636239D01*
X544050Y636169D01*
X543981Y636096D01*
X543914Y636020D01*
X543851Y635941D01*
X543791Y635861D01*
X543734Y635778D01*
X543680Y635692D01*
X543630Y635605D01*
X543583Y635516D01*
X543540Y635425D01*
X543500Y635333D01*
X543464Y635239D01*
X543431Y635144D01*
X543402Y635047D01*
X543377Y634950D01*
X543356Y634851D01*
X543338Y634752D01*
X543325Y634652D01*
X543315Y634552D01*
X543309Y634452D01*
X543307Y634351D01*
X543306Y634351D02*
X543306Y633053D01*
X548499Y633053D01*
X533459Y629158D02*
X533459Y640842D01*
X533459Y629158D02*
X536705Y629158D01*
X536792Y629160D01*
X536880Y629166D01*
X536966Y629176D01*
X537053Y629189D01*
X537138Y629207D01*
X537223Y629228D01*
X537307Y629253D01*
X537389Y629282D01*
X537470Y629315D01*
X537550Y629351D01*
X537628Y629390D01*
X537704Y629434D01*
X537778Y629480D01*
X537849Y629530D01*
X537919Y629583D01*
X537986Y629639D01*
X538050Y629698D01*
X538112Y629760D01*
X538171Y629824D01*
X538227Y629891D01*
X538280Y629961D01*
X538330Y630032D01*
X538376Y630106D01*
X538420Y630182D01*
X538459Y630260D01*
X538495Y630340D01*
X538528Y630421D01*
X538557Y630503D01*
X538582Y630587D01*
X538603Y630672D01*
X538621Y630757D01*
X538634Y630844D01*
X538644Y630930D01*
X538650Y631018D01*
X538652Y631105D01*
X538652Y635000D01*
X538650Y635087D01*
X538644Y635175D01*
X538634Y635261D01*
X538621Y635348D01*
X538603Y635433D01*
X538582Y635518D01*
X538557Y635602D01*
X538528Y635684D01*
X538495Y635765D01*
X538459Y635845D01*
X538420Y635923D01*
X538376Y635999D01*
X538330Y636073D01*
X538280Y636144D01*
X538227Y636214D01*
X538171Y636281D01*
X538112Y636345D01*
X538050Y636407D01*
X537986Y636466D01*
X537919Y636522D01*
X537849Y636575D01*
X537778Y636625D01*
X537704Y636671D01*
X537628Y636715D01*
X537550Y636754D01*
X537470Y636790D01*
X537389Y636823D01*
X537307Y636852D01*
X537223Y636877D01*
X537138Y636898D01*
X537053Y636916D01*
X536966Y636929D01*
X536880Y636939D01*
X536792Y636945D01*
X536705Y636947D01*
X533459Y636947D01*
X521770Y640842D02*
X521770Y629158D01*
X518525Y629158D01*
X518438Y629160D01*
X518350Y629166D01*
X518264Y629176D01*
X518177Y629189D01*
X518092Y629207D01*
X518007Y629228D01*
X517923Y629253D01*
X517841Y629282D01*
X517760Y629315D01*
X517680Y629351D01*
X517602Y629390D01*
X517526Y629434D01*
X517452Y629480D01*
X517381Y629530D01*
X517311Y629583D01*
X517244Y629639D01*
X517180Y629698D01*
X517118Y629759D01*
X517059Y629824D01*
X517003Y629891D01*
X516950Y629961D01*
X516900Y630032D01*
X516854Y630106D01*
X516811Y630182D01*
X516771Y630260D01*
X516735Y630340D01*
X516702Y630421D01*
X516673Y630503D01*
X516648Y630587D01*
X516627Y630672D01*
X516609Y630757D01*
X516596Y630844D01*
X516586Y630930D01*
X516580Y631018D01*
X516578Y631105D01*
X516577Y631105D02*
X516577Y635000D01*
X516578Y635000D02*
X516580Y635087D01*
X516586Y635175D01*
X516596Y635261D01*
X516609Y635348D01*
X516627Y635433D01*
X516648Y635518D01*
X516673Y635602D01*
X516702Y635684D01*
X516735Y635765D01*
X516771Y635845D01*
X516810Y635923D01*
X516854Y635999D01*
X516900Y636073D01*
X516950Y636144D01*
X517003Y636214D01*
X517059Y636281D01*
X517118Y636346D01*
X517180Y636407D01*
X517244Y636466D01*
X517311Y636522D01*
X517381Y636575D01*
X517452Y636625D01*
X517526Y636671D01*
X517602Y636715D01*
X517680Y636754D01*
X517760Y636790D01*
X517841Y636823D01*
X517923Y636852D01*
X518007Y636877D01*
X518092Y636898D01*
X518177Y636916D01*
X518264Y636929D01*
X518351Y636939D01*
X518438Y636945D01*
X518525Y636947D01*
X521770Y636947D01*
X512304Y625263D02*
X511006Y625263D01*
X507111Y636947D01*
X512304Y636947D02*
X509708Y629158D01*
X493057Y629158D02*
X492958Y629160D01*
X492858Y629166D01*
X492759Y629175D01*
X492661Y629188D01*
X492563Y629205D01*
X492465Y629226D01*
X492369Y629251D01*
X492274Y629279D01*
X492180Y629311D01*
X492087Y629346D01*
X491995Y629385D01*
X491905Y629428D01*
X491817Y629473D01*
X491730Y629523D01*
X491646Y629575D01*
X491563Y629631D01*
X491483Y629689D01*
X491405Y629751D01*
X491330Y629816D01*
X491257Y629884D01*
X491187Y629954D01*
X491119Y630027D01*
X491054Y630102D01*
X490992Y630180D01*
X490934Y630260D01*
X490878Y630343D01*
X490826Y630427D01*
X490776Y630514D01*
X490731Y630602D01*
X490688Y630692D01*
X490649Y630784D01*
X490614Y630877D01*
X490582Y630971D01*
X490554Y631066D01*
X490529Y631162D01*
X490508Y631260D01*
X490491Y631358D01*
X490478Y631456D01*
X490469Y631555D01*
X490463Y631655D01*
X490461Y631754D01*
X493057Y629158D02*
X493201Y629160D01*
X493346Y629166D01*
X493490Y629175D01*
X493633Y629188D01*
X493777Y629205D01*
X493920Y629226D01*
X494062Y629251D01*
X494203Y629279D01*
X494344Y629311D01*
X494484Y629347D01*
X494623Y629386D01*
X494761Y629429D01*
X494897Y629476D01*
X495033Y629526D01*
X495167Y629580D01*
X495299Y629637D01*
X495430Y629698D01*
X495559Y629762D01*
X495687Y629830D01*
X495813Y629901D01*
X495937Y629975D01*
X496058Y630052D01*
X496178Y630133D01*
X496296Y630216D01*
X496411Y630303D01*
X496524Y630393D01*
X496635Y630486D01*
X496743Y630581D01*
X496849Y630680D01*
X496952Y630781D01*
X496626Y638246D02*
X496624Y638345D01*
X496618Y638445D01*
X496609Y638544D01*
X496596Y638642D01*
X496579Y638740D01*
X496558Y638838D01*
X496533Y638934D01*
X496505Y639029D01*
X496473Y639123D01*
X496438Y639216D01*
X496399Y639308D01*
X496356Y639398D01*
X496311Y639486D01*
X496261Y639573D01*
X496209Y639657D01*
X496153Y639740D01*
X496095Y639820D01*
X496033Y639898D01*
X495968Y639973D01*
X495900Y640046D01*
X495830Y640116D01*
X495757Y640184D01*
X495682Y640249D01*
X495604Y640311D01*
X495524Y640369D01*
X495441Y640425D01*
X495357Y640477D01*
X495270Y640527D01*
X495182Y640572D01*
X495092Y640615D01*
X495000Y640654D01*
X494907Y640689D01*
X494813Y640721D01*
X494718Y640749D01*
X494622Y640774D01*
X494524Y640795D01*
X494426Y640812D01*
X494328Y640825D01*
X494229Y640834D01*
X494129Y640840D01*
X494030Y640842D01*
X493894Y640840D01*
X493758Y640834D01*
X493622Y640825D01*
X493486Y640812D01*
X493351Y640794D01*
X493217Y640774D01*
X493083Y640749D01*
X492949Y640721D01*
X492817Y640688D01*
X492686Y640653D01*
X492555Y640613D01*
X492426Y640570D01*
X492298Y640524D01*
X492172Y640473D01*
X492046Y640420D01*
X491923Y640362D01*
X491801Y640302D01*
X491681Y640238D01*
X491562Y640170D01*
X491446Y640100D01*
X491332Y640026D01*
X491219Y639949D01*
X491109Y639868D01*
X495329Y635974D02*
X495415Y636027D01*
X495499Y636084D01*
X495581Y636143D01*
X495661Y636206D01*
X495738Y636272D01*
X495813Y636340D01*
X495885Y636412D01*
X495954Y636486D01*
X496020Y636563D01*
X496083Y636642D01*
X496143Y636724D01*
X496200Y636808D01*
X496254Y636894D01*
X496304Y636982D01*
X496351Y637072D01*
X496395Y637163D01*
X496434Y637257D01*
X496471Y637351D01*
X496503Y637447D01*
X496532Y637545D01*
X496557Y637643D01*
X496578Y637742D01*
X496596Y637842D01*
X496609Y637942D01*
X496619Y638043D01*
X496625Y638145D01*
X496627Y638246D01*
X491758Y634026D02*
X491672Y633973D01*
X491588Y633916D01*
X491506Y633857D01*
X491426Y633794D01*
X491349Y633728D01*
X491274Y633660D01*
X491202Y633588D01*
X491133Y633514D01*
X491067Y633437D01*
X491004Y633358D01*
X490944Y633276D01*
X490887Y633192D01*
X490833Y633106D01*
X490783Y633018D01*
X490736Y632928D01*
X490692Y632837D01*
X490653Y632743D01*
X490616Y632649D01*
X490584Y632553D01*
X490555Y632455D01*
X490530Y632357D01*
X490509Y632258D01*
X490491Y632158D01*
X490478Y632058D01*
X490468Y631957D01*
X490462Y631855D01*
X490460Y631754D01*
X491758Y634026D02*
X495328Y635974D01*
X485499Y640842D02*
X485499Y629158D01*
X480306Y629158D01*
X476490Y627860D02*
X471297Y627860D01*
X466449Y629158D02*
X461256Y629158D01*
X466449Y629158D02*
X466449Y640842D01*
X461256Y640842D01*
X462554Y635649D02*
X466449Y635649D01*
X456678Y636947D02*
X456678Y629158D01*
X456678Y636947D02*
X453433Y636947D01*
X453346Y636945D01*
X453258Y636939D01*
X453172Y636929D01*
X453085Y636916D01*
X453000Y636898D01*
X452915Y636877D01*
X452831Y636852D01*
X452749Y636823D01*
X452668Y636790D01*
X452588Y636754D01*
X452510Y636715D01*
X452434Y636671D01*
X452360Y636625D01*
X452289Y636575D01*
X452219Y636522D01*
X452152Y636466D01*
X452088Y636407D01*
X452026Y636346D01*
X451967Y636281D01*
X451911Y636214D01*
X451858Y636144D01*
X451808Y636073D01*
X451762Y635999D01*
X451719Y635923D01*
X451679Y635845D01*
X451643Y635765D01*
X451610Y635684D01*
X451581Y635602D01*
X451556Y635518D01*
X451535Y635433D01*
X451517Y635348D01*
X451504Y635261D01*
X451494Y635175D01*
X451488Y635087D01*
X451486Y635000D01*
X451485Y635000D02*
X451485Y629158D01*
X444503Y629158D02*
X441257Y629158D01*
X444503Y629158D02*
X444590Y629160D01*
X444678Y629166D01*
X444764Y629176D01*
X444851Y629189D01*
X444936Y629207D01*
X445021Y629228D01*
X445105Y629253D01*
X445187Y629282D01*
X445268Y629315D01*
X445348Y629351D01*
X445426Y629390D01*
X445502Y629434D01*
X445576Y629480D01*
X445647Y629530D01*
X445717Y629583D01*
X445784Y629639D01*
X445848Y629698D01*
X445910Y629760D01*
X445969Y629824D01*
X446025Y629891D01*
X446078Y629961D01*
X446128Y630032D01*
X446174Y630106D01*
X446218Y630182D01*
X446257Y630260D01*
X446293Y630340D01*
X446326Y630421D01*
X446355Y630503D01*
X446380Y630587D01*
X446401Y630672D01*
X446419Y630757D01*
X446432Y630844D01*
X446442Y630930D01*
X446448Y631018D01*
X446450Y631105D01*
X446450Y635000D01*
X446448Y635087D01*
X446442Y635175D01*
X446432Y635261D01*
X446419Y635348D01*
X446401Y635433D01*
X446380Y635518D01*
X446355Y635602D01*
X446326Y635684D01*
X446293Y635765D01*
X446257Y635845D01*
X446218Y635923D01*
X446174Y635999D01*
X446128Y636073D01*
X446078Y636144D01*
X446025Y636214D01*
X445969Y636281D01*
X445910Y636345D01*
X445848Y636407D01*
X445784Y636466D01*
X445717Y636522D01*
X445647Y636575D01*
X445576Y636625D01*
X445502Y636671D01*
X445426Y636715D01*
X445348Y636754D01*
X445268Y636790D01*
X445187Y636823D01*
X445105Y636852D01*
X445021Y636877D01*
X444936Y636898D01*
X444851Y636916D01*
X444764Y636929D01*
X444678Y636939D01*
X444590Y636945D01*
X444503Y636947D01*
X441257Y636947D01*
X441257Y627211D01*
X441259Y627124D01*
X441265Y627036D01*
X441275Y626950D01*
X441288Y626863D01*
X441306Y626778D01*
X441327Y626693D01*
X441352Y626609D01*
X441381Y626527D01*
X441414Y626446D01*
X441450Y626366D01*
X441489Y626288D01*
X441533Y626212D01*
X441579Y626138D01*
X441629Y626067D01*
X441682Y625997D01*
X441738Y625930D01*
X441797Y625866D01*
X441859Y625804D01*
X441923Y625745D01*
X441990Y625689D01*
X442060Y625636D01*
X442131Y625586D01*
X442205Y625540D01*
X442281Y625496D01*
X442359Y625457D01*
X442439Y625421D01*
X442520Y625388D01*
X442602Y625359D01*
X442686Y625334D01*
X442771Y625313D01*
X442856Y625295D01*
X442943Y625282D01*
X443029Y625272D01*
X443117Y625266D01*
X443204Y625264D01*
X443204Y625263D02*
X445801Y625263D01*
X436175Y629158D02*
X436175Y636947D01*
X436499Y640193D02*
X436499Y640842D01*
X435850Y640842D01*
X435850Y640193D01*
X436499Y640193D01*
X431151Y636947D02*
X431151Y629158D01*
X431151Y636947D02*
X427906Y636947D01*
X427819Y636945D01*
X427731Y636939D01*
X427645Y636929D01*
X427558Y636916D01*
X427473Y636898D01*
X427388Y636877D01*
X427304Y636852D01*
X427222Y636823D01*
X427141Y636790D01*
X427061Y636754D01*
X426983Y636715D01*
X426907Y636671D01*
X426833Y636625D01*
X426762Y636575D01*
X426692Y636522D01*
X426625Y636466D01*
X426561Y636407D01*
X426499Y636346D01*
X426440Y636281D01*
X426384Y636214D01*
X426331Y636144D01*
X426281Y636073D01*
X426235Y635999D01*
X426192Y635923D01*
X426152Y635845D01*
X426116Y635765D01*
X426083Y635684D01*
X426054Y635602D01*
X426029Y635518D01*
X426008Y635433D01*
X425990Y635348D01*
X425977Y635261D01*
X425967Y635175D01*
X425961Y635087D01*
X425959Y635000D01*
X425958Y635000D02*
X425958Y629158D01*
X418917Y629158D02*
X415671Y629158D01*
X418917Y629158D02*
X419004Y629160D01*
X419092Y629166D01*
X419178Y629176D01*
X419265Y629189D01*
X419350Y629207D01*
X419435Y629228D01*
X419519Y629253D01*
X419601Y629282D01*
X419682Y629315D01*
X419762Y629351D01*
X419840Y629390D01*
X419916Y629434D01*
X419990Y629480D01*
X420061Y629530D01*
X420131Y629583D01*
X420198Y629639D01*
X420262Y629698D01*
X420324Y629760D01*
X420383Y629824D01*
X420439Y629891D01*
X420492Y629961D01*
X420542Y630032D01*
X420588Y630106D01*
X420632Y630182D01*
X420671Y630260D01*
X420707Y630340D01*
X420740Y630421D01*
X420769Y630503D01*
X420794Y630587D01*
X420815Y630672D01*
X420833Y630757D01*
X420846Y630844D01*
X420856Y630930D01*
X420862Y631018D01*
X420864Y631105D01*
X420864Y634351D01*
X420862Y634452D01*
X420856Y634552D01*
X420846Y634652D01*
X420833Y634752D01*
X420815Y634851D01*
X420794Y634950D01*
X420769Y635047D01*
X420740Y635144D01*
X420707Y635239D01*
X420671Y635333D01*
X420631Y635425D01*
X420588Y635516D01*
X420541Y635605D01*
X420491Y635692D01*
X420437Y635778D01*
X420380Y635861D01*
X420320Y635941D01*
X420257Y636020D01*
X420190Y636096D01*
X420121Y636169D01*
X420049Y636239D01*
X419975Y636307D01*
X419898Y636372D01*
X419818Y636433D01*
X419736Y636492D01*
X419652Y636547D01*
X419566Y636599D01*
X419478Y636648D01*
X419388Y636693D01*
X419296Y636735D01*
X419203Y636773D01*
X419108Y636807D01*
X419013Y636838D01*
X418916Y636865D01*
X418818Y636888D01*
X418719Y636908D01*
X418619Y636923D01*
X418519Y636935D01*
X418419Y636943D01*
X418318Y636947D01*
X418218Y636947D01*
X418117Y636943D01*
X418017Y636935D01*
X417917Y636923D01*
X417817Y636908D01*
X417718Y636888D01*
X417620Y636865D01*
X417523Y636838D01*
X417428Y636807D01*
X417333Y636773D01*
X417240Y636735D01*
X417148Y636693D01*
X417058Y636648D01*
X416970Y636599D01*
X416884Y636547D01*
X416800Y636492D01*
X416718Y636433D01*
X416638Y636372D01*
X416561Y636307D01*
X416487Y636239D01*
X416415Y636169D01*
X416346Y636096D01*
X416279Y636020D01*
X416216Y635941D01*
X416156Y635861D01*
X416099Y635778D01*
X416045Y635692D01*
X415995Y635605D01*
X415948Y635516D01*
X415905Y635425D01*
X415865Y635333D01*
X415829Y635239D01*
X415796Y635144D01*
X415767Y635047D01*
X415742Y634950D01*
X415721Y634851D01*
X415703Y634752D01*
X415690Y634652D01*
X415680Y634552D01*
X415674Y634452D01*
X415672Y634351D01*
X415671Y634351D02*
X415671Y633053D01*
X420864Y633053D01*
X409011Y629158D02*
X405765Y629158D01*
X409011Y629158D02*
X409098Y629160D01*
X409186Y629166D01*
X409272Y629176D01*
X409359Y629189D01*
X409444Y629207D01*
X409529Y629228D01*
X409613Y629253D01*
X409695Y629282D01*
X409776Y629315D01*
X409856Y629351D01*
X409934Y629390D01*
X410010Y629434D01*
X410084Y629480D01*
X410155Y629530D01*
X410225Y629583D01*
X410292Y629639D01*
X410356Y629698D01*
X410418Y629760D01*
X410477Y629824D01*
X410533Y629891D01*
X410586Y629961D01*
X410636Y630032D01*
X410682Y630106D01*
X410726Y630182D01*
X410765Y630260D01*
X410801Y630340D01*
X410834Y630421D01*
X410863Y630503D01*
X410888Y630587D01*
X410909Y630672D01*
X410927Y630757D01*
X410940Y630844D01*
X410950Y630930D01*
X410956Y631018D01*
X410958Y631105D01*
X410958Y634351D01*
X410956Y634452D01*
X410950Y634552D01*
X410940Y634652D01*
X410927Y634752D01*
X410909Y634851D01*
X410888Y634950D01*
X410863Y635047D01*
X410834Y635144D01*
X410801Y635239D01*
X410765Y635333D01*
X410725Y635425D01*
X410682Y635516D01*
X410635Y635605D01*
X410585Y635692D01*
X410531Y635778D01*
X410474Y635861D01*
X410414Y635941D01*
X410351Y636020D01*
X410284Y636096D01*
X410215Y636169D01*
X410143Y636239D01*
X410069Y636307D01*
X409992Y636372D01*
X409912Y636433D01*
X409830Y636492D01*
X409746Y636547D01*
X409660Y636599D01*
X409572Y636648D01*
X409482Y636693D01*
X409390Y636735D01*
X409297Y636773D01*
X409202Y636807D01*
X409107Y636838D01*
X409010Y636865D01*
X408912Y636888D01*
X408813Y636908D01*
X408713Y636923D01*
X408613Y636935D01*
X408513Y636943D01*
X408412Y636947D01*
X408312Y636947D01*
X408211Y636943D01*
X408111Y636935D01*
X408011Y636923D01*
X407911Y636908D01*
X407812Y636888D01*
X407714Y636865D01*
X407617Y636838D01*
X407522Y636807D01*
X407427Y636773D01*
X407334Y636735D01*
X407242Y636693D01*
X407152Y636648D01*
X407064Y636599D01*
X406978Y636547D01*
X406894Y636492D01*
X406812Y636433D01*
X406732Y636372D01*
X406655Y636307D01*
X406581Y636239D01*
X406509Y636169D01*
X406440Y636096D01*
X406373Y636020D01*
X406310Y635941D01*
X406250Y635861D01*
X406193Y635778D01*
X406139Y635692D01*
X406089Y635605D01*
X406042Y635516D01*
X405999Y635425D01*
X405959Y635333D01*
X405923Y635239D01*
X405890Y635144D01*
X405861Y635047D01*
X405836Y634950D01*
X405815Y634851D01*
X405797Y634752D01*
X405784Y634652D01*
X405774Y634552D01*
X405768Y634452D01*
X405766Y634351D01*
X405765Y634351D02*
X405765Y633053D01*
X410958Y633053D01*
X400605Y629158D02*
X400605Y636947D01*
X396710Y636947D01*
X396710Y635649D01*
X393122Y636947D02*
X393122Y629158D01*
X393446Y640193D02*
X393446Y640842D01*
X392797Y640842D01*
X392797Y640193D01*
X393446Y640193D01*
X388098Y636947D02*
X388098Y629158D01*
X388098Y636947D02*
X384853Y636947D01*
X384766Y636945D01*
X384678Y636939D01*
X384592Y636929D01*
X384505Y636916D01*
X384420Y636898D01*
X384335Y636877D01*
X384251Y636852D01*
X384169Y636823D01*
X384088Y636790D01*
X384008Y636754D01*
X383930Y636715D01*
X383854Y636671D01*
X383780Y636625D01*
X383709Y636575D01*
X383639Y636522D01*
X383572Y636466D01*
X383508Y636407D01*
X383446Y636346D01*
X383387Y636281D01*
X383331Y636214D01*
X383278Y636144D01*
X383228Y636073D01*
X383182Y635999D01*
X383139Y635923D01*
X383099Y635845D01*
X383063Y635765D01*
X383030Y635684D01*
X383001Y635602D01*
X382976Y635518D01*
X382955Y635433D01*
X382937Y635348D01*
X382924Y635261D01*
X382914Y635175D01*
X382908Y635087D01*
X382906Y635000D01*
X382905Y635000D02*
X382905Y629158D01*
X375923Y629158D02*
X372677Y629158D01*
X375923Y629158D02*
X376010Y629160D01*
X376098Y629166D01*
X376184Y629176D01*
X376271Y629189D01*
X376356Y629207D01*
X376441Y629228D01*
X376525Y629253D01*
X376607Y629282D01*
X376688Y629315D01*
X376768Y629351D01*
X376846Y629390D01*
X376922Y629434D01*
X376996Y629480D01*
X377067Y629530D01*
X377137Y629583D01*
X377204Y629639D01*
X377268Y629698D01*
X377330Y629760D01*
X377389Y629824D01*
X377445Y629891D01*
X377498Y629961D01*
X377548Y630032D01*
X377594Y630106D01*
X377638Y630182D01*
X377677Y630260D01*
X377713Y630340D01*
X377746Y630421D01*
X377775Y630503D01*
X377800Y630587D01*
X377821Y630672D01*
X377839Y630757D01*
X377852Y630844D01*
X377862Y630930D01*
X377868Y631018D01*
X377870Y631105D01*
X377870Y635000D01*
X377868Y635087D01*
X377862Y635175D01*
X377852Y635261D01*
X377839Y635348D01*
X377821Y635433D01*
X377800Y635518D01*
X377775Y635602D01*
X377746Y635684D01*
X377713Y635765D01*
X377677Y635845D01*
X377638Y635923D01*
X377594Y635999D01*
X377548Y636073D01*
X377498Y636144D01*
X377445Y636214D01*
X377389Y636281D01*
X377330Y636345D01*
X377268Y636407D01*
X377204Y636466D01*
X377137Y636522D01*
X377067Y636575D01*
X376996Y636625D01*
X376922Y636671D01*
X376846Y636715D01*
X376768Y636754D01*
X376688Y636790D01*
X376607Y636823D01*
X376525Y636852D01*
X376441Y636877D01*
X376356Y636898D01*
X376271Y636916D01*
X376184Y636929D01*
X376098Y636939D01*
X376010Y636945D01*
X375923Y636947D01*
X372677Y636947D01*
X372677Y627211D01*
X372678Y627211D02*
X372680Y627124D01*
X372686Y627036D01*
X372696Y626950D01*
X372709Y626863D01*
X372727Y626778D01*
X372748Y626693D01*
X372773Y626609D01*
X372802Y626527D01*
X372835Y626446D01*
X372871Y626366D01*
X372910Y626288D01*
X372954Y626212D01*
X373000Y626138D01*
X373050Y626067D01*
X373103Y625997D01*
X373159Y625930D01*
X373218Y625866D01*
X373280Y625804D01*
X373344Y625745D01*
X373411Y625689D01*
X373481Y625636D01*
X373552Y625586D01*
X373626Y625540D01*
X373702Y625496D01*
X373780Y625457D01*
X373860Y625421D01*
X373941Y625388D01*
X374023Y625359D01*
X374107Y625334D01*
X374192Y625313D01*
X374277Y625295D01*
X374364Y625282D01*
X374450Y625272D01*
X374538Y625266D01*
X374625Y625264D01*
X374625Y625263D02*
X377221Y625263D01*
D12*
X100838Y61468D02*
X100838Y45212D01*
X93613Y45212D01*
X84893Y51534D02*
X80829Y51534D01*
X84893Y51534D02*
X85005Y51532D01*
X85116Y51526D01*
X85227Y51516D01*
X85338Y51503D01*
X85448Y51485D01*
X85557Y51463D01*
X85666Y51438D01*
X85774Y51409D01*
X85880Y51376D01*
X85986Y51339D01*
X86090Y51299D01*
X86192Y51255D01*
X86293Y51207D01*
X86392Y51156D01*
X86490Y51101D01*
X86585Y51043D01*
X86678Y50982D01*
X86769Y50917D01*
X86858Y50849D01*
X86944Y50778D01*
X87027Y50705D01*
X87108Y50628D01*
X87187Y50548D01*
X87262Y50466D01*
X87334Y50381D01*
X87404Y50294D01*
X87470Y50204D01*
X87533Y50112D01*
X87593Y50017D01*
X87649Y49921D01*
X87702Y49823D01*
X87751Y49723D01*
X87797Y49621D01*
X87839Y49518D01*
X87878Y49413D01*
X87913Y49307D01*
X87944Y49200D01*
X87971Y49092D01*
X87995Y48983D01*
X88014Y48873D01*
X88030Y48763D01*
X88042Y48652D01*
X88050Y48540D01*
X88054Y48429D01*
X88054Y48317D01*
X88050Y48206D01*
X88042Y48094D01*
X88030Y47983D01*
X88014Y47873D01*
X87995Y47763D01*
X87971Y47654D01*
X87944Y47546D01*
X87913Y47439D01*
X87878Y47333D01*
X87839Y47228D01*
X87797Y47125D01*
X87751Y47023D01*
X87702Y46923D01*
X87649Y46825D01*
X87593Y46729D01*
X87533Y46634D01*
X87470Y46542D01*
X87404Y46452D01*
X87334Y46365D01*
X87262Y46280D01*
X87187Y46198D01*
X87108Y46118D01*
X87027Y46041D01*
X86944Y45968D01*
X86858Y45897D01*
X86769Y45829D01*
X86678Y45764D01*
X86585Y45703D01*
X86490Y45645D01*
X86392Y45590D01*
X86293Y45539D01*
X86192Y45491D01*
X86090Y45447D01*
X85986Y45407D01*
X85880Y45370D01*
X85774Y45337D01*
X85666Y45308D01*
X85557Y45283D01*
X85448Y45261D01*
X85338Y45243D01*
X85227Y45230D01*
X85116Y45220D01*
X85005Y45214D01*
X84893Y45212D01*
X80829Y45212D01*
X80829Y53340D01*
X80831Y53441D01*
X80837Y53542D01*
X80846Y53643D01*
X80859Y53744D01*
X80876Y53844D01*
X80897Y53943D01*
X80921Y54041D01*
X80949Y54138D01*
X80981Y54235D01*
X81016Y54330D01*
X81055Y54423D01*
X81097Y54515D01*
X81143Y54606D01*
X81192Y54695D01*
X81244Y54781D01*
X81300Y54866D01*
X81358Y54949D01*
X81420Y55029D01*
X81485Y55107D01*
X81552Y55183D01*
X81622Y55256D01*
X81695Y55326D01*
X81771Y55393D01*
X81849Y55458D01*
X81929Y55520D01*
X82012Y55578D01*
X82097Y55634D01*
X82184Y55686D01*
X82272Y55735D01*
X82363Y55781D01*
X82455Y55823D01*
X82548Y55862D01*
X82643Y55897D01*
X82740Y55929D01*
X82837Y55957D01*
X82935Y55981D01*
X83034Y56002D01*
X83134Y56019D01*
X83235Y56032D01*
X83336Y56041D01*
X83437Y56047D01*
X83538Y56049D01*
X83539Y56049D02*
X87151Y56049D01*
X72558Y51534D02*
X68042Y49728D01*
X72558Y51534D02*
X72646Y51571D01*
X72732Y51612D01*
X72817Y51656D01*
X72900Y51704D01*
X72980Y51755D01*
X73059Y51809D01*
X73135Y51867D01*
X73209Y51927D01*
X73281Y51991D01*
X73349Y52057D01*
X73415Y52127D01*
X73478Y52198D01*
X73539Y52273D01*
X73596Y52349D01*
X73649Y52428D01*
X73700Y52509D01*
X73747Y52592D01*
X73791Y52677D01*
X73831Y52764D01*
X73868Y52852D01*
X73901Y52942D01*
X73931Y53033D01*
X73956Y53125D01*
X73978Y53218D01*
X73996Y53312D01*
X74011Y53406D01*
X74021Y53501D01*
X74027Y53597D01*
X74030Y53692D01*
X74029Y53788D01*
X74023Y53883D01*
X74014Y53979D01*
X74001Y54073D01*
X73985Y54167D01*
X73964Y54261D01*
X73939Y54353D01*
X73911Y54444D01*
X73879Y54534D01*
X73844Y54623D01*
X73805Y54710D01*
X73762Y54796D01*
X73716Y54880D01*
X73666Y54961D01*
X73614Y55041D01*
X73558Y55119D01*
X73498Y55194D01*
X73436Y55266D01*
X73371Y55336D01*
X73303Y55404D01*
X73233Y55468D01*
X73160Y55530D01*
X73084Y55588D01*
X73006Y55644D01*
X72926Y55696D01*
X72844Y55745D01*
X72760Y55790D01*
X72674Y55832D01*
X72587Y55871D01*
X72498Y55906D01*
X72407Y55937D01*
X72316Y55964D01*
X72223Y55988D01*
X72130Y56008D01*
X72036Y56024D01*
X71941Y56036D01*
X71846Y56045D01*
X71750Y56049D01*
X71655Y56050D01*
X71408Y56043D01*
X71162Y56031D01*
X70916Y56013D01*
X70670Y55988D01*
X70426Y55958D01*
X70182Y55922D01*
X69939Y55881D01*
X69697Y55833D01*
X69456Y55779D01*
X69217Y55720D01*
X68979Y55655D01*
X68743Y55584D01*
X68508Y55508D01*
X68275Y55426D01*
X68045Y55338D01*
X67817Y55245D01*
X67590Y55147D01*
X68042Y49727D02*
X67954Y49690D01*
X67868Y49649D01*
X67783Y49605D01*
X67700Y49557D01*
X67620Y49506D01*
X67541Y49452D01*
X67465Y49394D01*
X67391Y49334D01*
X67319Y49270D01*
X67251Y49204D01*
X67185Y49134D01*
X67122Y49063D01*
X67061Y48988D01*
X67004Y48912D01*
X66951Y48833D01*
X66900Y48752D01*
X66853Y48669D01*
X66809Y48584D01*
X66769Y48497D01*
X66732Y48409D01*
X66699Y48319D01*
X66669Y48228D01*
X66644Y48136D01*
X66622Y48043D01*
X66604Y47949D01*
X66589Y47855D01*
X66579Y47760D01*
X66573Y47664D01*
X66570Y47569D01*
X66571Y47473D01*
X66577Y47378D01*
X66586Y47282D01*
X66599Y47188D01*
X66615Y47094D01*
X66636Y47000D01*
X66661Y46908D01*
X66689Y46817D01*
X66721Y46727D01*
X66756Y46638D01*
X66795Y46551D01*
X66838Y46465D01*
X66884Y46381D01*
X66934Y46300D01*
X66986Y46220D01*
X67042Y46142D01*
X67102Y46067D01*
X67164Y45995D01*
X67229Y45925D01*
X67297Y45857D01*
X67367Y45793D01*
X67440Y45731D01*
X67516Y45673D01*
X67594Y45617D01*
X67674Y45565D01*
X67756Y45516D01*
X67840Y45471D01*
X67926Y45429D01*
X68013Y45390D01*
X68102Y45355D01*
X68193Y45324D01*
X68284Y45297D01*
X68377Y45273D01*
X68470Y45253D01*
X68564Y45237D01*
X68659Y45225D01*
X68754Y45216D01*
X68850Y45212D01*
X68945Y45211D01*
X68946Y45212D02*
X69308Y45221D01*
X69670Y45239D01*
X70031Y45266D01*
X70391Y45301D01*
X70751Y45344D01*
X71110Y45396D01*
X71467Y45457D01*
X71822Y45526D01*
X72176Y45603D01*
X72528Y45689D01*
X72878Y45783D01*
X73226Y45886D01*
X73571Y45996D01*
X73913Y46115D01*
X60400Y45212D02*
X60400Y56049D01*
X60852Y60565D02*
X60852Y61468D01*
X59949Y61468D01*
X59949Y60565D01*
X60852Y60565D01*
X55410Y56049D02*
X49992Y56049D01*
X53604Y61468D02*
X53604Y47921D01*
X53602Y47820D01*
X53596Y47719D01*
X53587Y47618D01*
X53574Y47517D01*
X53557Y47417D01*
X53536Y47318D01*
X53512Y47220D01*
X53484Y47123D01*
X53452Y47026D01*
X53417Y46931D01*
X53378Y46838D01*
X53336Y46746D01*
X53290Y46655D01*
X53241Y46566D01*
X53189Y46480D01*
X53133Y46395D01*
X53075Y46312D01*
X53013Y46232D01*
X52948Y46154D01*
X52881Y46078D01*
X52811Y46005D01*
X52738Y45935D01*
X52662Y45868D01*
X52584Y45803D01*
X52504Y45741D01*
X52421Y45683D01*
X52336Y45627D01*
X52249Y45575D01*
X52161Y45526D01*
X52070Y45480D01*
X51978Y45438D01*
X51885Y45399D01*
X51790Y45364D01*
X51693Y45332D01*
X51596Y45304D01*
X51498Y45280D01*
X51399Y45259D01*
X51299Y45242D01*
X51198Y45229D01*
X51097Y45220D01*
X50996Y45214D01*
X50895Y45212D01*
X49992Y45212D01*
X43692Y45212D02*
X43692Y61468D01*
X43692Y56049D02*
X39177Y56049D01*
X39073Y56047D01*
X38970Y56041D01*
X38866Y56031D01*
X38763Y56017D01*
X38661Y55999D01*
X38560Y55978D01*
X38459Y55952D01*
X38360Y55923D01*
X38261Y55890D01*
X38164Y55853D01*
X38069Y55812D01*
X37975Y55768D01*
X37883Y55720D01*
X37793Y55669D01*
X37704Y55614D01*
X37618Y55556D01*
X37535Y55494D01*
X37453Y55430D01*
X37375Y55362D01*
X37299Y55292D01*
X37225Y55219D01*
X37155Y55142D01*
X37087Y55064D01*
X37023Y54982D01*
X36961Y54899D01*
X36903Y54813D01*
X36848Y54724D01*
X36797Y54634D01*
X36749Y54542D01*
X36705Y54448D01*
X36664Y54353D01*
X36627Y54256D01*
X36594Y54157D01*
X36565Y54058D01*
X36539Y53957D01*
X36518Y53856D01*
X36500Y53754D01*
X36486Y53651D01*
X36476Y53547D01*
X36470Y53444D01*
X36468Y53340D01*
X36467Y53340D02*
X36467Y45212D01*
X26537Y51534D02*
X22473Y51534D01*
X26537Y51534D02*
X26649Y51532D01*
X26760Y51526D01*
X26871Y51516D01*
X26982Y51503D01*
X27092Y51485D01*
X27201Y51463D01*
X27310Y51438D01*
X27418Y51409D01*
X27524Y51376D01*
X27630Y51339D01*
X27734Y51299D01*
X27836Y51255D01*
X27937Y51207D01*
X28036Y51156D01*
X28134Y51101D01*
X28229Y51043D01*
X28322Y50982D01*
X28413Y50917D01*
X28502Y50849D01*
X28588Y50778D01*
X28671Y50705D01*
X28752Y50628D01*
X28831Y50548D01*
X28906Y50466D01*
X28978Y50381D01*
X29048Y50294D01*
X29114Y50204D01*
X29177Y50112D01*
X29237Y50017D01*
X29293Y49921D01*
X29346Y49823D01*
X29395Y49723D01*
X29441Y49621D01*
X29483Y49518D01*
X29522Y49413D01*
X29557Y49307D01*
X29588Y49200D01*
X29615Y49092D01*
X29639Y48983D01*
X29658Y48873D01*
X29674Y48763D01*
X29686Y48652D01*
X29694Y48540D01*
X29698Y48429D01*
X29698Y48317D01*
X29694Y48206D01*
X29686Y48094D01*
X29674Y47983D01*
X29658Y47873D01*
X29639Y47763D01*
X29615Y47654D01*
X29588Y47546D01*
X29557Y47439D01*
X29522Y47333D01*
X29483Y47228D01*
X29441Y47125D01*
X29395Y47023D01*
X29346Y46923D01*
X29293Y46825D01*
X29237Y46729D01*
X29177Y46634D01*
X29114Y46542D01*
X29048Y46452D01*
X28978Y46365D01*
X28906Y46280D01*
X28831Y46198D01*
X28752Y46118D01*
X28671Y46041D01*
X28588Y45968D01*
X28502Y45897D01*
X28413Y45829D01*
X28322Y45764D01*
X28229Y45703D01*
X28134Y45645D01*
X28036Y45590D01*
X27937Y45539D01*
X27836Y45491D01*
X27734Y45447D01*
X27630Y45407D01*
X27524Y45370D01*
X27418Y45337D01*
X27310Y45308D01*
X27201Y45283D01*
X27092Y45261D01*
X26982Y45243D01*
X26871Y45230D01*
X26760Y45220D01*
X26649Y45214D01*
X26537Y45212D01*
X22473Y45212D01*
X22473Y53340D01*
X22475Y53441D01*
X22481Y53542D01*
X22490Y53643D01*
X22503Y53744D01*
X22520Y53844D01*
X22541Y53943D01*
X22565Y54041D01*
X22593Y54138D01*
X22625Y54235D01*
X22660Y54330D01*
X22699Y54423D01*
X22741Y54515D01*
X22787Y54606D01*
X22836Y54695D01*
X22888Y54781D01*
X22944Y54866D01*
X23002Y54949D01*
X23064Y55029D01*
X23129Y55107D01*
X23196Y55183D01*
X23266Y55256D01*
X23339Y55326D01*
X23415Y55393D01*
X23493Y55458D01*
X23573Y55520D01*
X23656Y55578D01*
X23741Y55634D01*
X23828Y55686D01*
X23916Y55735D01*
X24007Y55781D01*
X24099Y55823D01*
X24192Y55862D01*
X24287Y55897D01*
X24384Y55929D01*
X24481Y55957D01*
X24579Y55981D01*
X24678Y56002D01*
X24778Y56019D01*
X24879Y56032D01*
X24980Y56041D01*
X25081Y56047D01*
X25182Y56049D01*
X28794Y56049D01*
M02*
