G04 EAGLE Gerber X2 export*
%TF.Part,Single*%
%TF.FileFunction,Other,Top Layer*%
%TF.FilePolarity,Positive*%
%TF.GenerationSoftware,Autodesk,EAGLE,8.7.0*%
%TF.CreationDate,2019-08-22T10:02:17Z*%
G75*
%MOMM*%
%FSLAX34Y34*%
%LPD*%
%AMOC8*
5,1,8,0,0,1.08239X$1,22.5*%
G01*
%ADD10C,0.000000*%
%ADD11P,3.436588X8X22.500000*%
%ADD12P,2.749271X8X22.500000*%
%ADD13C,1.574800*%
%ADD14C,1.320800*%
%ADD15C,1.524000*%
%ADD16P,1.429621X8X292.500000*%
%ADD17P,1.429621X8X22.500000*%
%ADD18P,1.429621X8X202.500000*%
%ADD19P,1.429621X8X112.500000*%
%ADD20C,1.778000*%
%ADD21C,2.540000*%
%ADD22P,2.749271X8X202.500000*%
%ADD23C,1.300000*%
%ADD24C,1.270000*%
%ADD25C,1.100000*%
%ADD26C,1.016000*%
%ADD27C,0.812800*%


D10*
X0Y25400D02*
X1000000Y25400D01*
X1000000Y800000D01*
X0Y800000D01*
X0Y25400D01*
X942340Y762000D02*
X942343Y762249D01*
X942352Y762499D01*
X942368Y762747D01*
X942389Y762996D01*
X942416Y763244D01*
X942450Y763491D01*
X942490Y763737D01*
X942535Y763982D01*
X942587Y764226D01*
X942644Y764469D01*
X942708Y764710D01*
X942777Y764949D01*
X942853Y765187D01*
X942934Y765423D01*
X943021Y765657D01*
X943113Y765888D01*
X943212Y766117D01*
X943315Y766344D01*
X943425Y766568D01*
X943540Y766789D01*
X943660Y767008D01*
X943785Y767223D01*
X943916Y767436D01*
X944052Y767645D01*
X944193Y767850D01*
X944339Y768052D01*
X944490Y768251D01*
X944646Y768445D01*
X944807Y768636D01*
X944972Y768823D01*
X945142Y769006D01*
X945316Y769184D01*
X945494Y769358D01*
X945677Y769528D01*
X945864Y769693D01*
X946055Y769854D01*
X946249Y770010D01*
X946448Y770161D01*
X946650Y770307D01*
X946855Y770448D01*
X947064Y770584D01*
X947277Y770715D01*
X947492Y770840D01*
X947711Y770960D01*
X947932Y771075D01*
X948156Y771185D01*
X948383Y771288D01*
X948612Y771387D01*
X948843Y771479D01*
X949077Y771566D01*
X949313Y771647D01*
X949551Y771723D01*
X949790Y771792D01*
X950031Y771856D01*
X950274Y771913D01*
X950518Y771965D01*
X950763Y772010D01*
X951009Y772050D01*
X951256Y772084D01*
X951504Y772111D01*
X951753Y772132D01*
X952001Y772148D01*
X952251Y772157D01*
X952500Y772160D01*
X952749Y772157D01*
X952999Y772148D01*
X953247Y772132D01*
X953496Y772111D01*
X953744Y772084D01*
X953991Y772050D01*
X954237Y772010D01*
X954482Y771965D01*
X954726Y771913D01*
X954969Y771856D01*
X955210Y771792D01*
X955449Y771723D01*
X955687Y771647D01*
X955923Y771566D01*
X956157Y771479D01*
X956388Y771387D01*
X956617Y771288D01*
X956844Y771185D01*
X957068Y771075D01*
X957289Y770960D01*
X957508Y770840D01*
X957723Y770715D01*
X957936Y770584D01*
X958145Y770448D01*
X958350Y770307D01*
X958552Y770161D01*
X958751Y770010D01*
X958945Y769854D01*
X959136Y769693D01*
X959323Y769528D01*
X959506Y769358D01*
X959684Y769184D01*
X959858Y769006D01*
X960028Y768823D01*
X960193Y768636D01*
X960354Y768445D01*
X960510Y768251D01*
X960661Y768052D01*
X960807Y767850D01*
X960948Y767645D01*
X961084Y767436D01*
X961215Y767223D01*
X961340Y767008D01*
X961460Y766789D01*
X961575Y766568D01*
X961685Y766344D01*
X961788Y766117D01*
X961887Y765888D01*
X961979Y765657D01*
X962066Y765423D01*
X962147Y765187D01*
X962223Y764949D01*
X962292Y764710D01*
X962356Y764469D01*
X962413Y764226D01*
X962465Y763982D01*
X962510Y763737D01*
X962550Y763491D01*
X962584Y763244D01*
X962611Y762996D01*
X962632Y762747D01*
X962648Y762499D01*
X962657Y762249D01*
X962660Y762000D01*
X962657Y761751D01*
X962648Y761501D01*
X962632Y761253D01*
X962611Y761004D01*
X962584Y760756D01*
X962550Y760509D01*
X962510Y760263D01*
X962465Y760018D01*
X962413Y759774D01*
X962356Y759531D01*
X962292Y759290D01*
X962223Y759051D01*
X962147Y758813D01*
X962066Y758577D01*
X961979Y758343D01*
X961887Y758112D01*
X961788Y757883D01*
X961685Y757656D01*
X961575Y757432D01*
X961460Y757211D01*
X961340Y756992D01*
X961215Y756777D01*
X961084Y756564D01*
X960948Y756355D01*
X960807Y756150D01*
X960661Y755948D01*
X960510Y755749D01*
X960354Y755555D01*
X960193Y755364D01*
X960028Y755177D01*
X959858Y754994D01*
X959684Y754816D01*
X959506Y754642D01*
X959323Y754472D01*
X959136Y754307D01*
X958945Y754146D01*
X958751Y753990D01*
X958552Y753839D01*
X958350Y753693D01*
X958145Y753552D01*
X957936Y753416D01*
X957723Y753285D01*
X957508Y753160D01*
X957289Y753040D01*
X957068Y752925D01*
X956844Y752815D01*
X956617Y752712D01*
X956388Y752613D01*
X956157Y752521D01*
X955923Y752434D01*
X955687Y752353D01*
X955449Y752277D01*
X955210Y752208D01*
X954969Y752144D01*
X954726Y752087D01*
X954482Y752035D01*
X954237Y751990D01*
X953991Y751950D01*
X953744Y751916D01*
X953496Y751889D01*
X953247Y751868D01*
X952999Y751852D01*
X952749Y751843D01*
X952500Y751840D01*
X952251Y751843D01*
X952001Y751852D01*
X951753Y751868D01*
X951504Y751889D01*
X951256Y751916D01*
X951009Y751950D01*
X950763Y751990D01*
X950518Y752035D01*
X950274Y752087D01*
X950031Y752144D01*
X949790Y752208D01*
X949551Y752277D01*
X949313Y752353D01*
X949077Y752434D01*
X948843Y752521D01*
X948612Y752613D01*
X948383Y752712D01*
X948156Y752815D01*
X947932Y752925D01*
X947711Y753040D01*
X947492Y753160D01*
X947277Y753285D01*
X947064Y753416D01*
X946855Y753552D01*
X946650Y753693D01*
X946448Y753839D01*
X946249Y753990D01*
X946055Y754146D01*
X945864Y754307D01*
X945677Y754472D01*
X945494Y754642D01*
X945316Y754816D01*
X945142Y754994D01*
X944972Y755177D01*
X944807Y755364D01*
X944646Y755555D01*
X944490Y755749D01*
X944339Y755948D01*
X944193Y756150D01*
X944052Y756355D01*
X943916Y756564D01*
X943785Y756777D01*
X943660Y756992D01*
X943540Y757211D01*
X943425Y757432D01*
X943315Y757656D01*
X943212Y757883D01*
X943113Y758112D01*
X943021Y758343D01*
X942934Y758577D01*
X942853Y758813D01*
X942777Y759051D01*
X942708Y759290D01*
X942644Y759531D01*
X942587Y759774D01*
X942535Y760018D01*
X942490Y760263D01*
X942450Y760509D01*
X942416Y760756D01*
X942389Y761004D01*
X942368Y761253D01*
X942352Y761501D01*
X942343Y761751D01*
X942340Y762000D01*
X15240Y393700D02*
X15243Y393949D01*
X15252Y394199D01*
X15268Y394447D01*
X15289Y394696D01*
X15316Y394944D01*
X15350Y395191D01*
X15390Y395437D01*
X15435Y395682D01*
X15487Y395926D01*
X15544Y396169D01*
X15608Y396410D01*
X15677Y396649D01*
X15753Y396887D01*
X15834Y397123D01*
X15921Y397357D01*
X16013Y397588D01*
X16112Y397817D01*
X16215Y398044D01*
X16325Y398268D01*
X16440Y398489D01*
X16560Y398708D01*
X16685Y398923D01*
X16816Y399136D01*
X16952Y399345D01*
X17093Y399550D01*
X17239Y399752D01*
X17390Y399951D01*
X17546Y400145D01*
X17707Y400336D01*
X17872Y400523D01*
X18042Y400706D01*
X18216Y400884D01*
X18394Y401058D01*
X18577Y401228D01*
X18764Y401393D01*
X18955Y401554D01*
X19149Y401710D01*
X19348Y401861D01*
X19550Y402007D01*
X19755Y402148D01*
X19964Y402284D01*
X20177Y402415D01*
X20392Y402540D01*
X20611Y402660D01*
X20832Y402775D01*
X21056Y402885D01*
X21283Y402988D01*
X21512Y403087D01*
X21743Y403179D01*
X21977Y403266D01*
X22213Y403347D01*
X22451Y403423D01*
X22690Y403492D01*
X22931Y403556D01*
X23174Y403613D01*
X23418Y403665D01*
X23663Y403710D01*
X23909Y403750D01*
X24156Y403784D01*
X24404Y403811D01*
X24653Y403832D01*
X24901Y403848D01*
X25151Y403857D01*
X25400Y403860D01*
X25649Y403857D01*
X25899Y403848D01*
X26147Y403832D01*
X26396Y403811D01*
X26644Y403784D01*
X26891Y403750D01*
X27137Y403710D01*
X27382Y403665D01*
X27626Y403613D01*
X27869Y403556D01*
X28110Y403492D01*
X28349Y403423D01*
X28587Y403347D01*
X28823Y403266D01*
X29057Y403179D01*
X29288Y403087D01*
X29517Y402988D01*
X29744Y402885D01*
X29968Y402775D01*
X30189Y402660D01*
X30408Y402540D01*
X30623Y402415D01*
X30836Y402284D01*
X31045Y402148D01*
X31250Y402007D01*
X31452Y401861D01*
X31651Y401710D01*
X31845Y401554D01*
X32036Y401393D01*
X32223Y401228D01*
X32406Y401058D01*
X32584Y400884D01*
X32758Y400706D01*
X32928Y400523D01*
X33093Y400336D01*
X33254Y400145D01*
X33410Y399951D01*
X33561Y399752D01*
X33707Y399550D01*
X33848Y399345D01*
X33984Y399136D01*
X34115Y398923D01*
X34240Y398708D01*
X34360Y398489D01*
X34475Y398268D01*
X34585Y398044D01*
X34688Y397817D01*
X34787Y397588D01*
X34879Y397357D01*
X34966Y397123D01*
X35047Y396887D01*
X35123Y396649D01*
X35192Y396410D01*
X35256Y396169D01*
X35313Y395926D01*
X35365Y395682D01*
X35410Y395437D01*
X35450Y395191D01*
X35484Y394944D01*
X35511Y394696D01*
X35532Y394447D01*
X35548Y394199D01*
X35557Y393949D01*
X35560Y393700D01*
X35557Y393451D01*
X35548Y393201D01*
X35532Y392953D01*
X35511Y392704D01*
X35484Y392456D01*
X35450Y392209D01*
X35410Y391963D01*
X35365Y391718D01*
X35313Y391474D01*
X35256Y391231D01*
X35192Y390990D01*
X35123Y390751D01*
X35047Y390513D01*
X34966Y390277D01*
X34879Y390043D01*
X34787Y389812D01*
X34688Y389583D01*
X34585Y389356D01*
X34475Y389132D01*
X34360Y388911D01*
X34240Y388692D01*
X34115Y388477D01*
X33984Y388264D01*
X33848Y388055D01*
X33707Y387850D01*
X33561Y387648D01*
X33410Y387449D01*
X33254Y387255D01*
X33093Y387064D01*
X32928Y386877D01*
X32758Y386694D01*
X32584Y386516D01*
X32406Y386342D01*
X32223Y386172D01*
X32036Y386007D01*
X31845Y385846D01*
X31651Y385690D01*
X31452Y385539D01*
X31250Y385393D01*
X31045Y385252D01*
X30836Y385116D01*
X30623Y384985D01*
X30408Y384860D01*
X30189Y384740D01*
X29968Y384625D01*
X29744Y384515D01*
X29517Y384412D01*
X29288Y384313D01*
X29057Y384221D01*
X28823Y384134D01*
X28587Y384053D01*
X28349Y383977D01*
X28110Y383908D01*
X27869Y383844D01*
X27626Y383787D01*
X27382Y383735D01*
X27137Y383690D01*
X26891Y383650D01*
X26644Y383616D01*
X26396Y383589D01*
X26147Y383568D01*
X25899Y383552D01*
X25649Y383543D01*
X25400Y383540D01*
X25151Y383543D01*
X24901Y383552D01*
X24653Y383568D01*
X24404Y383589D01*
X24156Y383616D01*
X23909Y383650D01*
X23663Y383690D01*
X23418Y383735D01*
X23174Y383787D01*
X22931Y383844D01*
X22690Y383908D01*
X22451Y383977D01*
X22213Y384053D01*
X21977Y384134D01*
X21743Y384221D01*
X21512Y384313D01*
X21283Y384412D01*
X21056Y384515D01*
X20832Y384625D01*
X20611Y384740D01*
X20392Y384860D01*
X20177Y384985D01*
X19964Y385116D01*
X19755Y385252D01*
X19550Y385393D01*
X19348Y385539D01*
X19149Y385690D01*
X18955Y385846D01*
X18764Y386007D01*
X18577Y386172D01*
X18394Y386342D01*
X18216Y386516D01*
X18042Y386694D01*
X17872Y386877D01*
X17707Y387064D01*
X17546Y387255D01*
X17390Y387449D01*
X17239Y387648D01*
X17093Y387850D01*
X16952Y388055D01*
X16816Y388264D01*
X16685Y388477D01*
X16560Y388692D01*
X16440Y388911D01*
X16325Y389132D01*
X16215Y389356D01*
X16112Y389583D01*
X16013Y389812D01*
X15921Y390043D01*
X15834Y390277D01*
X15753Y390513D01*
X15677Y390751D01*
X15608Y390990D01*
X15544Y391231D01*
X15487Y391474D01*
X15435Y391718D01*
X15390Y391963D01*
X15350Y392209D01*
X15316Y392456D01*
X15289Y392704D01*
X15268Y392953D01*
X15252Y393201D01*
X15243Y393451D01*
X15240Y393700D01*
X942340Y50800D02*
X942343Y51049D01*
X942352Y51299D01*
X942368Y51547D01*
X942389Y51796D01*
X942416Y52044D01*
X942450Y52291D01*
X942490Y52537D01*
X942535Y52782D01*
X942587Y53026D01*
X942644Y53269D01*
X942708Y53510D01*
X942777Y53749D01*
X942853Y53987D01*
X942934Y54223D01*
X943021Y54457D01*
X943113Y54688D01*
X943212Y54917D01*
X943315Y55144D01*
X943425Y55368D01*
X943540Y55589D01*
X943660Y55808D01*
X943785Y56023D01*
X943916Y56236D01*
X944052Y56445D01*
X944193Y56650D01*
X944339Y56852D01*
X944490Y57051D01*
X944646Y57245D01*
X944807Y57436D01*
X944972Y57623D01*
X945142Y57806D01*
X945316Y57984D01*
X945494Y58158D01*
X945677Y58328D01*
X945864Y58493D01*
X946055Y58654D01*
X946249Y58810D01*
X946448Y58961D01*
X946650Y59107D01*
X946855Y59248D01*
X947064Y59384D01*
X947277Y59515D01*
X947492Y59640D01*
X947711Y59760D01*
X947932Y59875D01*
X948156Y59985D01*
X948383Y60088D01*
X948612Y60187D01*
X948843Y60279D01*
X949077Y60366D01*
X949313Y60447D01*
X949551Y60523D01*
X949790Y60592D01*
X950031Y60656D01*
X950274Y60713D01*
X950518Y60765D01*
X950763Y60810D01*
X951009Y60850D01*
X951256Y60884D01*
X951504Y60911D01*
X951753Y60932D01*
X952001Y60948D01*
X952251Y60957D01*
X952500Y60960D01*
X952749Y60957D01*
X952999Y60948D01*
X953247Y60932D01*
X953496Y60911D01*
X953744Y60884D01*
X953991Y60850D01*
X954237Y60810D01*
X954482Y60765D01*
X954726Y60713D01*
X954969Y60656D01*
X955210Y60592D01*
X955449Y60523D01*
X955687Y60447D01*
X955923Y60366D01*
X956157Y60279D01*
X956388Y60187D01*
X956617Y60088D01*
X956844Y59985D01*
X957068Y59875D01*
X957289Y59760D01*
X957508Y59640D01*
X957723Y59515D01*
X957936Y59384D01*
X958145Y59248D01*
X958350Y59107D01*
X958552Y58961D01*
X958751Y58810D01*
X958945Y58654D01*
X959136Y58493D01*
X959323Y58328D01*
X959506Y58158D01*
X959684Y57984D01*
X959858Y57806D01*
X960028Y57623D01*
X960193Y57436D01*
X960354Y57245D01*
X960510Y57051D01*
X960661Y56852D01*
X960807Y56650D01*
X960948Y56445D01*
X961084Y56236D01*
X961215Y56023D01*
X961340Y55808D01*
X961460Y55589D01*
X961575Y55368D01*
X961685Y55144D01*
X961788Y54917D01*
X961887Y54688D01*
X961979Y54457D01*
X962066Y54223D01*
X962147Y53987D01*
X962223Y53749D01*
X962292Y53510D01*
X962356Y53269D01*
X962413Y53026D01*
X962465Y52782D01*
X962510Y52537D01*
X962550Y52291D01*
X962584Y52044D01*
X962611Y51796D01*
X962632Y51547D01*
X962648Y51299D01*
X962657Y51049D01*
X962660Y50800D01*
X962657Y50551D01*
X962648Y50301D01*
X962632Y50053D01*
X962611Y49804D01*
X962584Y49556D01*
X962550Y49309D01*
X962510Y49063D01*
X962465Y48818D01*
X962413Y48574D01*
X962356Y48331D01*
X962292Y48090D01*
X962223Y47851D01*
X962147Y47613D01*
X962066Y47377D01*
X961979Y47143D01*
X961887Y46912D01*
X961788Y46683D01*
X961685Y46456D01*
X961575Y46232D01*
X961460Y46011D01*
X961340Y45792D01*
X961215Y45577D01*
X961084Y45364D01*
X960948Y45155D01*
X960807Y44950D01*
X960661Y44748D01*
X960510Y44549D01*
X960354Y44355D01*
X960193Y44164D01*
X960028Y43977D01*
X959858Y43794D01*
X959684Y43616D01*
X959506Y43442D01*
X959323Y43272D01*
X959136Y43107D01*
X958945Y42946D01*
X958751Y42790D01*
X958552Y42639D01*
X958350Y42493D01*
X958145Y42352D01*
X957936Y42216D01*
X957723Y42085D01*
X957508Y41960D01*
X957289Y41840D01*
X957068Y41725D01*
X956844Y41615D01*
X956617Y41512D01*
X956388Y41413D01*
X956157Y41321D01*
X955923Y41234D01*
X955687Y41153D01*
X955449Y41077D01*
X955210Y41008D01*
X954969Y40944D01*
X954726Y40887D01*
X954482Y40835D01*
X954237Y40790D01*
X953991Y40750D01*
X953744Y40716D01*
X953496Y40689D01*
X953247Y40668D01*
X952999Y40652D01*
X952749Y40643D01*
X952500Y40640D01*
X952251Y40643D01*
X952001Y40652D01*
X951753Y40668D01*
X951504Y40689D01*
X951256Y40716D01*
X951009Y40750D01*
X950763Y40790D01*
X950518Y40835D01*
X950274Y40887D01*
X950031Y40944D01*
X949790Y41008D01*
X949551Y41077D01*
X949313Y41153D01*
X949077Y41234D01*
X948843Y41321D01*
X948612Y41413D01*
X948383Y41512D01*
X948156Y41615D01*
X947932Y41725D01*
X947711Y41840D01*
X947492Y41960D01*
X947277Y42085D01*
X947064Y42216D01*
X946855Y42352D01*
X946650Y42493D01*
X946448Y42639D01*
X946249Y42790D01*
X946055Y42946D01*
X945864Y43107D01*
X945677Y43272D01*
X945494Y43442D01*
X945316Y43616D01*
X945142Y43794D01*
X944972Y43977D01*
X944807Y44164D01*
X944646Y44355D01*
X944490Y44549D01*
X944339Y44748D01*
X944193Y44950D01*
X944052Y45155D01*
X943916Y45364D01*
X943785Y45577D01*
X943660Y45792D01*
X943540Y46011D01*
X943425Y46232D01*
X943315Y46456D01*
X943212Y46683D01*
X943113Y46912D01*
X943021Y47143D01*
X942934Y47377D01*
X942853Y47613D01*
X942777Y47851D01*
X942708Y48090D01*
X942644Y48331D01*
X942587Y48574D01*
X942535Y48818D01*
X942490Y49063D01*
X942450Y49309D01*
X942416Y49556D01*
X942389Y49804D01*
X942368Y50053D01*
X942352Y50301D01*
X942343Y50551D01*
X942340Y50800D01*
X561340Y533400D02*
X561343Y533649D01*
X561352Y533899D01*
X561368Y534147D01*
X561389Y534396D01*
X561416Y534644D01*
X561450Y534891D01*
X561490Y535137D01*
X561535Y535382D01*
X561587Y535626D01*
X561644Y535869D01*
X561708Y536110D01*
X561777Y536349D01*
X561853Y536587D01*
X561934Y536823D01*
X562021Y537057D01*
X562113Y537288D01*
X562212Y537517D01*
X562315Y537744D01*
X562425Y537968D01*
X562540Y538189D01*
X562660Y538408D01*
X562785Y538623D01*
X562916Y538836D01*
X563052Y539045D01*
X563193Y539250D01*
X563339Y539452D01*
X563490Y539651D01*
X563646Y539845D01*
X563807Y540036D01*
X563972Y540223D01*
X564142Y540406D01*
X564316Y540584D01*
X564494Y540758D01*
X564677Y540928D01*
X564864Y541093D01*
X565055Y541254D01*
X565249Y541410D01*
X565448Y541561D01*
X565650Y541707D01*
X565855Y541848D01*
X566064Y541984D01*
X566277Y542115D01*
X566492Y542240D01*
X566711Y542360D01*
X566932Y542475D01*
X567156Y542585D01*
X567383Y542688D01*
X567612Y542787D01*
X567843Y542879D01*
X568077Y542966D01*
X568313Y543047D01*
X568551Y543123D01*
X568790Y543192D01*
X569031Y543256D01*
X569274Y543313D01*
X569518Y543365D01*
X569763Y543410D01*
X570009Y543450D01*
X570256Y543484D01*
X570504Y543511D01*
X570753Y543532D01*
X571001Y543548D01*
X571251Y543557D01*
X571500Y543560D01*
X571749Y543557D01*
X571999Y543548D01*
X572247Y543532D01*
X572496Y543511D01*
X572744Y543484D01*
X572991Y543450D01*
X573237Y543410D01*
X573482Y543365D01*
X573726Y543313D01*
X573969Y543256D01*
X574210Y543192D01*
X574449Y543123D01*
X574687Y543047D01*
X574923Y542966D01*
X575157Y542879D01*
X575388Y542787D01*
X575617Y542688D01*
X575844Y542585D01*
X576068Y542475D01*
X576289Y542360D01*
X576508Y542240D01*
X576723Y542115D01*
X576936Y541984D01*
X577145Y541848D01*
X577350Y541707D01*
X577552Y541561D01*
X577751Y541410D01*
X577945Y541254D01*
X578136Y541093D01*
X578323Y540928D01*
X578506Y540758D01*
X578684Y540584D01*
X578858Y540406D01*
X579028Y540223D01*
X579193Y540036D01*
X579354Y539845D01*
X579510Y539651D01*
X579661Y539452D01*
X579807Y539250D01*
X579948Y539045D01*
X580084Y538836D01*
X580215Y538623D01*
X580340Y538408D01*
X580460Y538189D01*
X580575Y537968D01*
X580685Y537744D01*
X580788Y537517D01*
X580887Y537288D01*
X580979Y537057D01*
X581066Y536823D01*
X581147Y536587D01*
X581223Y536349D01*
X581292Y536110D01*
X581356Y535869D01*
X581413Y535626D01*
X581465Y535382D01*
X581510Y535137D01*
X581550Y534891D01*
X581584Y534644D01*
X581611Y534396D01*
X581632Y534147D01*
X581648Y533899D01*
X581657Y533649D01*
X581660Y533400D01*
X581657Y533151D01*
X581648Y532901D01*
X581632Y532653D01*
X581611Y532404D01*
X581584Y532156D01*
X581550Y531909D01*
X581510Y531663D01*
X581465Y531418D01*
X581413Y531174D01*
X581356Y530931D01*
X581292Y530690D01*
X581223Y530451D01*
X581147Y530213D01*
X581066Y529977D01*
X580979Y529743D01*
X580887Y529512D01*
X580788Y529283D01*
X580685Y529056D01*
X580575Y528832D01*
X580460Y528611D01*
X580340Y528392D01*
X580215Y528177D01*
X580084Y527964D01*
X579948Y527755D01*
X579807Y527550D01*
X579661Y527348D01*
X579510Y527149D01*
X579354Y526955D01*
X579193Y526764D01*
X579028Y526577D01*
X578858Y526394D01*
X578684Y526216D01*
X578506Y526042D01*
X578323Y525872D01*
X578136Y525707D01*
X577945Y525546D01*
X577751Y525390D01*
X577552Y525239D01*
X577350Y525093D01*
X577145Y524952D01*
X576936Y524816D01*
X576723Y524685D01*
X576508Y524560D01*
X576289Y524440D01*
X576068Y524325D01*
X575844Y524215D01*
X575617Y524112D01*
X575388Y524013D01*
X575157Y523921D01*
X574923Y523834D01*
X574687Y523753D01*
X574449Y523677D01*
X574210Y523608D01*
X573969Y523544D01*
X573726Y523487D01*
X573482Y523435D01*
X573237Y523390D01*
X572991Y523350D01*
X572744Y523316D01*
X572496Y523289D01*
X572247Y523268D01*
X571999Y523252D01*
X571749Y523243D01*
X571500Y523240D01*
X571251Y523243D01*
X571001Y523252D01*
X570753Y523268D01*
X570504Y523289D01*
X570256Y523316D01*
X570009Y523350D01*
X569763Y523390D01*
X569518Y523435D01*
X569274Y523487D01*
X569031Y523544D01*
X568790Y523608D01*
X568551Y523677D01*
X568313Y523753D01*
X568077Y523834D01*
X567843Y523921D01*
X567612Y524013D01*
X567383Y524112D01*
X567156Y524215D01*
X566932Y524325D01*
X566711Y524440D01*
X566492Y524560D01*
X566277Y524685D01*
X566064Y524816D01*
X565855Y524952D01*
X565650Y525093D01*
X565448Y525239D01*
X565249Y525390D01*
X565055Y525546D01*
X564864Y525707D01*
X564677Y525872D01*
X564494Y526042D01*
X564316Y526216D01*
X564142Y526394D01*
X563972Y526577D01*
X563807Y526764D01*
X563646Y526955D01*
X563490Y527149D01*
X563339Y527348D01*
X563193Y527550D01*
X563052Y527755D01*
X562916Y527964D01*
X562785Y528177D01*
X562660Y528392D01*
X562540Y528611D01*
X562425Y528832D01*
X562315Y529056D01*
X562212Y529283D01*
X562113Y529512D01*
X562021Y529743D01*
X561934Y529977D01*
X561853Y530213D01*
X561777Y530451D01*
X561708Y530690D01*
X561644Y530931D01*
X561587Y531174D01*
X561535Y531418D01*
X561490Y531663D01*
X561450Y531909D01*
X561416Y532156D01*
X561389Y532404D01*
X561368Y532653D01*
X561352Y532901D01*
X561343Y533151D01*
X561340Y533400D01*
D11*
X711200Y596900D03*
X304800Y596900D03*
X711200Y774700D03*
X304800Y774700D03*
D12*
X44450Y539750D03*
D13*
X406400Y477774D02*
X406400Y462026D01*
X381000Y462026D02*
X381000Y477774D01*
X355600Y477774D02*
X355600Y462026D01*
X330200Y462026D02*
X330200Y477774D01*
X304800Y477774D02*
X304800Y462026D01*
X279400Y462026D02*
X279400Y477774D01*
X254000Y477774D02*
X254000Y462026D01*
X228600Y462026D02*
X228600Y477774D01*
X203200Y477774D02*
X203200Y462026D01*
X177800Y462026D02*
X177800Y477774D01*
X152400Y477774D02*
X152400Y462026D01*
X127000Y462026D02*
X127000Y477774D01*
X101600Y477774D02*
X101600Y462026D01*
X76200Y462026D02*
X76200Y477774D01*
X50800Y477774D02*
X50800Y462026D01*
X50800Y325374D02*
X50800Y309626D01*
X76200Y309626D02*
X76200Y325374D01*
X101600Y325374D02*
X101600Y309626D01*
X127000Y309626D02*
X127000Y325374D01*
X152400Y325374D02*
X152400Y309626D01*
X177800Y309626D02*
X177800Y325374D01*
X203200Y325374D02*
X203200Y309626D01*
X228600Y309626D02*
X228600Y325374D01*
X254000Y325374D02*
X254000Y309626D01*
X279400Y309626D02*
X279400Y325374D01*
X304800Y325374D02*
X304800Y309626D01*
X330200Y309626D02*
X330200Y325374D01*
X355600Y325374D02*
X355600Y309626D01*
X381000Y309626D02*
X381000Y325374D01*
X406400Y325374D02*
X406400Y309626D01*
D12*
X82550Y393700D03*
D14*
X291846Y539750D02*
X305054Y539750D01*
X228854Y539750D02*
X215646Y539750D01*
D12*
X44450Y590550D03*
D15*
X798830Y406400D02*
X814070Y406400D01*
X814070Y381000D02*
X798830Y381000D01*
X798830Y355600D02*
X814070Y355600D01*
X814070Y330200D02*
X798830Y330200D01*
X248920Y114300D02*
X233680Y114300D01*
X233680Y139700D02*
X248920Y139700D01*
X248920Y165100D02*
X233680Y165100D01*
X233680Y190500D02*
X248920Y190500D01*
X248920Y215900D02*
X233680Y215900D01*
X336550Y115570D02*
X336550Y100330D01*
X361950Y100330D02*
X361950Y115570D01*
X387350Y115570D02*
X387350Y100330D01*
X412750Y100330D02*
X412750Y115570D01*
X438150Y115570D02*
X438150Y100330D01*
D12*
X800100Y673100D03*
X800100Y723900D03*
D16*
X514350Y139700D03*
X514350Y63500D03*
D17*
X901700Y444500D03*
X977900Y444500D03*
D16*
X336550Y215900D03*
X336550Y139700D03*
X368300Y215900D03*
X368300Y139700D03*
X400050Y215900D03*
X400050Y139700D03*
X431800Y215900D03*
X431800Y139700D03*
D18*
X977900Y508000D03*
X901700Y508000D03*
D19*
X831850Y82550D03*
X831850Y158750D03*
D17*
X749300Y247650D03*
X825500Y247650D03*
D18*
X615950Y158750D03*
X539750Y158750D03*
X723900Y247650D03*
X647700Y247650D03*
D17*
X539750Y44450D03*
X615950Y44450D03*
D18*
X977900Y139700D03*
X901700Y139700D03*
X977900Y228600D03*
X901700Y228600D03*
X939800Y298450D03*
X863600Y298450D03*
D16*
X717550Y158750D03*
X717550Y82550D03*
D12*
X965200Y381000D03*
X901700Y381000D03*
D14*
X647954Y76200D02*
X634746Y76200D01*
X634746Y101600D02*
X647954Y101600D01*
X647954Y50800D02*
X634746Y50800D01*
X774700Y75946D02*
X774700Y89154D01*
X800100Y89154D02*
X800100Y75946D01*
X749300Y75946D02*
X749300Y89154D01*
X800100Y145796D02*
X800100Y159004D01*
X749300Y159004D02*
X749300Y145796D01*
X774700Y145796D02*
X774700Y159004D01*
D20*
X101600Y549910D02*
X101600Y567690D01*
X203200Y567690D02*
X203200Y549910D01*
D19*
X977900Y571500D03*
X977900Y596900D03*
X977900Y304800D03*
X977900Y330200D03*
D16*
X977900Y196850D03*
X977900Y171450D03*
X977900Y114300D03*
X977900Y88900D03*
D21*
X869950Y584200D03*
D22*
X819150Y584200D03*
D15*
X210820Y736600D02*
X195580Y736600D01*
X195580Y711200D02*
X210820Y711200D01*
X210820Y685800D02*
X195580Y685800D01*
D23*
X95250Y241300D03*
X215900Y241300D03*
D24*
X95250Y241300D01*
D25*
X577850Y330200D03*
D24*
X577850Y266700D01*
D25*
X577850Y266700D03*
D23*
X539750Y495300D03*
D24*
X539750Y381000D01*
D23*
X539750Y381000D03*
D26*
X120650Y44450D02*
X15240Y143510D01*
X120650Y44450D02*
X457200Y44450D01*
X495300Y101600D01*
X15240Y143510D02*
X15240Y345440D01*
X495300Y101600D02*
X596900Y101600D01*
X628650Y133350D01*
X666750Y133350D01*
X679450Y120650D01*
X25400Y355600D02*
X15240Y345440D01*
X25400Y355600D02*
X63500Y355600D01*
X82550Y393700D01*
X679450Y120650D02*
X857250Y120650D01*
D25*
X857250Y120650D03*
X539750Y330200D03*
D27*
X539750Y266700D01*
D25*
X539750Y266700D03*
X596900Y431800D03*
D27*
X698500Y431800D01*
D25*
X698500Y431800D03*
X615950Y330200D03*
D27*
X615950Y266700D01*
D25*
X615950Y266700D03*
D27*
X488950Y209550D02*
X469900Y228600D01*
X488950Y209550D02*
X609600Y209550D01*
X628650Y190500D01*
X469900Y228600D02*
X469900Y317500D01*
X393700Y393700D02*
X158750Y393700D01*
D25*
X158750Y393700D03*
D27*
X393700Y393700D02*
X469900Y317500D01*
X628650Y190500D02*
X850900Y190500D01*
X869950Y171450D01*
X901700Y171450D01*
D25*
X901700Y171450D03*
X469900Y184150D03*
D27*
X539750Y184150D01*
D25*
X539750Y184150D03*
X628650Y488950D03*
D27*
X698500Y488950D01*
D25*
X698500Y488950D03*
X628650Y374650D03*
D27*
X698500Y374650D01*
D25*
X698500Y374650D03*
D27*
X622300Y228600D02*
X514350Y228600D01*
X622300Y228600D02*
X635000Y215900D01*
X514350Y228600D02*
X495300Y247650D01*
X412750Y419100D02*
X158750Y419100D01*
D25*
X158750Y419100D03*
D27*
X495300Y336550D02*
X495300Y247650D01*
X495300Y336550D02*
X412750Y419100D01*
X635000Y215900D02*
X863600Y215900D01*
D25*
X863600Y215900D03*
M02*
