G04 EAGLE Gerber X2 export*
G75*
%MOMM*%
%FSLAX34Y34*%
%LPD*%
%AMOC8*
5,1,8,0,0,1.08239X$1,22.5*%
G01*
%ADD10C,1.300000*%
%ADD11C,1.270000*%
%ADD12C,1.100000*%
%ADD13C,1.016000*%
%ADD14C,1.200000*%
%ADD15C,0.812800*%


D10*
X95250Y215900D03*
X215900Y215900D03*
D11*
X95250Y215900D01*
D12*
X577850Y304800D03*
D11*
X577850Y241300D01*
D12*
X577850Y241300D03*
D10*
X539750Y469900D03*
D11*
X539750Y355600D01*
D10*
X539750Y355600D03*
D13*
X120650Y19050D02*
X15240Y118110D01*
X120650Y19050D02*
X457200Y19050D01*
X495300Y76200D01*
X15240Y118110D02*
X15240Y320040D01*
X495300Y76200D02*
X596900Y76200D01*
X628650Y107950D01*
X666750Y107950D01*
X679450Y95250D01*
X857250Y95250D01*
D12*
X857250Y95250D03*
D13*
X69850Y349250D02*
X15240Y320040D01*
X69850Y349250D02*
X69850Y381000D01*
X15240Y435610D01*
X15240Y459740D01*
X31750Y476250D01*
D14*
X88900Y495300D03*
D13*
X82550Y476250D02*
X31750Y476250D01*
X82550Y476250D02*
X88900Y482600D01*
X88900Y495300D01*
D12*
X539750Y304800D03*
D15*
X539750Y241300D01*
D12*
X539750Y241300D03*
X596900Y406400D03*
D15*
X698500Y406400D01*
D12*
X698500Y406400D03*
X615950Y304800D03*
D15*
X615950Y241300D01*
D12*
X615950Y241300D03*
D15*
X488950Y184150D02*
X469900Y203200D01*
X488950Y184150D02*
X609600Y184150D01*
X628650Y165100D01*
X469900Y203200D02*
X469900Y292100D01*
X393700Y368300D02*
X158750Y368300D01*
D12*
X158750Y368300D03*
D15*
X393700Y368300D02*
X469900Y292100D01*
X628650Y165100D02*
X850900Y165100D01*
X869950Y146050D01*
X901700Y146050D01*
D12*
X901700Y146050D03*
X469900Y158750D03*
D15*
X539750Y158750D01*
D12*
X539750Y158750D03*
X628650Y463550D03*
D15*
X698500Y463550D01*
D12*
X698500Y463550D03*
X628650Y349250D03*
D15*
X698500Y349250D01*
D12*
X698500Y349250D03*
D15*
X622300Y203200D02*
X514350Y203200D01*
X622300Y203200D02*
X635000Y190500D01*
X514350Y203200D02*
X495300Y222250D01*
X412750Y393700D02*
X158750Y393700D01*
D12*
X158750Y393700D03*
D15*
X495300Y311150D02*
X495300Y222250D01*
X495300Y311150D02*
X412750Y393700D01*
X635000Y190500D02*
X863600Y190500D01*
D12*
X863600Y190500D03*
M02*
