M48
;GenerationSoftware,Autodesk,EAGLE,8.7.0*%
;CreationDate,2019-08-29T15:07:22Z*%
FMAT,2
ICI,OFF
METRIC,TZ,000.000
T7C0.350
T6C0.813
T5C1.000
T4C1.016
T3C1.118
T2C1.321
T1C2.032
%
G90
M71
T1
X95250Y73660
X2540Y36830
X95250Y2540
X57150Y50800
T2
X72390Y57150
X31750Y57150
X72390Y74930
X31750Y74930
T3
X6350Y49530
X6350Y57150
X6350Y53340
X90170Y35560
X96520Y35560
X80645Y69850
X80645Y64770
T4
X86995Y55245
X80645Y35560
X80645Y33020
X80645Y38100
X20320Y68580
X20320Y71120
X81915Y55245
X20320Y66040
X43815Y8255
X41275Y8255
X80645Y30480
X36195Y8255
X33655Y8255
X24130Y19050
X24130Y16510
X24130Y13970
X24130Y11430
X38735Y8255
X24130Y8890
T5
X38100Y44450
X35560Y44450
X33020Y44450
X30480Y44450
X27940Y44450
X25400Y44450
X22860Y44450
X20320Y44450
X17780Y44450
X15240Y44450
X12700Y44450
X10160Y44450
X7620Y44450
X17780Y29210
X5080Y29210
X7620Y29210
X10160Y29210
X12700Y29210
X15240Y29210
X40640Y44450
X20320Y29210
X5080Y44450
X25400Y29210
X27940Y29210
X30480Y29210
X33020Y29210
X35560Y29210
X38100Y29210
X40640Y29210
X22860Y29210
T6
X97790Y14605
X97790Y8890
X97790Y6350
X80010Y12700
X30480Y50800
X22860Y50800
X61595Y1905
X51435Y11430
X51435Y3810
X90170Y41910
X97790Y41910
X33655Y19050
X33655Y11430
X36830Y19050
X36830Y11430
X40005Y19050
X40005Y11430
X43180Y19050
X43180Y11430
X97790Y48260
X90170Y48260
X83185Y5715
X83185Y13335
X74930Y22225
X82550Y22225
X61595Y13335
X53975Y13335
X72390Y22225
X64770Y22225
X53975Y1905
X97790Y11430
X90170Y11430
X97790Y20320
X90170Y20320
X93980Y27305
X86360Y27305
X71755Y13335
X71755Y5715
X64135Y5080
X64135Y7620
X64135Y2540
X77470Y5715
X80010Y5715
X74930Y5715
X74930Y12700
X77470Y12700
X12065Y52705
X22225Y52705
X97790Y53340
X97790Y55880
X97790Y27940
X97790Y30480
X97790Y17145
T7
X21590Y21590
X57785Y30480
X57785Y24130
X53975Y46990
X69850Y40640
X61595Y30480
X9525Y21590
X53975Y15875
X86360Y19050
X15875Y39370
X69850Y34925
X62865Y34925
X69850Y46355
X62865Y46355
X59690Y40640
X53975Y24130
X46990Y15875
X90170Y14605
X15875Y36830
X53975Y30480
X8890Y49530
X85725Y9525
X53975Y35560
X61595Y24130
M30