G04 EAGLE Gerber X2 export*
G75*
%MOMM*%
%FSLAX34Y34*%
%LPD*%
%AMOC8*
5,1,8,0,0,1.08239X$1,22.5*%
G01*
%ADD10C,0.000000*%


D10*
X0Y0D02*
X1000000Y0D01*
X1000000Y774600D01*
X0Y774600D01*
X0Y0D01*
X942340Y736600D02*
X942343Y736849D01*
X942352Y737099D01*
X942368Y737347D01*
X942389Y737596D01*
X942416Y737844D01*
X942450Y738091D01*
X942490Y738337D01*
X942535Y738582D01*
X942587Y738826D01*
X942644Y739069D01*
X942708Y739310D01*
X942777Y739549D01*
X942853Y739787D01*
X942934Y740023D01*
X943021Y740257D01*
X943113Y740488D01*
X943212Y740717D01*
X943315Y740944D01*
X943425Y741168D01*
X943540Y741389D01*
X943660Y741608D01*
X943785Y741823D01*
X943916Y742036D01*
X944052Y742245D01*
X944193Y742450D01*
X944339Y742652D01*
X944490Y742851D01*
X944646Y743045D01*
X944807Y743236D01*
X944972Y743423D01*
X945142Y743606D01*
X945316Y743784D01*
X945494Y743958D01*
X945677Y744128D01*
X945864Y744293D01*
X946055Y744454D01*
X946249Y744610D01*
X946448Y744761D01*
X946650Y744907D01*
X946855Y745048D01*
X947064Y745184D01*
X947277Y745315D01*
X947492Y745440D01*
X947711Y745560D01*
X947932Y745675D01*
X948156Y745785D01*
X948383Y745888D01*
X948612Y745987D01*
X948843Y746079D01*
X949077Y746166D01*
X949313Y746247D01*
X949551Y746323D01*
X949790Y746392D01*
X950031Y746456D01*
X950274Y746513D01*
X950518Y746565D01*
X950763Y746610D01*
X951009Y746650D01*
X951256Y746684D01*
X951504Y746711D01*
X951753Y746732D01*
X952001Y746748D01*
X952251Y746757D01*
X952500Y746760D01*
X952749Y746757D01*
X952999Y746748D01*
X953247Y746732D01*
X953496Y746711D01*
X953744Y746684D01*
X953991Y746650D01*
X954237Y746610D01*
X954482Y746565D01*
X954726Y746513D01*
X954969Y746456D01*
X955210Y746392D01*
X955449Y746323D01*
X955687Y746247D01*
X955923Y746166D01*
X956157Y746079D01*
X956388Y745987D01*
X956617Y745888D01*
X956844Y745785D01*
X957068Y745675D01*
X957289Y745560D01*
X957508Y745440D01*
X957723Y745315D01*
X957936Y745184D01*
X958145Y745048D01*
X958350Y744907D01*
X958552Y744761D01*
X958751Y744610D01*
X958945Y744454D01*
X959136Y744293D01*
X959323Y744128D01*
X959506Y743958D01*
X959684Y743784D01*
X959858Y743606D01*
X960028Y743423D01*
X960193Y743236D01*
X960354Y743045D01*
X960510Y742851D01*
X960661Y742652D01*
X960807Y742450D01*
X960948Y742245D01*
X961084Y742036D01*
X961215Y741823D01*
X961340Y741608D01*
X961460Y741389D01*
X961575Y741168D01*
X961685Y740944D01*
X961788Y740717D01*
X961887Y740488D01*
X961979Y740257D01*
X962066Y740023D01*
X962147Y739787D01*
X962223Y739549D01*
X962292Y739310D01*
X962356Y739069D01*
X962413Y738826D01*
X962465Y738582D01*
X962510Y738337D01*
X962550Y738091D01*
X962584Y737844D01*
X962611Y737596D01*
X962632Y737347D01*
X962648Y737099D01*
X962657Y736849D01*
X962660Y736600D01*
X962657Y736351D01*
X962648Y736101D01*
X962632Y735853D01*
X962611Y735604D01*
X962584Y735356D01*
X962550Y735109D01*
X962510Y734863D01*
X962465Y734618D01*
X962413Y734374D01*
X962356Y734131D01*
X962292Y733890D01*
X962223Y733651D01*
X962147Y733413D01*
X962066Y733177D01*
X961979Y732943D01*
X961887Y732712D01*
X961788Y732483D01*
X961685Y732256D01*
X961575Y732032D01*
X961460Y731811D01*
X961340Y731592D01*
X961215Y731377D01*
X961084Y731164D01*
X960948Y730955D01*
X960807Y730750D01*
X960661Y730548D01*
X960510Y730349D01*
X960354Y730155D01*
X960193Y729964D01*
X960028Y729777D01*
X959858Y729594D01*
X959684Y729416D01*
X959506Y729242D01*
X959323Y729072D01*
X959136Y728907D01*
X958945Y728746D01*
X958751Y728590D01*
X958552Y728439D01*
X958350Y728293D01*
X958145Y728152D01*
X957936Y728016D01*
X957723Y727885D01*
X957508Y727760D01*
X957289Y727640D01*
X957068Y727525D01*
X956844Y727415D01*
X956617Y727312D01*
X956388Y727213D01*
X956157Y727121D01*
X955923Y727034D01*
X955687Y726953D01*
X955449Y726877D01*
X955210Y726808D01*
X954969Y726744D01*
X954726Y726687D01*
X954482Y726635D01*
X954237Y726590D01*
X953991Y726550D01*
X953744Y726516D01*
X953496Y726489D01*
X953247Y726468D01*
X952999Y726452D01*
X952749Y726443D01*
X952500Y726440D01*
X952251Y726443D01*
X952001Y726452D01*
X951753Y726468D01*
X951504Y726489D01*
X951256Y726516D01*
X951009Y726550D01*
X950763Y726590D01*
X950518Y726635D01*
X950274Y726687D01*
X950031Y726744D01*
X949790Y726808D01*
X949551Y726877D01*
X949313Y726953D01*
X949077Y727034D01*
X948843Y727121D01*
X948612Y727213D01*
X948383Y727312D01*
X948156Y727415D01*
X947932Y727525D01*
X947711Y727640D01*
X947492Y727760D01*
X947277Y727885D01*
X947064Y728016D01*
X946855Y728152D01*
X946650Y728293D01*
X946448Y728439D01*
X946249Y728590D01*
X946055Y728746D01*
X945864Y728907D01*
X945677Y729072D01*
X945494Y729242D01*
X945316Y729416D01*
X945142Y729594D01*
X944972Y729777D01*
X944807Y729964D01*
X944646Y730155D01*
X944490Y730349D01*
X944339Y730548D01*
X944193Y730750D01*
X944052Y730955D01*
X943916Y731164D01*
X943785Y731377D01*
X943660Y731592D01*
X943540Y731811D01*
X943425Y732032D01*
X943315Y732256D01*
X943212Y732483D01*
X943113Y732712D01*
X943021Y732943D01*
X942934Y733177D01*
X942853Y733413D01*
X942777Y733651D01*
X942708Y733890D01*
X942644Y734131D01*
X942587Y734374D01*
X942535Y734618D01*
X942490Y734863D01*
X942450Y735109D01*
X942416Y735356D01*
X942389Y735604D01*
X942368Y735853D01*
X942352Y736101D01*
X942343Y736351D01*
X942340Y736600D01*
X15240Y368300D02*
X15243Y368549D01*
X15252Y368799D01*
X15268Y369047D01*
X15289Y369296D01*
X15316Y369544D01*
X15350Y369791D01*
X15390Y370037D01*
X15435Y370282D01*
X15487Y370526D01*
X15544Y370769D01*
X15608Y371010D01*
X15677Y371249D01*
X15753Y371487D01*
X15834Y371723D01*
X15921Y371957D01*
X16013Y372188D01*
X16112Y372417D01*
X16215Y372644D01*
X16325Y372868D01*
X16440Y373089D01*
X16560Y373308D01*
X16685Y373523D01*
X16816Y373736D01*
X16952Y373945D01*
X17093Y374150D01*
X17239Y374352D01*
X17390Y374551D01*
X17546Y374745D01*
X17707Y374936D01*
X17872Y375123D01*
X18042Y375306D01*
X18216Y375484D01*
X18394Y375658D01*
X18577Y375828D01*
X18764Y375993D01*
X18955Y376154D01*
X19149Y376310D01*
X19348Y376461D01*
X19550Y376607D01*
X19755Y376748D01*
X19964Y376884D01*
X20177Y377015D01*
X20392Y377140D01*
X20611Y377260D01*
X20832Y377375D01*
X21056Y377485D01*
X21283Y377588D01*
X21512Y377687D01*
X21743Y377779D01*
X21977Y377866D01*
X22213Y377947D01*
X22451Y378023D01*
X22690Y378092D01*
X22931Y378156D01*
X23174Y378213D01*
X23418Y378265D01*
X23663Y378310D01*
X23909Y378350D01*
X24156Y378384D01*
X24404Y378411D01*
X24653Y378432D01*
X24901Y378448D01*
X25151Y378457D01*
X25400Y378460D01*
X25649Y378457D01*
X25899Y378448D01*
X26147Y378432D01*
X26396Y378411D01*
X26644Y378384D01*
X26891Y378350D01*
X27137Y378310D01*
X27382Y378265D01*
X27626Y378213D01*
X27869Y378156D01*
X28110Y378092D01*
X28349Y378023D01*
X28587Y377947D01*
X28823Y377866D01*
X29057Y377779D01*
X29288Y377687D01*
X29517Y377588D01*
X29744Y377485D01*
X29968Y377375D01*
X30189Y377260D01*
X30408Y377140D01*
X30623Y377015D01*
X30836Y376884D01*
X31045Y376748D01*
X31250Y376607D01*
X31452Y376461D01*
X31651Y376310D01*
X31845Y376154D01*
X32036Y375993D01*
X32223Y375828D01*
X32406Y375658D01*
X32584Y375484D01*
X32758Y375306D01*
X32928Y375123D01*
X33093Y374936D01*
X33254Y374745D01*
X33410Y374551D01*
X33561Y374352D01*
X33707Y374150D01*
X33848Y373945D01*
X33984Y373736D01*
X34115Y373523D01*
X34240Y373308D01*
X34360Y373089D01*
X34475Y372868D01*
X34585Y372644D01*
X34688Y372417D01*
X34787Y372188D01*
X34879Y371957D01*
X34966Y371723D01*
X35047Y371487D01*
X35123Y371249D01*
X35192Y371010D01*
X35256Y370769D01*
X35313Y370526D01*
X35365Y370282D01*
X35410Y370037D01*
X35450Y369791D01*
X35484Y369544D01*
X35511Y369296D01*
X35532Y369047D01*
X35548Y368799D01*
X35557Y368549D01*
X35560Y368300D01*
X35557Y368051D01*
X35548Y367801D01*
X35532Y367553D01*
X35511Y367304D01*
X35484Y367056D01*
X35450Y366809D01*
X35410Y366563D01*
X35365Y366318D01*
X35313Y366074D01*
X35256Y365831D01*
X35192Y365590D01*
X35123Y365351D01*
X35047Y365113D01*
X34966Y364877D01*
X34879Y364643D01*
X34787Y364412D01*
X34688Y364183D01*
X34585Y363956D01*
X34475Y363732D01*
X34360Y363511D01*
X34240Y363292D01*
X34115Y363077D01*
X33984Y362864D01*
X33848Y362655D01*
X33707Y362450D01*
X33561Y362248D01*
X33410Y362049D01*
X33254Y361855D01*
X33093Y361664D01*
X32928Y361477D01*
X32758Y361294D01*
X32584Y361116D01*
X32406Y360942D01*
X32223Y360772D01*
X32036Y360607D01*
X31845Y360446D01*
X31651Y360290D01*
X31452Y360139D01*
X31250Y359993D01*
X31045Y359852D01*
X30836Y359716D01*
X30623Y359585D01*
X30408Y359460D01*
X30189Y359340D01*
X29968Y359225D01*
X29744Y359115D01*
X29517Y359012D01*
X29288Y358913D01*
X29057Y358821D01*
X28823Y358734D01*
X28587Y358653D01*
X28349Y358577D01*
X28110Y358508D01*
X27869Y358444D01*
X27626Y358387D01*
X27382Y358335D01*
X27137Y358290D01*
X26891Y358250D01*
X26644Y358216D01*
X26396Y358189D01*
X26147Y358168D01*
X25899Y358152D01*
X25649Y358143D01*
X25400Y358140D01*
X25151Y358143D01*
X24901Y358152D01*
X24653Y358168D01*
X24404Y358189D01*
X24156Y358216D01*
X23909Y358250D01*
X23663Y358290D01*
X23418Y358335D01*
X23174Y358387D01*
X22931Y358444D01*
X22690Y358508D01*
X22451Y358577D01*
X22213Y358653D01*
X21977Y358734D01*
X21743Y358821D01*
X21512Y358913D01*
X21283Y359012D01*
X21056Y359115D01*
X20832Y359225D01*
X20611Y359340D01*
X20392Y359460D01*
X20177Y359585D01*
X19964Y359716D01*
X19755Y359852D01*
X19550Y359993D01*
X19348Y360139D01*
X19149Y360290D01*
X18955Y360446D01*
X18764Y360607D01*
X18577Y360772D01*
X18394Y360942D01*
X18216Y361116D01*
X18042Y361294D01*
X17872Y361477D01*
X17707Y361664D01*
X17546Y361855D01*
X17390Y362049D01*
X17239Y362248D01*
X17093Y362450D01*
X16952Y362655D01*
X16816Y362864D01*
X16685Y363077D01*
X16560Y363292D01*
X16440Y363511D01*
X16325Y363732D01*
X16215Y363956D01*
X16112Y364183D01*
X16013Y364412D01*
X15921Y364643D01*
X15834Y364877D01*
X15753Y365113D01*
X15677Y365351D01*
X15608Y365590D01*
X15544Y365831D01*
X15487Y366074D01*
X15435Y366318D01*
X15390Y366563D01*
X15350Y366809D01*
X15316Y367056D01*
X15289Y367304D01*
X15268Y367553D01*
X15252Y367801D01*
X15243Y368051D01*
X15240Y368300D01*
X942340Y25400D02*
X942343Y25649D01*
X942352Y25899D01*
X942368Y26147D01*
X942389Y26396D01*
X942416Y26644D01*
X942450Y26891D01*
X942490Y27137D01*
X942535Y27382D01*
X942587Y27626D01*
X942644Y27869D01*
X942708Y28110D01*
X942777Y28349D01*
X942853Y28587D01*
X942934Y28823D01*
X943021Y29057D01*
X943113Y29288D01*
X943212Y29517D01*
X943315Y29744D01*
X943425Y29968D01*
X943540Y30189D01*
X943660Y30408D01*
X943785Y30623D01*
X943916Y30836D01*
X944052Y31045D01*
X944193Y31250D01*
X944339Y31452D01*
X944490Y31651D01*
X944646Y31845D01*
X944807Y32036D01*
X944972Y32223D01*
X945142Y32406D01*
X945316Y32584D01*
X945494Y32758D01*
X945677Y32928D01*
X945864Y33093D01*
X946055Y33254D01*
X946249Y33410D01*
X946448Y33561D01*
X946650Y33707D01*
X946855Y33848D01*
X947064Y33984D01*
X947277Y34115D01*
X947492Y34240D01*
X947711Y34360D01*
X947932Y34475D01*
X948156Y34585D01*
X948383Y34688D01*
X948612Y34787D01*
X948843Y34879D01*
X949077Y34966D01*
X949313Y35047D01*
X949551Y35123D01*
X949790Y35192D01*
X950031Y35256D01*
X950274Y35313D01*
X950518Y35365D01*
X950763Y35410D01*
X951009Y35450D01*
X951256Y35484D01*
X951504Y35511D01*
X951753Y35532D01*
X952001Y35548D01*
X952251Y35557D01*
X952500Y35560D01*
X952749Y35557D01*
X952999Y35548D01*
X953247Y35532D01*
X953496Y35511D01*
X953744Y35484D01*
X953991Y35450D01*
X954237Y35410D01*
X954482Y35365D01*
X954726Y35313D01*
X954969Y35256D01*
X955210Y35192D01*
X955449Y35123D01*
X955687Y35047D01*
X955923Y34966D01*
X956157Y34879D01*
X956388Y34787D01*
X956617Y34688D01*
X956844Y34585D01*
X957068Y34475D01*
X957289Y34360D01*
X957508Y34240D01*
X957723Y34115D01*
X957936Y33984D01*
X958145Y33848D01*
X958350Y33707D01*
X958552Y33561D01*
X958751Y33410D01*
X958945Y33254D01*
X959136Y33093D01*
X959323Y32928D01*
X959506Y32758D01*
X959684Y32584D01*
X959858Y32406D01*
X960028Y32223D01*
X960193Y32036D01*
X960354Y31845D01*
X960510Y31651D01*
X960661Y31452D01*
X960807Y31250D01*
X960948Y31045D01*
X961084Y30836D01*
X961215Y30623D01*
X961340Y30408D01*
X961460Y30189D01*
X961575Y29968D01*
X961685Y29744D01*
X961788Y29517D01*
X961887Y29288D01*
X961979Y29057D01*
X962066Y28823D01*
X962147Y28587D01*
X962223Y28349D01*
X962292Y28110D01*
X962356Y27869D01*
X962413Y27626D01*
X962465Y27382D01*
X962510Y27137D01*
X962550Y26891D01*
X962584Y26644D01*
X962611Y26396D01*
X962632Y26147D01*
X962648Y25899D01*
X962657Y25649D01*
X962660Y25400D01*
X962657Y25151D01*
X962648Y24901D01*
X962632Y24653D01*
X962611Y24404D01*
X962584Y24156D01*
X962550Y23909D01*
X962510Y23663D01*
X962465Y23418D01*
X962413Y23174D01*
X962356Y22931D01*
X962292Y22690D01*
X962223Y22451D01*
X962147Y22213D01*
X962066Y21977D01*
X961979Y21743D01*
X961887Y21512D01*
X961788Y21283D01*
X961685Y21056D01*
X961575Y20832D01*
X961460Y20611D01*
X961340Y20392D01*
X961215Y20177D01*
X961084Y19964D01*
X960948Y19755D01*
X960807Y19550D01*
X960661Y19348D01*
X960510Y19149D01*
X960354Y18955D01*
X960193Y18764D01*
X960028Y18577D01*
X959858Y18394D01*
X959684Y18216D01*
X959506Y18042D01*
X959323Y17872D01*
X959136Y17707D01*
X958945Y17546D01*
X958751Y17390D01*
X958552Y17239D01*
X958350Y17093D01*
X958145Y16952D01*
X957936Y16816D01*
X957723Y16685D01*
X957508Y16560D01*
X957289Y16440D01*
X957068Y16325D01*
X956844Y16215D01*
X956617Y16112D01*
X956388Y16013D01*
X956157Y15921D01*
X955923Y15834D01*
X955687Y15753D01*
X955449Y15677D01*
X955210Y15608D01*
X954969Y15544D01*
X954726Y15487D01*
X954482Y15435D01*
X954237Y15390D01*
X953991Y15350D01*
X953744Y15316D01*
X953496Y15289D01*
X953247Y15268D01*
X952999Y15252D01*
X952749Y15243D01*
X952500Y15240D01*
X952251Y15243D01*
X952001Y15252D01*
X951753Y15268D01*
X951504Y15289D01*
X951256Y15316D01*
X951009Y15350D01*
X950763Y15390D01*
X950518Y15435D01*
X950274Y15487D01*
X950031Y15544D01*
X949790Y15608D01*
X949551Y15677D01*
X949313Y15753D01*
X949077Y15834D01*
X948843Y15921D01*
X948612Y16013D01*
X948383Y16112D01*
X948156Y16215D01*
X947932Y16325D01*
X947711Y16440D01*
X947492Y16560D01*
X947277Y16685D01*
X947064Y16816D01*
X946855Y16952D01*
X946650Y17093D01*
X946448Y17239D01*
X946249Y17390D01*
X946055Y17546D01*
X945864Y17707D01*
X945677Y17872D01*
X945494Y18042D01*
X945316Y18216D01*
X945142Y18394D01*
X944972Y18577D01*
X944807Y18764D01*
X944646Y18955D01*
X944490Y19149D01*
X944339Y19348D01*
X944193Y19550D01*
X944052Y19755D01*
X943916Y19964D01*
X943785Y20177D01*
X943660Y20392D01*
X943540Y20611D01*
X943425Y20832D01*
X943315Y21056D01*
X943212Y21283D01*
X943113Y21512D01*
X943021Y21743D01*
X942934Y21977D01*
X942853Y22213D01*
X942777Y22451D01*
X942708Y22690D01*
X942644Y22931D01*
X942587Y23174D01*
X942535Y23418D01*
X942490Y23663D01*
X942450Y23909D01*
X942416Y24156D01*
X942389Y24404D01*
X942368Y24653D01*
X942352Y24901D01*
X942343Y25151D01*
X942340Y25400D01*
X561340Y508000D02*
X561343Y508249D01*
X561352Y508499D01*
X561368Y508747D01*
X561389Y508996D01*
X561416Y509244D01*
X561450Y509491D01*
X561490Y509737D01*
X561535Y509982D01*
X561587Y510226D01*
X561644Y510469D01*
X561708Y510710D01*
X561777Y510949D01*
X561853Y511187D01*
X561934Y511423D01*
X562021Y511657D01*
X562113Y511888D01*
X562212Y512117D01*
X562315Y512344D01*
X562425Y512568D01*
X562540Y512789D01*
X562660Y513008D01*
X562785Y513223D01*
X562916Y513436D01*
X563052Y513645D01*
X563193Y513850D01*
X563339Y514052D01*
X563490Y514251D01*
X563646Y514445D01*
X563807Y514636D01*
X563972Y514823D01*
X564142Y515006D01*
X564316Y515184D01*
X564494Y515358D01*
X564677Y515528D01*
X564864Y515693D01*
X565055Y515854D01*
X565249Y516010D01*
X565448Y516161D01*
X565650Y516307D01*
X565855Y516448D01*
X566064Y516584D01*
X566277Y516715D01*
X566492Y516840D01*
X566711Y516960D01*
X566932Y517075D01*
X567156Y517185D01*
X567383Y517288D01*
X567612Y517387D01*
X567843Y517479D01*
X568077Y517566D01*
X568313Y517647D01*
X568551Y517723D01*
X568790Y517792D01*
X569031Y517856D01*
X569274Y517913D01*
X569518Y517965D01*
X569763Y518010D01*
X570009Y518050D01*
X570256Y518084D01*
X570504Y518111D01*
X570753Y518132D01*
X571001Y518148D01*
X571251Y518157D01*
X571500Y518160D01*
X571749Y518157D01*
X571999Y518148D01*
X572247Y518132D01*
X572496Y518111D01*
X572744Y518084D01*
X572991Y518050D01*
X573237Y518010D01*
X573482Y517965D01*
X573726Y517913D01*
X573969Y517856D01*
X574210Y517792D01*
X574449Y517723D01*
X574687Y517647D01*
X574923Y517566D01*
X575157Y517479D01*
X575388Y517387D01*
X575617Y517288D01*
X575844Y517185D01*
X576068Y517075D01*
X576289Y516960D01*
X576508Y516840D01*
X576723Y516715D01*
X576936Y516584D01*
X577145Y516448D01*
X577350Y516307D01*
X577552Y516161D01*
X577751Y516010D01*
X577945Y515854D01*
X578136Y515693D01*
X578323Y515528D01*
X578506Y515358D01*
X578684Y515184D01*
X578858Y515006D01*
X579028Y514823D01*
X579193Y514636D01*
X579354Y514445D01*
X579510Y514251D01*
X579661Y514052D01*
X579807Y513850D01*
X579948Y513645D01*
X580084Y513436D01*
X580215Y513223D01*
X580340Y513008D01*
X580460Y512789D01*
X580575Y512568D01*
X580685Y512344D01*
X580788Y512117D01*
X580887Y511888D01*
X580979Y511657D01*
X581066Y511423D01*
X581147Y511187D01*
X581223Y510949D01*
X581292Y510710D01*
X581356Y510469D01*
X581413Y510226D01*
X581465Y509982D01*
X581510Y509737D01*
X581550Y509491D01*
X581584Y509244D01*
X581611Y508996D01*
X581632Y508747D01*
X581648Y508499D01*
X581657Y508249D01*
X581660Y508000D01*
X581657Y507751D01*
X581648Y507501D01*
X581632Y507253D01*
X581611Y507004D01*
X581584Y506756D01*
X581550Y506509D01*
X581510Y506263D01*
X581465Y506018D01*
X581413Y505774D01*
X581356Y505531D01*
X581292Y505290D01*
X581223Y505051D01*
X581147Y504813D01*
X581066Y504577D01*
X580979Y504343D01*
X580887Y504112D01*
X580788Y503883D01*
X580685Y503656D01*
X580575Y503432D01*
X580460Y503211D01*
X580340Y502992D01*
X580215Y502777D01*
X580084Y502564D01*
X579948Y502355D01*
X579807Y502150D01*
X579661Y501948D01*
X579510Y501749D01*
X579354Y501555D01*
X579193Y501364D01*
X579028Y501177D01*
X578858Y500994D01*
X578684Y500816D01*
X578506Y500642D01*
X578323Y500472D01*
X578136Y500307D01*
X577945Y500146D01*
X577751Y499990D01*
X577552Y499839D01*
X577350Y499693D01*
X577145Y499552D01*
X576936Y499416D01*
X576723Y499285D01*
X576508Y499160D01*
X576289Y499040D01*
X576068Y498925D01*
X575844Y498815D01*
X575617Y498712D01*
X575388Y498613D01*
X575157Y498521D01*
X574923Y498434D01*
X574687Y498353D01*
X574449Y498277D01*
X574210Y498208D01*
X573969Y498144D01*
X573726Y498087D01*
X573482Y498035D01*
X573237Y497990D01*
X572991Y497950D01*
X572744Y497916D01*
X572496Y497889D01*
X572247Y497868D01*
X571999Y497852D01*
X571749Y497843D01*
X571500Y497840D01*
X571251Y497843D01*
X571001Y497852D01*
X570753Y497868D01*
X570504Y497889D01*
X570256Y497916D01*
X570009Y497950D01*
X569763Y497990D01*
X569518Y498035D01*
X569274Y498087D01*
X569031Y498144D01*
X568790Y498208D01*
X568551Y498277D01*
X568313Y498353D01*
X568077Y498434D01*
X567843Y498521D01*
X567612Y498613D01*
X567383Y498712D01*
X567156Y498815D01*
X566932Y498925D01*
X566711Y499040D01*
X566492Y499160D01*
X566277Y499285D01*
X566064Y499416D01*
X565855Y499552D01*
X565650Y499693D01*
X565448Y499839D01*
X565249Y499990D01*
X565055Y500146D01*
X564864Y500307D01*
X564677Y500472D01*
X564494Y500642D01*
X564316Y500816D01*
X564142Y500994D01*
X563972Y501177D01*
X563807Y501364D01*
X563646Y501555D01*
X563490Y501749D01*
X563339Y501948D01*
X563193Y502150D01*
X563052Y502355D01*
X562916Y502564D01*
X562785Y502777D01*
X562660Y502992D01*
X562540Y503211D01*
X562425Y503432D01*
X562315Y503656D01*
X562212Y503883D01*
X562113Y504112D01*
X562021Y504343D01*
X561934Y504577D01*
X561853Y504813D01*
X561777Y505051D01*
X561708Y505290D01*
X561644Y505531D01*
X561587Y505774D01*
X561535Y506018D01*
X561490Y506263D01*
X561450Y506509D01*
X561416Y506756D01*
X561389Y507004D01*
X561368Y507253D01*
X561352Y507501D01*
X561343Y507751D01*
X561340Y508000D01*
M02*
