G04 EAGLE Gerber X2 export*
G75*
%MOMM*%
%FSLAX34Y34*%
%LPD*%
%AMOC8*
5,1,8,0,0,1.08239X$1,22.5*%
G01*
%ADD10C,2.235200*%
%ADD11P,3.656530X8X22.500000*%
%ADD12P,2.969212X8X22.500000*%
%ADD13C,1.778000*%
%ADD14C,1.524000*%
%ADD15C,1.727200*%
%ADD16P,1.649562X8X292.500000*%
%ADD17P,1.649562X8X22.500000*%
%ADD18P,1.649562X8X202.500000*%
%ADD19P,1.649562X8X112.500000*%
%ADD20C,2.743200*%
%ADD21P,2.969212X8X202.500000*%
%ADD22C,1.503200*%
%ADD23C,1.303200*%
%ADD24C,1.403200*%


D10*
X952500Y736600D03*
X25400Y368300D03*
X952500Y25400D03*
X571500Y508000D03*
D11*
X723900Y571500D03*
X317500Y571500D03*
X723900Y749300D03*
X317500Y749300D03*
D12*
X63500Y533400D03*
D13*
X406400Y452374D02*
X406400Y436626D01*
X381000Y436626D02*
X381000Y452374D01*
X355600Y452374D02*
X355600Y436626D01*
X330200Y436626D02*
X330200Y452374D01*
X304800Y452374D02*
X304800Y436626D01*
X279400Y436626D02*
X279400Y452374D01*
X254000Y452374D02*
X254000Y436626D01*
X228600Y436626D02*
X228600Y452374D01*
X203200Y452374D02*
X203200Y436626D01*
X177800Y436626D02*
X177800Y452374D01*
X152400Y452374D02*
X152400Y436626D01*
X127000Y436626D02*
X127000Y452374D01*
X101600Y452374D02*
X101600Y436626D01*
X76200Y436626D02*
X76200Y452374D01*
X50800Y452374D02*
X50800Y436626D01*
X50800Y299974D02*
X50800Y284226D01*
X76200Y284226D02*
X76200Y299974D01*
X101600Y299974D02*
X101600Y284226D01*
X127000Y284226D02*
X127000Y299974D01*
X152400Y299974D02*
X152400Y284226D01*
X177800Y284226D02*
X177800Y299974D01*
X203200Y299974D02*
X203200Y284226D01*
X228600Y284226D02*
X228600Y299974D01*
X254000Y299974D02*
X254000Y284226D01*
X279400Y284226D02*
X279400Y299974D01*
X304800Y299974D02*
X304800Y284226D01*
X330200Y284226D02*
X330200Y299974D01*
X355600Y299974D02*
X355600Y284226D01*
X381000Y284226D02*
X381000Y299974D01*
X406400Y299974D02*
X406400Y284226D01*
D12*
X63500Y495300D03*
D14*
X298196Y508000D02*
X311404Y508000D01*
X235204Y508000D02*
X221996Y508000D01*
D12*
X63500Y571500D03*
D15*
X798830Y381000D02*
X814070Y381000D01*
X814070Y355600D02*
X798830Y355600D01*
X798830Y330200D02*
X814070Y330200D01*
X814070Y304800D02*
X798830Y304800D01*
X248920Y88900D02*
X233680Y88900D01*
X233680Y114300D02*
X248920Y114300D01*
X248920Y139700D02*
X233680Y139700D01*
X233680Y165100D02*
X248920Y165100D01*
X248920Y190500D02*
X233680Y190500D01*
X336550Y90170D02*
X336550Y74930D01*
X361950Y74930D02*
X361950Y90170D01*
X387350Y90170D02*
X387350Y74930D01*
X412750Y74930D02*
X412750Y90170D01*
X438150Y90170D02*
X438150Y74930D01*
D12*
X806450Y647700D03*
X806450Y698500D03*
D16*
X514350Y114300D03*
X514350Y38100D03*
D17*
X901700Y419100D03*
X977900Y419100D03*
D16*
X336550Y190500D03*
X336550Y114300D03*
X368300Y190500D03*
X368300Y114300D03*
X400050Y190500D03*
X400050Y114300D03*
X431800Y190500D03*
X431800Y114300D03*
D18*
X977900Y482600D03*
X901700Y482600D03*
D19*
X831850Y57150D03*
X831850Y133350D03*
D17*
X749300Y222250D03*
X825500Y222250D03*
D18*
X615950Y133350D03*
X539750Y133350D03*
X723900Y222250D03*
X647700Y222250D03*
D17*
X539750Y19050D03*
X615950Y19050D03*
D18*
X977900Y114300D03*
X901700Y114300D03*
X977900Y203200D03*
X901700Y203200D03*
X939800Y273050D03*
X863600Y273050D03*
D16*
X717550Y133350D03*
X717550Y57150D03*
D12*
X965200Y355600D03*
X901700Y355600D03*
D14*
X647954Y50800D02*
X634746Y50800D01*
X634746Y76200D02*
X647954Y76200D01*
X647954Y25400D02*
X634746Y25400D01*
X774700Y50546D02*
X774700Y63754D01*
X800100Y63754D02*
X800100Y50546D01*
X749300Y50546D02*
X749300Y63754D01*
X800100Y120396D02*
X800100Y133604D01*
X749300Y133604D02*
X749300Y120396D01*
X774700Y120396D02*
X774700Y133604D01*
X120650Y520446D02*
X120650Y533654D01*
X222250Y533654D02*
X222250Y520446D01*
D19*
X977900Y533400D03*
X977900Y558800D03*
X977900Y279400D03*
X977900Y304800D03*
D16*
X977900Y171450D03*
X977900Y146050D03*
X977900Y88900D03*
X977900Y63500D03*
D20*
X869950Y552450D03*
D21*
X819150Y552450D03*
D15*
X210820Y711200D02*
X195580Y711200D01*
X195580Y685800D02*
X210820Y685800D01*
X210820Y660400D02*
X195580Y660400D01*
D22*
X95250Y215900D03*
X215900Y215900D03*
D23*
X577850Y304800D03*
X577850Y241300D03*
D22*
X539750Y469900D03*
X539750Y355600D03*
D23*
X857250Y95250D03*
D24*
X88900Y495300D03*
D23*
X539750Y304800D03*
X539750Y241300D03*
X596900Y406400D03*
X698500Y406400D03*
X615950Y304800D03*
X615950Y241300D03*
X158750Y368300D03*
X901700Y146050D03*
X469900Y158750D03*
X539750Y158750D03*
X628650Y463550D03*
X698500Y463550D03*
X628650Y349250D03*
X698500Y349250D03*
X158750Y393700D03*
X863600Y190500D03*
M02*
