G04 EAGLE Gerber X2 export*
G75*
%MOMM*%
%FSLAX34Y34*%
%LPD*%
%AMOC8*
5,1,8,0,0,1.08239X$1,22.5*%
G01*
%ADD10C,0.000000*%
%ADD11C,0.101600*%
%ADD12C,0.152400*%


D10*
X0Y0D02*
X1000000Y0D01*
X1000000Y774600D01*
X0Y774600D01*
X0Y0D01*
X942340Y736600D02*
X942343Y736849D01*
X942352Y737099D01*
X942368Y737347D01*
X942389Y737596D01*
X942416Y737844D01*
X942450Y738091D01*
X942490Y738337D01*
X942535Y738582D01*
X942587Y738826D01*
X942644Y739069D01*
X942708Y739310D01*
X942777Y739549D01*
X942853Y739787D01*
X942934Y740023D01*
X943021Y740257D01*
X943113Y740488D01*
X943212Y740717D01*
X943315Y740944D01*
X943425Y741168D01*
X943540Y741389D01*
X943660Y741608D01*
X943785Y741823D01*
X943916Y742036D01*
X944052Y742245D01*
X944193Y742450D01*
X944339Y742652D01*
X944490Y742851D01*
X944646Y743045D01*
X944807Y743236D01*
X944972Y743423D01*
X945142Y743606D01*
X945316Y743784D01*
X945494Y743958D01*
X945677Y744128D01*
X945864Y744293D01*
X946055Y744454D01*
X946249Y744610D01*
X946448Y744761D01*
X946650Y744907D01*
X946855Y745048D01*
X947064Y745184D01*
X947277Y745315D01*
X947492Y745440D01*
X947711Y745560D01*
X947932Y745675D01*
X948156Y745785D01*
X948383Y745888D01*
X948612Y745987D01*
X948843Y746079D01*
X949077Y746166D01*
X949313Y746247D01*
X949551Y746323D01*
X949790Y746392D01*
X950031Y746456D01*
X950274Y746513D01*
X950518Y746565D01*
X950763Y746610D01*
X951009Y746650D01*
X951256Y746684D01*
X951504Y746711D01*
X951753Y746732D01*
X952001Y746748D01*
X952251Y746757D01*
X952500Y746760D01*
X952749Y746757D01*
X952999Y746748D01*
X953247Y746732D01*
X953496Y746711D01*
X953744Y746684D01*
X953991Y746650D01*
X954237Y746610D01*
X954482Y746565D01*
X954726Y746513D01*
X954969Y746456D01*
X955210Y746392D01*
X955449Y746323D01*
X955687Y746247D01*
X955923Y746166D01*
X956157Y746079D01*
X956388Y745987D01*
X956617Y745888D01*
X956844Y745785D01*
X957068Y745675D01*
X957289Y745560D01*
X957508Y745440D01*
X957723Y745315D01*
X957936Y745184D01*
X958145Y745048D01*
X958350Y744907D01*
X958552Y744761D01*
X958751Y744610D01*
X958945Y744454D01*
X959136Y744293D01*
X959323Y744128D01*
X959506Y743958D01*
X959684Y743784D01*
X959858Y743606D01*
X960028Y743423D01*
X960193Y743236D01*
X960354Y743045D01*
X960510Y742851D01*
X960661Y742652D01*
X960807Y742450D01*
X960948Y742245D01*
X961084Y742036D01*
X961215Y741823D01*
X961340Y741608D01*
X961460Y741389D01*
X961575Y741168D01*
X961685Y740944D01*
X961788Y740717D01*
X961887Y740488D01*
X961979Y740257D01*
X962066Y740023D01*
X962147Y739787D01*
X962223Y739549D01*
X962292Y739310D01*
X962356Y739069D01*
X962413Y738826D01*
X962465Y738582D01*
X962510Y738337D01*
X962550Y738091D01*
X962584Y737844D01*
X962611Y737596D01*
X962632Y737347D01*
X962648Y737099D01*
X962657Y736849D01*
X962660Y736600D01*
X962657Y736351D01*
X962648Y736101D01*
X962632Y735853D01*
X962611Y735604D01*
X962584Y735356D01*
X962550Y735109D01*
X962510Y734863D01*
X962465Y734618D01*
X962413Y734374D01*
X962356Y734131D01*
X962292Y733890D01*
X962223Y733651D01*
X962147Y733413D01*
X962066Y733177D01*
X961979Y732943D01*
X961887Y732712D01*
X961788Y732483D01*
X961685Y732256D01*
X961575Y732032D01*
X961460Y731811D01*
X961340Y731592D01*
X961215Y731377D01*
X961084Y731164D01*
X960948Y730955D01*
X960807Y730750D01*
X960661Y730548D01*
X960510Y730349D01*
X960354Y730155D01*
X960193Y729964D01*
X960028Y729777D01*
X959858Y729594D01*
X959684Y729416D01*
X959506Y729242D01*
X959323Y729072D01*
X959136Y728907D01*
X958945Y728746D01*
X958751Y728590D01*
X958552Y728439D01*
X958350Y728293D01*
X958145Y728152D01*
X957936Y728016D01*
X957723Y727885D01*
X957508Y727760D01*
X957289Y727640D01*
X957068Y727525D01*
X956844Y727415D01*
X956617Y727312D01*
X956388Y727213D01*
X956157Y727121D01*
X955923Y727034D01*
X955687Y726953D01*
X955449Y726877D01*
X955210Y726808D01*
X954969Y726744D01*
X954726Y726687D01*
X954482Y726635D01*
X954237Y726590D01*
X953991Y726550D01*
X953744Y726516D01*
X953496Y726489D01*
X953247Y726468D01*
X952999Y726452D01*
X952749Y726443D01*
X952500Y726440D01*
X952251Y726443D01*
X952001Y726452D01*
X951753Y726468D01*
X951504Y726489D01*
X951256Y726516D01*
X951009Y726550D01*
X950763Y726590D01*
X950518Y726635D01*
X950274Y726687D01*
X950031Y726744D01*
X949790Y726808D01*
X949551Y726877D01*
X949313Y726953D01*
X949077Y727034D01*
X948843Y727121D01*
X948612Y727213D01*
X948383Y727312D01*
X948156Y727415D01*
X947932Y727525D01*
X947711Y727640D01*
X947492Y727760D01*
X947277Y727885D01*
X947064Y728016D01*
X946855Y728152D01*
X946650Y728293D01*
X946448Y728439D01*
X946249Y728590D01*
X946055Y728746D01*
X945864Y728907D01*
X945677Y729072D01*
X945494Y729242D01*
X945316Y729416D01*
X945142Y729594D01*
X944972Y729777D01*
X944807Y729964D01*
X944646Y730155D01*
X944490Y730349D01*
X944339Y730548D01*
X944193Y730750D01*
X944052Y730955D01*
X943916Y731164D01*
X943785Y731377D01*
X943660Y731592D01*
X943540Y731811D01*
X943425Y732032D01*
X943315Y732256D01*
X943212Y732483D01*
X943113Y732712D01*
X943021Y732943D01*
X942934Y733177D01*
X942853Y733413D01*
X942777Y733651D01*
X942708Y733890D01*
X942644Y734131D01*
X942587Y734374D01*
X942535Y734618D01*
X942490Y734863D01*
X942450Y735109D01*
X942416Y735356D01*
X942389Y735604D01*
X942368Y735853D01*
X942352Y736101D01*
X942343Y736351D01*
X942340Y736600D01*
X15240Y368300D02*
X15243Y368549D01*
X15252Y368799D01*
X15268Y369047D01*
X15289Y369296D01*
X15316Y369544D01*
X15350Y369791D01*
X15390Y370037D01*
X15435Y370282D01*
X15487Y370526D01*
X15544Y370769D01*
X15608Y371010D01*
X15677Y371249D01*
X15753Y371487D01*
X15834Y371723D01*
X15921Y371957D01*
X16013Y372188D01*
X16112Y372417D01*
X16215Y372644D01*
X16325Y372868D01*
X16440Y373089D01*
X16560Y373308D01*
X16685Y373523D01*
X16816Y373736D01*
X16952Y373945D01*
X17093Y374150D01*
X17239Y374352D01*
X17390Y374551D01*
X17546Y374745D01*
X17707Y374936D01*
X17872Y375123D01*
X18042Y375306D01*
X18216Y375484D01*
X18394Y375658D01*
X18577Y375828D01*
X18764Y375993D01*
X18955Y376154D01*
X19149Y376310D01*
X19348Y376461D01*
X19550Y376607D01*
X19755Y376748D01*
X19964Y376884D01*
X20177Y377015D01*
X20392Y377140D01*
X20611Y377260D01*
X20832Y377375D01*
X21056Y377485D01*
X21283Y377588D01*
X21512Y377687D01*
X21743Y377779D01*
X21977Y377866D01*
X22213Y377947D01*
X22451Y378023D01*
X22690Y378092D01*
X22931Y378156D01*
X23174Y378213D01*
X23418Y378265D01*
X23663Y378310D01*
X23909Y378350D01*
X24156Y378384D01*
X24404Y378411D01*
X24653Y378432D01*
X24901Y378448D01*
X25151Y378457D01*
X25400Y378460D01*
X25649Y378457D01*
X25899Y378448D01*
X26147Y378432D01*
X26396Y378411D01*
X26644Y378384D01*
X26891Y378350D01*
X27137Y378310D01*
X27382Y378265D01*
X27626Y378213D01*
X27869Y378156D01*
X28110Y378092D01*
X28349Y378023D01*
X28587Y377947D01*
X28823Y377866D01*
X29057Y377779D01*
X29288Y377687D01*
X29517Y377588D01*
X29744Y377485D01*
X29968Y377375D01*
X30189Y377260D01*
X30408Y377140D01*
X30623Y377015D01*
X30836Y376884D01*
X31045Y376748D01*
X31250Y376607D01*
X31452Y376461D01*
X31651Y376310D01*
X31845Y376154D01*
X32036Y375993D01*
X32223Y375828D01*
X32406Y375658D01*
X32584Y375484D01*
X32758Y375306D01*
X32928Y375123D01*
X33093Y374936D01*
X33254Y374745D01*
X33410Y374551D01*
X33561Y374352D01*
X33707Y374150D01*
X33848Y373945D01*
X33984Y373736D01*
X34115Y373523D01*
X34240Y373308D01*
X34360Y373089D01*
X34475Y372868D01*
X34585Y372644D01*
X34688Y372417D01*
X34787Y372188D01*
X34879Y371957D01*
X34966Y371723D01*
X35047Y371487D01*
X35123Y371249D01*
X35192Y371010D01*
X35256Y370769D01*
X35313Y370526D01*
X35365Y370282D01*
X35410Y370037D01*
X35450Y369791D01*
X35484Y369544D01*
X35511Y369296D01*
X35532Y369047D01*
X35548Y368799D01*
X35557Y368549D01*
X35560Y368300D01*
X35557Y368051D01*
X35548Y367801D01*
X35532Y367553D01*
X35511Y367304D01*
X35484Y367056D01*
X35450Y366809D01*
X35410Y366563D01*
X35365Y366318D01*
X35313Y366074D01*
X35256Y365831D01*
X35192Y365590D01*
X35123Y365351D01*
X35047Y365113D01*
X34966Y364877D01*
X34879Y364643D01*
X34787Y364412D01*
X34688Y364183D01*
X34585Y363956D01*
X34475Y363732D01*
X34360Y363511D01*
X34240Y363292D01*
X34115Y363077D01*
X33984Y362864D01*
X33848Y362655D01*
X33707Y362450D01*
X33561Y362248D01*
X33410Y362049D01*
X33254Y361855D01*
X33093Y361664D01*
X32928Y361477D01*
X32758Y361294D01*
X32584Y361116D01*
X32406Y360942D01*
X32223Y360772D01*
X32036Y360607D01*
X31845Y360446D01*
X31651Y360290D01*
X31452Y360139D01*
X31250Y359993D01*
X31045Y359852D01*
X30836Y359716D01*
X30623Y359585D01*
X30408Y359460D01*
X30189Y359340D01*
X29968Y359225D01*
X29744Y359115D01*
X29517Y359012D01*
X29288Y358913D01*
X29057Y358821D01*
X28823Y358734D01*
X28587Y358653D01*
X28349Y358577D01*
X28110Y358508D01*
X27869Y358444D01*
X27626Y358387D01*
X27382Y358335D01*
X27137Y358290D01*
X26891Y358250D01*
X26644Y358216D01*
X26396Y358189D01*
X26147Y358168D01*
X25899Y358152D01*
X25649Y358143D01*
X25400Y358140D01*
X25151Y358143D01*
X24901Y358152D01*
X24653Y358168D01*
X24404Y358189D01*
X24156Y358216D01*
X23909Y358250D01*
X23663Y358290D01*
X23418Y358335D01*
X23174Y358387D01*
X22931Y358444D01*
X22690Y358508D01*
X22451Y358577D01*
X22213Y358653D01*
X21977Y358734D01*
X21743Y358821D01*
X21512Y358913D01*
X21283Y359012D01*
X21056Y359115D01*
X20832Y359225D01*
X20611Y359340D01*
X20392Y359460D01*
X20177Y359585D01*
X19964Y359716D01*
X19755Y359852D01*
X19550Y359993D01*
X19348Y360139D01*
X19149Y360290D01*
X18955Y360446D01*
X18764Y360607D01*
X18577Y360772D01*
X18394Y360942D01*
X18216Y361116D01*
X18042Y361294D01*
X17872Y361477D01*
X17707Y361664D01*
X17546Y361855D01*
X17390Y362049D01*
X17239Y362248D01*
X17093Y362450D01*
X16952Y362655D01*
X16816Y362864D01*
X16685Y363077D01*
X16560Y363292D01*
X16440Y363511D01*
X16325Y363732D01*
X16215Y363956D01*
X16112Y364183D01*
X16013Y364412D01*
X15921Y364643D01*
X15834Y364877D01*
X15753Y365113D01*
X15677Y365351D01*
X15608Y365590D01*
X15544Y365831D01*
X15487Y366074D01*
X15435Y366318D01*
X15390Y366563D01*
X15350Y366809D01*
X15316Y367056D01*
X15289Y367304D01*
X15268Y367553D01*
X15252Y367801D01*
X15243Y368051D01*
X15240Y368300D01*
X942340Y25400D02*
X942343Y25649D01*
X942352Y25899D01*
X942368Y26147D01*
X942389Y26396D01*
X942416Y26644D01*
X942450Y26891D01*
X942490Y27137D01*
X942535Y27382D01*
X942587Y27626D01*
X942644Y27869D01*
X942708Y28110D01*
X942777Y28349D01*
X942853Y28587D01*
X942934Y28823D01*
X943021Y29057D01*
X943113Y29288D01*
X943212Y29517D01*
X943315Y29744D01*
X943425Y29968D01*
X943540Y30189D01*
X943660Y30408D01*
X943785Y30623D01*
X943916Y30836D01*
X944052Y31045D01*
X944193Y31250D01*
X944339Y31452D01*
X944490Y31651D01*
X944646Y31845D01*
X944807Y32036D01*
X944972Y32223D01*
X945142Y32406D01*
X945316Y32584D01*
X945494Y32758D01*
X945677Y32928D01*
X945864Y33093D01*
X946055Y33254D01*
X946249Y33410D01*
X946448Y33561D01*
X946650Y33707D01*
X946855Y33848D01*
X947064Y33984D01*
X947277Y34115D01*
X947492Y34240D01*
X947711Y34360D01*
X947932Y34475D01*
X948156Y34585D01*
X948383Y34688D01*
X948612Y34787D01*
X948843Y34879D01*
X949077Y34966D01*
X949313Y35047D01*
X949551Y35123D01*
X949790Y35192D01*
X950031Y35256D01*
X950274Y35313D01*
X950518Y35365D01*
X950763Y35410D01*
X951009Y35450D01*
X951256Y35484D01*
X951504Y35511D01*
X951753Y35532D01*
X952001Y35548D01*
X952251Y35557D01*
X952500Y35560D01*
X952749Y35557D01*
X952999Y35548D01*
X953247Y35532D01*
X953496Y35511D01*
X953744Y35484D01*
X953991Y35450D01*
X954237Y35410D01*
X954482Y35365D01*
X954726Y35313D01*
X954969Y35256D01*
X955210Y35192D01*
X955449Y35123D01*
X955687Y35047D01*
X955923Y34966D01*
X956157Y34879D01*
X956388Y34787D01*
X956617Y34688D01*
X956844Y34585D01*
X957068Y34475D01*
X957289Y34360D01*
X957508Y34240D01*
X957723Y34115D01*
X957936Y33984D01*
X958145Y33848D01*
X958350Y33707D01*
X958552Y33561D01*
X958751Y33410D01*
X958945Y33254D01*
X959136Y33093D01*
X959323Y32928D01*
X959506Y32758D01*
X959684Y32584D01*
X959858Y32406D01*
X960028Y32223D01*
X960193Y32036D01*
X960354Y31845D01*
X960510Y31651D01*
X960661Y31452D01*
X960807Y31250D01*
X960948Y31045D01*
X961084Y30836D01*
X961215Y30623D01*
X961340Y30408D01*
X961460Y30189D01*
X961575Y29968D01*
X961685Y29744D01*
X961788Y29517D01*
X961887Y29288D01*
X961979Y29057D01*
X962066Y28823D01*
X962147Y28587D01*
X962223Y28349D01*
X962292Y28110D01*
X962356Y27869D01*
X962413Y27626D01*
X962465Y27382D01*
X962510Y27137D01*
X962550Y26891D01*
X962584Y26644D01*
X962611Y26396D01*
X962632Y26147D01*
X962648Y25899D01*
X962657Y25649D01*
X962660Y25400D01*
X962657Y25151D01*
X962648Y24901D01*
X962632Y24653D01*
X962611Y24404D01*
X962584Y24156D01*
X962550Y23909D01*
X962510Y23663D01*
X962465Y23418D01*
X962413Y23174D01*
X962356Y22931D01*
X962292Y22690D01*
X962223Y22451D01*
X962147Y22213D01*
X962066Y21977D01*
X961979Y21743D01*
X961887Y21512D01*
X961788Y21283D01*
X961685Y21056D01*
X961575Y20832D01*
X961460Y20611D01*
X961340Y20392D01*
X961215Y20177D01*
X961084Y19964D01*
X960948Y19755D01*
X960807Y19550D01*
X960661Y19348D01*
X960510Y19149D01*
X960354Y18955D01*
X960193Y18764D01*
X960028Y18577D01*
X959858Y18394D01*
X959684Y18216D01*
X959506Y18042D01*
X959323Y17872D01*
X959136Y17707D01*
X958945Y17546D01*
X958751Y17390D01*
X958552Y17239D01*
X958350Y17093D01*
X958145Y16952D01*
X957936Y16816D01*
X957723Y16685D01*
X957508Y16560D01*
X957289Y16440D01*
X957068Y16325D01*
X956844Y16215D01*
X956617Y16112D01*
X956388Y16013D01*
X956157Y15921D01*
X955923Y15834D01*
X955687Y15753D01*
X955449Y15677D01*
X955210Y15608D01*
X954969Y15544D01*
X954726Y15487D01*
X954482Y15435D01*
X954237Y15390D01*
X953991Y15350D01*
X953744Y15316D01*
X953496Y15289D01*
X953247Y15268D01*
X952999Y15252D01*
X952749Y15243D01*
X952500Y15240D01*
X952251Y15243D01*
X952001Y15252D01*
X951753Y15268D01*
X951504Y15289D01*
X951256Y15316D01*
X951009Y15350D01*
X950763Y15390D01*
X950518Y15435D01*
X950274Y15487D01*
X950031Y15544D01*
X949790Y15608D01*
X949551Y15677D01*
X949313Y15753D01*
X949077Y15834D01*
X948843Y15921D01*
X948612Y16013D01*
X948383Y16112D01*
X948156Y16215D01*
X947932Y16325D01*
X947711Y16440D01*
X947492Y16560D01*
X947277Y16685D01*
X947064Y16816D01*
X946855Y16952D01*
X946650Y17093D01*
X946448Y17239D01*
X946249Y17390D01*
X946055Y17546D01*
X945864Y17707D01*
X945677Y17872D01*
X945494Y18042D01*
X945316Y18216D01*
X945142Y18394D01*
X944972Y18577D01*
X944807Y18764D01*
X944646Y18955D01*
X944490Y19149D01*
X944339Y19348D01*
X944193Y19550D01*
X944052Y19755D01*
X943916Y19964D01*
X943785Y20177D01*
X943660Y20392D01*
X943540Y20611D01*
X943425Y20832D01*
X943315Y21056D01*
X943212Y21283D01*
X943113Y21512D01*
X943021Y21743D01*
X942934Y21977D01*
X942853Y22213D01*
X942777Y22451D01*
X942708Y22690D01*
X942644Y22931D01*
X942587Y23174D01*
X942535Y23418D01*
X942490Y23663D01*
X942450Y23909D01*
X942416Y24156D01*
X942389Y24404D01*
X942368Y24653D01*
X942352Y24901D01*
X942343Y25151D01*
X942340Y25400D01*
X561340Y508000D02*
X561343Y508249D01*
X561352Y508499D01*
X561368Y508747D01*
X561389Y508996D01*
X561416Y509244D01*
X561450Y509491D01*
X561490Y509737D01*
X561535Y509982D01*
X561587Y510226D01*
X561644Y510469D01*
X561708Y510710D01*
X561777Y510949D01*
X561853Y511187D01*
X561934Y511423D01*
X562021Y511657D01*
X562113Y511888D01*
X562212Y512117D01*
X562315Y512344D01*
X562425Y512568D01*
X562540Y512789D01*
X562660Y513008D01*
X562785Y513223D01*
X562916Y513436D01*
X563052Y513645D01*
X563193Y513850D01*
X563339Y514052D01*
X563490Y514251D01*
X563646Y514445D01*
X563807Y514636D01*
X563972Y514823D01*
X564142Y515006D01*
X564316Y515184D01*
X564494Y515358D01*
X564677Y515528D01*
X564864Y515693D01*
X565055Y515854D01*
X565249Y516010D01*
X565448Y516161D01*
X565650Y516307D01*
X565855Y516448D01*
X566064Y516584D01*
X566277Y516715D01*
X566492Y516840D01*
X566711Y516960D01*
X566932Y517075D01*
X567156Y517185D01*
X567383Y517288D01*
X567612Y517387D01*
X567843Y517479D01*
X568077Y517566D01*
X568313Y517647D01*
X568551Y517723D01*
X568790Y517792D01*
X569031Y517856D01*
X569274Y517913D01*
X569518Y517965D01*
X569763Y518010D01*
X570009Y518050D01*
X570256Y518084D01*
X570504Y518111D01*
X570753Y518132D01*
X571001Y518148D01*
X571251Y518157D01*
X571500Y518160D01*
X571749Y518157D01*
X571999Y518148D01*
X572247Y518132D01*
X572496Y518111D01*
X572744Y518084D01*
X572991Y518050D01*
X573237Y518010D01*
X573482Y517965D01*
X573726Y517913D01*
X573969Y517856D01*
X574210Y517792D01*
X574449Y517723D01*
X574687Y517647D01*
X574923Y517566D01*
X575157Y517479D01*
X575388Y517387D01*
X575617Y517288D01*
X575844Y517185D01*
X576068Y517075D01*
X576289Y516960D01*
X576508Y516840D01*
X576723Y516715D01*
X576936Y516584D01*
X577145Y516448D01*
X577350Y516307D01*
X577552Y516161D01*
X577751Y516010D01*
X577945Y515854D01*
X578136Y515693D01*
X578323Y515528D01*
X578506Y515358D01*
X578684Y515184D01*
X578858Y515006D01*
X579028Y514823D01*
X579193Y514636D01*
X579354Y514445D01*
X579510Y514251D01*
X579661Y514052D01*
X579807Y513850D01*
X579948Y513645D01*
X580084Y513436D01*
X580215Y513223D01*
X580340Y513008D01*
X580460Y512789D01*
X580575Y512568D01*
X580685Y512344D01*
X580788Y512117D01*
X580887Y511888D01*
X580979Y511657D01*
X581066Y511423D01*
X581147Y511187D01*
X581223Y510949D01*
X581292Y510710D01*
X581356Y510469D01*
X581413Y510226D01*
X581465Y509982D01*
X581510Y509737D01*
X581550Y509491D01*
X581584Y509244D01*
X581611Y508996D01*
X581632Y508747D01*
X581648Y508499D01*
X581657Y508249D01*
X581660Y508000D01*
X581657Y507751D01*
X581648Y507501D01*
X581632Y507253D01*
X581611Y507004D01*
X581584Y506756D01*
X581550Y506509D01*
X581510Y506263D01*
X581465Y506018D01*
X581413Y505774D01*
X581356Y505531D01*
X581292Y505290D01*
X581223Y505051D01*
X581147Y504813D01*
X581066Y504577D01*
X580979Y504343D01*
X580887Y504112D01*
X580788Y503883D01*
X580685Y503656D01*
X580575Y503432D01*
X580460Y503211D01*
X580340Y502992D01*
X580215Y502777D01*
X580084Y502564D01*
X579948Y502355D01*
X579807Y502150D01*
X579661Y501948D01*
X579510Y501749D01*
X579354Y501555D01*
X579193Y501364D01*
X579028Y501177D01*
X578858Y500994D01*
X578684Y500816D01*
X578506Y500642D01*
X578323Y500472D01*
X578136Y500307D01*
X577945Y500146D01*
X577751Y499990D01*
X577552Y499839D01*
X577350Y499693D01*
X577145Y499552D01*
X576936Y499416D01*
X576723Y499285D01*
X576508Y499160D01*
X576289Y499040D01*
X576068Y498925D01*
X575844Y498815D01*
X575617Y498712D01*
X575388Y498613D01*
X575157Y498521D01*
X574923Y498434D01*
X574687Y498353D01*
X574449Y498277D01*
X574210Y498208D01*
X573969Y498144D01*
X573726Y498087D01*
X573482Y498035D01*
X573237Y497990D01*
X572991Y497950D01*
X572744Y497916D01*
X572496Y497889D01*
X572247Y497868D01*
X571999Y497852D01*
X571749Y497843D01*
X571500Y497840D01*
X571251Y497843D01*
X571001Y497852D01*
X570753Y497868D01*
X570504Y497889D01*
X570256Y497916D01*
X570009Y497950D01*
X569763Y497990D01*
X569518Y498035D01*
X569274Y498087D01*
X569031Y498144D01*
X568790Y498208D01*
X568551Y498277D01*
X568313Y498353D01*
X568077Y498434D01*
X567843Y498521D01*
X567612Y498613D01*
X567383Y498712D01*
X567156Y498815D01*
X566932Y498925D01*
X566711Y499040D01*
X566492Y499160D01*
X566277Y499285D01*
X566064Y499416D01*
X565855Y499552D01*
X565650Y499693D01*
X565448Y499839D01*
X565249Y499990D01*
X565055Y500146D01*
X564864Y500307D01*
X564677Y500472D01*
X564494Y500642D01*
X564316Y500816D01*
X564142Y500994D01*
X563972Y501177D01*
X563807Y501364D01*
X563646Y501555D01*
X563490Y501749D01*
X563339Y501948D01*
X563193Y502150D01*
X563052Y502355D01*
X562916Y502564D01*
X562785Y502777D01*
X562660Y502992D01*
X562540Y503211D01*
X562425Y503432D01*
X562315Y503656D01*
X562212Y503883D01*
X562113Y504112D01*
X562021Y504343D01*
X561934Y504577D01*
X561853Y504813D01*
X561777Y505051D01*
X561708Y505290D01*
X561644Y505531D01*
X561587Y505774D01*
X561535Y506018D01*
X561490Y506263D01*
X561450Y506509D01*
X561416Y506756D01*
X561389Y507004D01*
X561368Y507253D01*
X561352Y507501D01*
X561343Y507751D01*
X561340Y508000D01*
D11*
X615442Y603758D02*
X615442Y615442D01*
X612196Y615442D01*
X612083Y615440D01*
X611970Y615434D01*
X611857Y615424D01*
X611744Y615410D01*
X611632Y615393D01*
X611521Y615371D01*
X611411Y615346D01*
X611301Y615316D01*
X611193Y615283D01*
X611086Y615246D01*
X610980Y615206D01*
X610876Y615161D01*
X610773Y615113D01*
X610672Y615062D01*
X610573Y615007D01*
X610476Y614949D01*
X610381Y614887D01*
X610288Y614822D01*
X610198Y614754D01*
X610110Y614683D01*
X610024Y614608D01*
X609941Y614531D01*
X609861Y614451D01*
X609784Y614368D01*
X609709Y614282D01*
X609638Y614194D01*
X609570Y614104D01*
X609505Y614011D01*
X609443Y613916D01*
X609385Y613819D01*
X609330Y613720D01*
X609279Y613619D01*
X609231Y613516D01*
X609186Y613412D01*
X609146Y613306D01*
X609109Y613199D01*
X609076Y613091D01*
X609046Y612981D01*
X609021Y612871D01*
X608999Y612760D01*
X608982Y612648D01*
X608968Y612535D01*
X608958Y612422D01*
X608952Y612309D01*
X608950Y612196D01*
X608951Y612196D02*
X608951Y607004D01*
X608950Y607004D02*
X608952Y606891D01*
X608958Y606778D01*
X608968Y606665D01*
X608982Y606552D01*
X608999Y606440D01*
X609021Y606329D01*
X609046Y606219D01*
X609076Y606109D01*
X609109Y606001D01*
X609146Y605894D01*
X609186Y605788D01*
X609231Y605684D01*
X609279Y605581D01*
X609330Y605480D01*
X609385Y605381D01*
X609443Y605284D01*
X609505Y605189D01*
X609570Y605096D01*
X609638Y605006D01*
X609709Y604918D01*
X609784Y604832D01*
X609861Y604749D01*
X609941Y604669D01*
X610024Y604592D01*
X610110Y604517D01*
X610198Y604446D01*
X610288Y604378D01*
X610381Y604313D01*
X610476Y604251D01*
X610573Y604193D01*
X610672Y604138D01*
X610773Y604087D01*
X610876Y604039D01*
X610980Y603994D01*
X611086Y603954D01*
X611193Y603917D01*
X611301Y603884D01*
X611411Y603854D01*
X611521Y603829D01*
X611632Y603807D01*
X611744Y603790D01*
X611857Y603776D01*
X611970Y603766D01*
X612083Y603760D01*
X612196Y603758D01*
X615442Y603758D01*
X601797Y603758D02*
X598551Y603758D01*
X601797Y603758D02*
X601884Y603760D01*
X601972Y603766D01*
X602058Y603776D01*
X602145Y603789D01*
X602230Y603807D01*
X602315Y603828D01*
X602399Y603853D01*
X602481Y603882D01*
X602562Y603915D01*
X602642Y603951D01*
X602720Y603990D01*
X602796Y604034D01*
X602870Y604080D01*
X602941Y604130D01*
X603011Y604183D01*
X603078Y604239D01*
X603142Y604298D01*
X603204Y604360D01*
X603263Y604424D01*
X603319Y604491D01*
X603372Y604561D01*
X603422Y604632D01*
X603468Y604706D01*
X603512Y604782D01*
X603551Y604860D01*
X603587Y604940D01*
X603620Y605021D01*
X603649Y605103D01*
X603674Y605187D01*
X603695Y605272D01*
X603713Y605357D01*
X603726Y605444D01*
X603736Y605530D01*
X603742Y605618D01*
X603744Y605705D01*
X603744Y608951D01*
X603743Y608951D02*
X603741Y609052D01*
X603735Y609152D01*
X603725Y609252D01*
X603712Y609352D01*
X603694Y609451D01*
X603673Y609550D01*
X603648Y609647D01*
X603619Y609744D01*
X603586Y609839D01*
X603550Y609933D01*
X603510Y610025D01*
X603467Y610116D01*
X603420Y610205D01*
X603370Y610292D01*
X603316Y610378D01*
X603259Y610461D01*
X603199Y610541D01*
X603136Y610620D01*
X603069Y610696D01*
X603000Y610769D01*
X602928Y610839D01*
X602854Y610907D01*
X602777Y610972D01*
X602697Y611033D01*
X602615Y611092D01*
X602531Y611147D01*
X602445Y611199D01*
X602357Y611248D01*
X602267Y611293D01*
X602175Y611335D01*
X602082Y611373D01*
X601987Y611407D01*
X601892Y611438D01*
X601795Y611465D01*
X601697Y611488D01*
X601598Y611508D01*
X601498Y611523D01*
X601398Y611535D01*
X601298Y611543D01*
X601197Y611547D01*
X601097Y611547D01*
X600996Y611543D01*
X600896Y611535D01*
X600796Y611523D01*
X600696Y611508D01*
X600597Y611488D01*
X600499Y611465D01*
X600402Y611438D01*
X600307Y611407D01*
X600212Y611373D01*
X600119Y611335D01*
X600027Y611293D01*
X599937Y611248D01*
X599849Y611199D01*
X599763Y611147D01*
X599679Y611092D01*
X599597Y611033D01*
X599517Y610972D01*
X599440Y610907D01*
X599366Y610839D01*
X599294Y610769D01*
X599225Y610696D01*
X599158Y610620D01*
X599095Y610541D01*
X599035Y610461D01*
X598978Y610378D01*
X598924Y610292D01*
X598874Y610205D01*
X598827Y610116D01*
X598784Y610025D01*
X598744Y609933D01*
X598708Y609839D01*
X598675Y609744D01*
X598646Y609647D01*
X598621Y609550D01*
X598600Y609451D01*
X598582Y609352D01*
X598569Y609252D01*
X598559Y609152D01*
X598553Y609052D01*
X598551Y608951D01*
X598551Y607653D01*
X603744Y607653D01*
X594219Y611547D02*
X591622Y603758D01*
X589026Y611547D01*
X582747Y603758D02*
X579501Y603758D01*
X582747Y603758D02*
X582834Y603760D01*
X582922Y603766D01*
X583008Y603776D01*
X583095Y603789D01*
X583180Y603807D01*
X583265Y603828D01*
X583349Y603853D01*
X583431Y603882D01*
X583512Y603915D01*
X583592Y603951D01*
X583670Y603990D01*
X583746Y604034D01*
X583820Y604080D01*
X583891Y604130D01*
X583961Y604183D01*
X584028Y604239D01*
X584092Y604298D01*
X584154Y604360D01*
X584213Y604424D01*
X584269Y604491D01*
X584322Y604561D01*
X584372Y604632D01*
X584418Y604706D01*
X584462Y604782D01*
X584501Y604860D01*
X584537Y604940D01*
X584570Y605021D01*
X584599Y605103D01*
X584624Y605187D01*
X584645Y605272D01*
X584663Y605357D01*
X584676Y605444D01*
X584686Y605530D01*
X584692Y605618D01*
X584694Y605705D01*
X584694Y608951D01*
X584693Y608951D02*
X584691Y609052D01*
X584685Y609152D01*
X584675Y609252D01*
X584662Y609352D01*
X584644Y609451D01*
X584623Y609550D01*
X584598Y609647D01*
X584569Y609744D01*
X584536Y609839D01*
X584500Y609933D01*
X584460Y610025D01*
X584417Y610116D01*
X584370Y610205D01*
X584320Y610292D01*
X584266Y610378D01*
X584209Y610461D01*
X584149Y610541D01*
X584086Y610620D01*
X584019Y610696D01*
X583950Y610769D01*
X583878Y610839D01*
X583804Y610907D01*
X583727Y610972D01*
X583647Y611033D01*
X583565Y611092D01*
X583481Y611147D01*
X583395Y611199D01*
X583307Y611248D01*
X583217Y611293D01*
X583125Y611335D01*
X583032Y611373D01*
X582937Y611407D01*
X582842Y611438D01*
X582745Y611465D01*
X582647Y611488D01*
X582548Y611508D01*
X582448Y611523D01*
X582348Y611535D01*
X582248Y611543D01*
X582147Y611547D01*
X582047Y611547D01*
X581946Y611543D01*
X581846Y611535D01*
X581746Y611523D01*
X581646Y611508D01*
X581547Y611488D01*
X581449Y611465D01*
X581352Y611438D01*
X581257Y611407D01*
X581162Y611373D01*
X581069Y611335D01*
X580977Y611293D01*
X580887Y611248D01*
X580799Y611199D01*
X580713Y611147D01*
X580629Y611092D01*
X580547Y611033D01*
X580467Y610972D01*
X580390Y610907D01*
X580316Y610839D01*
X580244Y610769D01*
X580175Y610696D01*
X580108Y610620D01*
X580045Y610541D01*
X579985Y610461D01*
X579928Y610378D01*
X579874Y610292D01*
X579824Y610205D01*
X579777Y610116D01*
X579734Y610025D01*
X579694Y609933D01*
X579658Y609839D01*
X579625Y609744D01*
X579596Y609647D01*
X579571Y609550D01*
X579550Y609451D01*
X579532Y609352D01*
X579519Y609252D01*
X579509Y609152D01*
X579503Y609052D01*
X579501Y608951D01*
X579501Y607653D01*
X584694Y607653D01*
X574638Y605705D02*
X574638Y615442D01*
X574638Y605705D02*
X574636Y605618D01*
X574630Y605530D01*
X574620Y605444D01*
X574607Y605357D01*
X574589Y605272D01*
X574568Y605187D01*
X574543Y605103D01*
X574514Y605021D01*
X574481Y604940D01*
X574445Y604860D01*
X574406Y604782D01*
X574362Y604706D01*
X574316Y604632D01*
X574266Y604561D01*
X574213Y604491D01*
X574157Y604424D01*
X574098Y604360D01*
X574036Y604298D01*
X573972Y604239D01*
X573905Y604183D01*
X573835Y604130D01*
X573764Y604080D01*
X573690Y604034D01*
X573614Y603990D01*
X573536Y603951D01*
X573456Y603915D01*
X573375Y603882D01*
X573293Y603853D01*
X573209Y603828D01*
X573124Y603807D01*
X573039Y603789D01*
X572952Y603776D01*
X572866Y603766D01*
X572778Y603760D01*
X572691Y603758D01*
X568692Y606354D02*
X568692Y608951D01*
X568690Y609052D01*
X568684Y609152D01*
X568674Y609252D01*
X568661Y609352D01*
X568643Y609451D01*
X568622Y609550D01*
X568597Y609647D01*
X568568Y609744D01*
X568535Y609839D01*
X568499Y609933D01*
X568459Y610025D01*
X568416Y610116D01*
X568369Y610205D01*
X568319Y610292D01*
X568265Y610378D01*
X568208Y610461D01*
X568148Y610541D01*
X568085Y610620D01*
X568018Y610696D01*
X567949Y610769D01*
X567877Y610839D01*
X567803Y610907D01*
X567726Y610972D01*
X567646Y611033D01*
X567564Y611092D01*
X567480Y611147D01*
X567394Y611199D01*
X567306Y611248D01*
X567216Y611293D01*
X567124Y611335D01*
X567031Y611373D01*
X566936Y611407D01*
X566841Y611438D01*
X566744Y611465D01*
X566646Y611488D01*
X566547Y611508D01*
X566447Y611523D01*
X566347Y611535D01*
X566247Y611543D01*
X566146Y611547D01*
X566046Y611547D01*
X565945Y611543D01*
X565845Y611535D01*
X565745Y611523D01*
X565645Y611508D01*
X565546Y611488D01*
X565448Y611465D01*
X565351Y611438D01*
X565256Y611407D01*
X565161Y611373D01*
X565068Y611335D01*
X564976Y611293D01*
X564886Y611248D01*
X564798Y611199D01*
X564712Y611147D01*
X564628Y611092D01*
X564546Y611033D01*
X564466Y610972D01*
X564389Y610907D01*
X564315Y610839D01*
X564243Y610769D01*
X564174Y610696D01*
X564107Y610620D01*
X564044Y610541D01*
X563984Y610461D01*
X563927Y610378D01*
X563873Y610292D01*
X563823Y610205D01*
X563776Y610116D01*
X563733Y610025D01*
X563693Y609933D01*
X563657Y609839D01*
X563624Y609744D01*
X563595Y609647D01*
X563570Y609550D01*
X563549Y609451D01*
X563531Y609352D01*
X563518Y609252D01*
X563508Y609152D01*
X563502Y609052D01*
X563500Y608951D01*
X563499Y608951D02*
X563499Y606354D01*
X563500Y606354D02*
X563502Y606253D01*
X563508Y606153D01*
X563518Y606053D01*
X563531Y605953D01*
X563549Y605854D01*
X563570Y605755D01*
X563595Y605658D01*
X563624Y605561D01*
X563657Y605466D01*
X563693Y605372D01*
X563733Y605280D01*
X563776Y605189D01*
X563823Y605100D01*
X563873Y605013D01*
X563927Y604927D01*
X563984Y604844D01*
X564044Y604764D01*
X564107Y604685D01*
X564174Y604609D01*
X564243Y604536D01*
X564315Y604466D01*
X564389Y604398D01*
X564466Y604333D01*
X564546Y604272D01*
X564628Y604213D01*
X564712Y604158D01*
X564798Y604106D01*
X564886Y604057D01*
X564976Y604012D01*
X565068Y603970D01*
X565161Y603932D01*
X565256Y603898D01*
X565351Y603867D01*
X565448Y603840D01*
X565546Y603817D01*
X565645Y603797D01*
X565745Y603782D01*
X565845Y603770D01*
X565945Y603762D01*
X566046Y603758D01*
X566146Y603758D01*
X566247Y603762D01*
X566347Y603770D01*
X566447Y603782D01*
X566547Y603797D01*
X566646Y603817D01*
X566744Y603840D01*
X566841Y603867D01*
X566936Y603898D01*
X567031Y603932D01*
X567124Y603970D01*
X567216Y604012D01*
X567306Y604057D01*
X567394Y604106D01*
X567480Y604158D01*
X567564Y604213D01*
X567646Y604272D01*
X567726Y604333D01*
X567803Y604398D01*
X567877Y604466D01*
X567949Y604536D01*
X568018Y604609D01*
X568085Y604685D01*
X568148Y604764D01*
X568208Y604844D01*
X568265Y604927D01*
X568319Y605013D01*
X568369Y605100D01*
X568416Y605189D01*
X568459Y605280D01*
X568499Y605372D01*
X568535Y605466D01*
X568568Y605561D01*
X568597Y605658D01*
X568622Y605755D01*
X568643Y605854D01*
X568661Y605953D01*
X568674Y606053D01*
X568684Y606153D01*
X568690Y606253D01*
X568692Y606354D01*
X558346Y611547D02*
X558346Y599863D01*
X558346Y611547D02*
X555101Y611547D01*
X555014Y611545D01*
X554926Y611539D01*
X554840Y611529D01*
X554753Y611516D01*
X554668Y611498D01*
X554583Y611477D01*
X554499Y611452D01*
X554417Y611423D01*
X554336Y611390D01*
X554256Y611354D01*
X554178Y611315D01*
X554102Y611271D01*
X554028Y611225D01*
X553957Y611175D01*
X553887Y611122D01*
X553820Y611066D01*
X553756Y611007D01*
X553694Y610946D01*
X553635Y610881D01*
X553579Y610814D01*
X553526Y610744D01*
X553476Y610673D01*
X553430Y610599D01*
X553387Y610523D01*
X553347Y610445D01*
X553311Y610365D01*
X553278Y610284D01*
X553249Y610202D01*
X553224Y610118D01*
X553203Y610033D01*
X553185Y609948D01*
X553172Y609861D01*
X553162Y609775D01*
X553156Y609687D01*
X553154Y609600D01*
X553153Y609600D02*
X553153Y605705D01*
X553154Y605705D02*
X553156Y605618D01*
X553162Y605530D01*
X553172Y605444D01*
X553185Y605357D01*
X553203Y605272D01*
X553224Y605187D01*
X553249Y605103D01*
X553278Y605021D01*
X553311Y604940D01*
X553347Y604860D01*
X553386Y604782D01*
X553430Y604706D01*
X553476Y604632D01*
X553526Y604561D01*
X553579Y604491D01*
X553635Y604424D01*
X553694Y604359D01*
X553756Y604298D01*
X553820Y604239D01*
X553887Y604183D01*
X553957Y604130D01*
X554028Y604080D01*
X554102Y604034D01*
X554178Y603990D01*
X554256Y603951D01*
X554336Y603915D01*
X554417Y603882D01*
X554499Y603853D01*
X554583Y603828D01*
X554668Y603807D01*
X554753Y603789D01*
X554840Y603776D01*
X554927Y603766D01*
X555014Y603760D01*
X555101Y603758D01*
X558346Y603758D01*
X546552Y603758D02*
X543306Y603758D01*
X546552Y603758D02*
X546639Y603760D01*
X546727Y603766D01*
X546813Y603776D01*
X546900Y603789D01*
X546985Y603807D01*
X547070Y603828D01*
X547154Y603853D01*
X547236Y603882D01*
X547317Y603915D01*
X547397Y603951D01*
X547475Y603990D01*
X547551Y604034D01*
X547625Y604080D01*
X547696Y604130D01*
X547766Y604183D01*
X547833Y604239D01*
X547897Y604298D01*
X547959Y604360D01*
X548018Y604424D01*
X548074Y604491D01*
X548127Y604561D01*
X548177Y604632D01*
X548223Y604706D01*
X548267Y604782D01*
X548306Y604860D01*
X548342Y604940D01*
X548375Y605021D01*
X548404Y605103D01*
X548429Y605187D01*
X548450Y605272D01*
X548468Y605357D01*
X548481Y605444D01*
X548491Y605530D01*
X548497Y605618D01*
X548499Y605705D01*
X548499Y608951D01*
X548497Y609052D01*
X548491Y609152D01*
X548481Y609252D01*
X548468Y609352D01*
X548450Y609451D01*
X548429Y609550D01*
X548404Y609647D01*
X548375Y609744D01*
X548342Y609839D01*
X548306Y609933D01*
X548266Y610025D01*
X548223Y610116D01*
X548176Y610205D01*
X548126Y610292D01*
X548072Y610378D01*
X548015Y610461D01*
X547955Y610541D01*
X547892Y610620D01*
X547825Y610696D01*
X547756Y610769D01*
X547684Y610839D01*
X547610Y610907D01*
X547533Y610972D01*
X547453Y611033D01*
X547371Y611092D01*
X547287Y611147D01*
X547201Y611199D01*
X547113Y611248D01*
X547023Y611293D01*
X546931Y611335D01*
X546838Y611373D01*
X546743Y611407D01*
X546648Y611438D01*
X546551Y611465D01*
X546453Y611488D01*
X546354Y611508D01*
X546254Y611523D01*
X546154Y611535D01*
X546054Y611543D01*
X545953Y611547D01*
X545853Y611547D01*
X545752Y611543D01*
X545652Y611535D01*
X545552Y611523D01*
X545452Y611508D01*
X545353Y611488D01*
X545255Y611465D01*
X545158Y611438D01*
X545063Y611407D01*
X544968Y611373D01*
X544875Y611335D01*
X544783Y611293D01*
X544693Y611248D01*
X544605Y611199D01*
X544519Y611147D01*
X544435Y611092D01*
X544353Y611033D01*
X544273Y610972D01*
X544196Y610907D01*
X544122Y610839D01*
X544050Y610769D01*
X543981Y610696D01*
X543914Y610620D01*
X543851Y610541D01*
X543791Y610461D01*
X543734Y610378D01*
X543680Y610292D01*
X543630Y610205D01*
X543583Y610116D01*
X543540Y610025D01*
X543500Y609933D01*
X543464Y609839D01*
X543431Y609744D01*
X543402Y609647D01*
X543377Y609550D01*
X543356Y609451D01*
X543338Y609352D01*
X543325Y609252D01*
X543315Y609152D01*
X543309Y609052D01*
X543307Y608951D01*
X543306Y608951D02*
X543306Y607653D01*
X548499Y607653D01*
X533459Y603758D02*
X533459Y615442D01*
X533459Y603758D02*
X536705Y603758D01*
X536792Y603760D01*
X536880Y603766D01*
X536966Y603776D01*
X537053Y603789D01*
X537138Y603807D01*
X537223Y603828D01*
X537307Y603853D01*
X537389Y603882D01*
X537470Y603915D01*
X537550Y603951D01*
X537628Y603990D01*
X537704Y604034D01*
X537778Y604080D01*
X537849Y604130D01*
X537919Y604183D01*
X537986Y604239D01*
X538050Y604298D01*
X538112Y604360D01*
X538171Y604424D01*
X538227Y604491D01*
X538280Y604561D01*
X538330Y604632D01*
X538376Y604706D01*
X538420Y604782D01*
X538459Y604860D01*
X538495Y604940D01*
X538528Y605021D01*
X538557Y605103D01*
X538582Y605187D01*
X538603Y605272D01*
X538621Y605357D01*
X538634Y605444D01*
X538644Y605530D01*
X538650Y605618D01*
X538652Y605705D01*
X538652Y609600D01*
X538650Y609687D01*
X538644Y609775D01*
X538634Y609861D01*
X538621Y609948D01*
X538603Y610033D01*
X538582Y610118D01*
X538557Y610202D01*
X538528Y610284D01*
X538495Y610365D01*
X538459Y610445D01*
X538420Y610523D01*
X538376Y610599D01*
X538330Y610673D01*
X538280Y610744D01*
X538227Y610814D01*
X538171Y610881D01*
X538112Y610945D01*
X538050Y611007D01*
X537986Y611066D01*
X537919Y611122D01*
X537849Y611175D01*
X537778Y611225D01*
X537704Y611271D01*
X537628Y611315D01*
X537550Y611354D01*
X537470Y611390D01*
X537389Y611423D01*
X537307Y611452D01*
X537223Y611477D01*
X537138Y611498D01*
X537053Y611516D01*
X536966Y611529D01*
X536880Y611539D01*
X536792Y611545D01*
X536705Y611547D01*
X533459Y611547D01*
X521770Y615442D02*
X521770Y603758D01*
X518525Y603758D01*
X518438Y603760D01*
X518350Y603766D01*
X518264Y603776D01*
X518177Y603789D01*
X518092Y603807D01*
X518007Y603828D01*
X517923Y603853D01*
X517841Y603882D01*
X517760Y603915D01*
X517680Y603951D01*
X517602Y603990D01*
X517526Y604034D01*
X517452Y604080D01*
X517381Y604130D01*
X517311Y604183D01*
X517244Y604239D01*
X517180Y604298D01*
X517118Y604359D01*
X517059Y604424D01*
X517003Y604491D01*
X516950Y604561D01*
X516900Y604632D01*
X516854Y604706D01*
X516811Y604782D01*
X516771Y604860D01*
X516735Y604940D01*
X516702Y605021D01*
X516673Y605103D01*
X516648Y605187D01*
X516627Y605272D01*
X516609Y605357D01*
X516596Y605444D01*
X516586Y605530D01*
X516580Y605618D01*
X516578Y605705D01*
X516577Y605705D02*
X516577Y609600D01*
X516578Y609600D02*
X516580Y609687D01*
X516586Y609775D01*
X516596Y609861D01*
X516609Y609948D01*
X516627Y610033D01*
X516648Y610118D01*
X516673Y610202D01*
X516702Y610284D01*
X516735Y610365D01*
X516771Y610445D01*
X516810Y610523D01*
X516854Y610599D01*
X516900Y610673D01*
X516950Y610744D01*
X517003Y610814D01*
X517059Y610881D01*
X517118Y610946D01*
X517180Y611007D01*
X517244Y611066D01*
X517311Y611122D01*
X517381Y611175D01*
X517452Y611225D01*
X517526Y611271D01*
X517602Y611315D01*
X517680Y611354D01*
X517760Y611390D01*
X517841Y611423D01*
X517923Y611452D01*
X518007Y611477D01*
X518092Y611498D01*
X518177Y611516D01*
X518264Y611529D01*
X518351Y611539D01*
X518438Y611545D01*
X518525Y611547D01*
X521770Y611547D01*
X512304Y599863D02*
X511006Y599863D01*
X507111Y611547D01*
X512304Y611547D02*
X509708Y603758D01*
X493057Y603758D02*
X492958Y603760D01*
X492858Y603766D01*
X492759Y603775D01*
X492661Y603788D01*
X492563Y603805D01*
X492465Y603826D01*
X492369Y603851D01*
X492274Y603879D01*
X492180Y603911D01*
X492087Y603946D01*
X491995Y603985D01*
X491905Y604028D01*
X491817Y604073D01*
X491730Y604123D01*
X491646Y604175D01*
X491563Y604231D01*
X491483Y604289D01*
X491405Y604351D01*
X491330Y604416D01*
X491257Y604484D01*
X491187Y604554D01*
X491119Y604627D01*
X491054Y604702D01*
X490992Y604780D01*
X490934Y604860D01*
X490878Y604943D01*
X490826Y605027D01*
X490776Y605114D01*
X490731Y605202D01*
X490688Y605292D01*
X490649Y605384D01*
X490614Y605477D01*
X490582Y605571D01*
X490554Y605666D01*
X490529Y605762D01*
X490508Y605860D01*
X490491Y605958D01*
X490478Y606056D01*
X490469Y606155D01*
X490463Y606255D01*
X490461Y606354D01*
X493057Y603758D02*
X493201Y603760D01*
X493346Y603766D01*
X493490Y603775D01*
X493633Y603788D01*
X493777Y603805D01*
X493920Y603826D01*
X494062Y603851D01*
X494203Y603879D01*
X494344Y603911D01*
X494484Y603947D01*
X494623Y603986D01*
X494761Y604029D01*
X494897Y604076D01*
X495033Y604126D01*
X495167Y604180D01*
X495299Y604237D01*
X495430Y604298D01*
X495559Y604362D01*
X495687Y604430D01*
X495813Y604501D01*
X495937Y604575D01*
X496058Y604652D01*
X496178Y604733D01*
X496296Y604816D01*
X496411Y604903D01*
X496524Y604993D01*
X496635Y605086D01*
X496743Y605181D01*
X496849Y605280D01*
X496952Y605381D01*
X496626Y612846D02*
X496624Y612945D01*
X496618Y613045D01*
X496609Y613144D01*
X496596Y613242D01*
X496579Y613340D01*
X496558Y613438D01*
X496533Y613534D01*
X496505Y613629D01*
X496473Y613723D01*
X496438Y613816D01*
X496399Y613908D01*
X496356Y613998D01*
X496311Y614086D01*
X496261Y614173D01*
X496209Y614257D01*
X496153Y614340D01*
X496095Y614420D01*
X496033Y614498D01*
X495968Y614573D01*
X495900Y614646D01*
X495830Y614716D01*
X495757Y614784D01*
X495682Y614849D01*
X495604Y614911D01*
X495524Y614969D01*
X495441Y615025D01*
X495357Y615077D01*
X495270Y615127D01*
X495182Y615172D01*
X495092Y615215D01*
X495000Y615254D01*
X494907Y615289D01*
X494813Y615321D01*
X494718Y615349D01*
X494622Y615374D01*
X494524Y615395D01*
X494426Y615412D01*
X494328Y615425D01*
X494229Y615434D01*
X494129Y615440D01*
X494030Y615442D01*
X493894Y615440D01*
X493758Y615434D01*
X493622Y615425D01*
X493486Y615412D01*
X493351Y615394D01*
X493217Y615374D01*
X493083Y615349D01*
X492949Y615321D01*
X492817Y615288D01*
X492686Y615253D01*
X492555Y615213D01*
X492426Y615170D01*
X492298Y615124D01*
X492172Y615073D01*
X492046Y615020D01*
X491923Y614962D01*
X491801Y614902D01*
X491681Y614838D01*
X491562Y614770D01*
X491446Y614700D01*
X491332Y614626D01*
X491219Y614549D01*
X491109Y614468D01*
X495329Y610574D02*
X495415Y610627D01*
X495499Y610684D01*
X495581Y610743D01*
X495661Y610806D01*
X495738Y610872D01*
X495813Y610940D01*
X495885Y611012D01*
X495954Y611086D01*
X496020Y611163D01*
X496083Y611242D01*
X496143Y611324D01*
X496200Y611408D01*
X496254Y611494D01*
X496304Y611582D01*
X496351Y611672D01*
X496395Y611763D01*
X496434Y611857D01*
X496471Y611951D01*
X496503Y612047D01*
X496532Y612145D01*
X496557Y612243D01*
X496578Y612342D01*
X496596Y612442D01*
X496609Y612542D01*
X496619Y612643D01*
X496625Y612745D01*
X496627Y612846D01*
X491758Y608626D02*
X491672Y608573D01*
X491588Y608516D01*
X491506Y608457D01*
X491426Y608394D01*
X491349Y608328D01*
X491274Y608260D01*
X491202Y608188D01*
X491133Y608114D01*
X491067Y608037D01*
X491004Y607958D01*
X490944Y607876D01*
X490887Y607792D01*
X490833Y607706D01*
X490783Y607618D01*
X490736Y607528D01*
X490692Y607437D01*
X490653Y607343D01*
X490616Y607249D01*
X490584Y607153D01*
X490555Y607055D01*
X490530Y606957D01*
X490509Y606858D01*
X490491Y606758D01*
X490478Y606658D01*
X490468Y606557D01*
X490462Y606455D01*
X490460Y606354D01*
X491758Y608626D02*
X495328Y610574D01*
X485499Y615442D02*
X485499Y603758D01*
X480306Y603758D01*
X476490Y602460D02*
X471297Y602460D01*
X466449Y603758D02*
X461256Y603758D01*
X466449Y603758D02*
X466449Y615442D01*
X461256Y615442D01*
X462554Y610249D02*
X466449Y610249D01*
X456678Y611547D02*
X456678Y603758D01*
X456678Y611547D02*
X453433Y611547D01*
X453346Y611545D01*
X453258Y611539D01*
X453172Y611529D01*
X453085Y611516D01*
X453000Y611498D01*
X452915Y611477D01*
X452831Y611452D01*
X452749Y611423D01*
X452668Y611390D01*
X452588Y611354D01*
X452510Y611315D01*
X452434Y611271D01*
X452360Y611225D01*
X452289Y611175D01*
X452219Y611122D01*
X452152Y611066D01*
X452088Y611007D01*
X452026Y610946D01*
X451967Y610881D01*
X451911Y610814D01*
X451858Y610744D01*
X451808Y610673D01*
X451762Y610599D01*
X451719Y610523D01*
X451679Y610445D01*
X451643Y610365D01*
X451610Y610284D01*
X451581Y610202D01*
X451556Y610118D01*
X451535Y610033D01*
X451517Y609948D01*
X451504Y609861D01*
X451494Y609775D01*
X451488Y609687D01*
X451486Y609600D01*
X451485Y609600D02*
X451485Y603758D01*
X444503Y603758D02*
X441257Y603758D01*
X444503Y603758D02*
X444590Y603760D01*
X444678Y603766D01*
X444764Y603776D01*
X444851Y603789D01*
X444936Y603807D01*
X445021Y603828D01*
X445105Y603853D01*
X445187Y603882D01*
X445268Y603915D01*
X445348Y603951D01*
X445426Y603990D01*
X445502Y604034D01*
X445576Y604080D01*
X445647Y604130D01*
X445717Y604183D01*
X445784Y604239D01*
X445848Y604298D01*
X445910Y604360D01*
X445969Y604424D01*
X446025Y604491D01*
X446078Y604561D01*
X446128Y604632D01*
X446174Y604706D01*
X446218Y604782D01*
X446257Y604860D01*
X446293Y604940D01*
X446326Y605021D01*
X446355Y605103D01*
X446380Y605187D01*
X446401Y605272D01*
X446419Y605357D01*
X446432Y605444D01*
X446442Y605530D01*
X446448Y605618D01*
X446450Y605705D01*
X446450Y609600D01*
X446448Y609687D01*
X446442Y609775D01*
X446432Y609861D01*
X446419Y609948D01*
X446401Y610033D01*
X446380Y610118D01*
X446355Y610202D01*
X446326Y610284D01*
X446293Y610365D01*
X446257Y610445D01*
X446218Y610523D01*
X446174Y610599D01*
X446128Y610673D01*
X446078Y610744D01*
X446025Y610814D01*
X445969Y610881D01*
X445910Y610945D01*
X445848Y611007D01*
X445784Y611066D01*
X445717Y611122D01*
X445647Y611175D01*
X445576Y611225D01*
X445502Y611271D01*
X445426Y611315D01*
X445348Y611354D01*
X445268Y611390D01*
X445187Y611423D01*
X445105Y611452D01*
X445021Y611477D01*
X444936Y611498D01*
X444851Y611516D01*
X444764Y611529D01*
X444678Y611539D01*
X444590Y611545D01*
X444503Y611547D01*
X441257Y611547D01*
X441257Y601811D01*
X441259Y601724D01*
X441265Y601636D01*
X441275Y601550D01*
X441288Y601463D01*
X441306Y601378D01*
X441327Y601293D01*
X441352Y601209D01*
X441381Y601127D01*
X441414Y601046D01*
X441450Y600966D01*
X441489Y600888D01*
X441533Y600812D01*
X441579Y600738D01*
X441629Y600667D01*
X441682Y600597D01*
X441738Y600530D01*
X441797Y600466D01*
X441859Y600404D01*
X441923Y600345D01*
X441990Y600289D01*
X442060Y600236D01*
X442131Y600186D01*
X442205Y600140D01*
X442281Y600096D01*
X442359Y600057D01*
X442439Y600021D01*
X442520Y599988D01*
X442602Y599959D01*
X442686Y599934D01*
X442771Y599913D01*
X442856Y599895D01*
X442943Y599882D01*
X443029Y599872D01*
X443117Y599866D01*
X443204Y599864D01*
X443204Y599863D02*
X445801Y599863D01*
X436175Y603758D02*
X436175Y611547D01*
X436499Y614793D02*
X436499Y615442D01*
X435850Y615442D01*
X435850Y614793D01*
X436499Y614793D01*
X431151Y611547D02*
X431151Y603758D01*
X431151Y611547D02*
X427906Y611547D01*
X427819Y611545D01*
X427731Y611539D01*
X427645Y611529D01*
X427558Y611516D01*
X427473Y611498D01*
X427388Y611477D01*
X427304Y611452D01*
X427222Y611423D01*
X427141Y611390D01*
X427061Y611354D01*
X426983Y611315D01*
X426907Y611271D01*
X426833Y611225D01*
X426762Y611175D01*
X426692Y611122D01*
X426625Y611066D01*
X426561Y611007D01*
X426499Y610946D01*
X426440Y610881D01*
X426384Y610814D01*
X426331Y610744D01*
X426281Y610673D01*
X426235Y610599D01*
X426192Y610523D01*
X426152Y610445D01*
X426116Y610365D01*
X426083Y610284D01*
X426054Y610202D01*
X426029Y610118D01*
X426008Y610033D01*
X425990Y609948D01*
X425977Y609861D01*
X425967Y609775D01*
X425961Y609687D01*
X425959Y609600D01*
X425958Y609600D02*
X425958Y603758D01*
X418917Y603758D02*
X415671Y603758D01*
X418917Y603758D02*
X419004Y603760D01*
X419092Y603766D01*
X419178Y603776D01*
X419265Y603789D01*
X419350Y603807D01*
X419435Y603828D01*
X419519Y603853D01*
X419601Y603882D01*
X419682Y603915D01*
X419762Y603951D01*
X419840Y603990D01*
X419916Y604034D01*
X419990Y604080D01*
X420061Y604130D01*
X420131Y604183D01*
X420198Y604239D01*
X420262Y604298D01*
X420324Y604360D01*
X420383Y604424D01*
X420439Y604491D01*
X420492Y604561D01*
X420542Y604632D01*
X420588Y604706D01*
X420632Y604782D01*
X420671Y604860D01*
X420707Y604940D01*
X420740Y605021D01*
X420769Y605103D01*
X420794Y605187D01*
X420815Y605272D01*
X420833Y605357D01*
X420846Y605444D01*
X420856Y605530D01*
X420862Y605618D01*
X420864Y605705D01*
X420864Y608951D01*
X420862Y609052D01*
X420856Y609152D01*
X420846Y609252D01*
X420833Y609352D01*
X420815Y609451D01*
X420794Y609550D01*
X420769Y609647D01*
X420740Y609744D01*
X420707Y609839D01*
X420671Y609933D01*
X420631Y610025D01*
X420588Y610116D01*
X420541Y610205D01*
X420491Y610292D01*
X420437Y610378D01*
X420380Y610461D01*
X420320Y610541D01*
X420257Y610620D01*
X420190Y610696D01*
X420121Y610769D01*
X420049Y610839D01*
X419975Y610907D01*
X419898Y610972D01*
X419818Y611033D01*
X419736Y611092D01*
X419652Y611147D01*
X419566Y611199D01*
X419478Y611248D01*
X419388Y611293D01*
X419296Y611335D01*
X419203Y611373D01*
X419108Y611407D01*
X419013Y611438D01*
X418916Y611465D01*
X418818Y611488D01*
X418719Y611508D01*
X418619Y611523D01*
X418519Y611535D01*
X418419Y611543D01*
X418318Y611547D01*
X418218Y611547D01*
X418117Y611543D01*
X418017Y611535D01*
X417917Y611523D01*
X417817Y611508D01*
X417718Y611488D01*
X417620Y611465D01*
X417523Y611438D01*
X417428Y611407D01*
X417333Y611373D01*
X417240Y611335D01*
X417148Y611293D01*
X417058Y611248D01*
X416970Y611199D01*
X416884Y611147D01*
X416800Y611092D01*
X416718Y611033D01*
X416638Y610972D01*
X416561Y610907D01*
X416487Y610839D01*
X416415Y610769D01*
X416346Y610696D01*
X416279Y610620D01*
X416216Y610541D01*
X416156Y610461D01*
X416099Y610378D01*
X416045Y610292D01*
X415995Y610205D01*
X415948Y610116D01*
X415905Y610025D01*
X415865Y609933D01*
X415829Y609839D01*
X415796Y609744D01*
X415767Y609647D01*
X415742Y609550D01*
X415721Y609451D01*
X415703Y609352D01*
X415690Y609252D01*
X415680Y609152D01*
X415674Y609052D01*
X415672Y608951D01*
X415671Y608951D02*
X415671Y607653D01*
X420864Y607653D01*
X409011Y603758D02*
X405765Y603758D01*
X409011Y603758D02*
X409098Y603760D01*
X409186Y603766D01*
X409272Y603776D01*
X409359Y603789D01*
X409444Y603807D01*
X409529Y603828D01*
X409613Y603853D01*
X409695Y603882D01*
X409776Y603915D01*
X409856Y603951D01*
X409934Y603990D01*
X410010Y604034D01*
X410084Y604080D01*
X410155Y604130D01*
X410225Y604183D01*
X410292Y604239D01*
X410356Y604298D01*
X410418Y604360D01*
X410477Y604424D01*
X410533Y604491D01*
X410586Y604561D01*
X410636Y604632D01*
X410682Y604706D01*
X410726Y604782D01*
X410765Y604860D01*
X410801Y604940D01*
X410834Y605021D01*
X410863Y605103D01*
X410888Y605187D01*
X410909Y605272D01*
X410927Y605357D01*
X410940Y605444D01*
X410950Y605530D01*
X410956Y605618D01*
X410958Y605705D01*
X410958Y608951D01*
X410956Y609052D01*
X410950Y609152D01*
X410940Y609252D01*
X410927Y609352D01*
X410909Y609451D01*
X410888Y609550D01*
X410863Y609647D01*
X410834Y609744D01*
X410801Y609839D01*
X410765Y609933D01*
X410725Y610025D01*
X410682Y610116D01*
X410635Y610205D01*
X410585Y610292D01*
X410531Y610378D01*
X410474Y610461D01*
X410414Y610541D01*
X410351Y610620D01*
X410284Y610696D01*
X410215Y610769D01*
X410143Y610839D01*
X410069Y610907D01*
X409992Y610972D01*
X409912Y611033D01*
X409830Y611092D01*
X409746Y611147D01*
X409660Y611199D01*
X409572Y611248D01*
X409482Y611293D01*
X409390Y611335D01*
X409297Y611373D01*
X409202Y611407D01*
X409107Y611438D01*
X409010Y611465D01*
X408912Y611488D01*
X408813Y611508D01*
X408713Y611523D01*
X408613Y611535D01*
X408513Y611543D01*
X408412Y611547D01*
X408312Y611547D01*
X408211Y611543D01*
X408111Y611535D01*
X408011Y611523D01*
X407911Y611508D01*
X407812Y611488D01*
X407714Y611465D01*
X407617Y611438D01*
X407522Y611407D01*
X407427Y611373D01*
X407334Y611335D01*
X407242Y611293D01*
X407152Y611248D01*
X407064Y611199D01*
X406978Y611147D01*
X406894Y611092D01*
X406812Y611033D01*
X406732Y610972D01*
X406655Y610907D01*
X406581Y610839D01*
X406509Y610769D01*
X406440Y610696D01*
X406373Y610620D01*
X406310Y610541D01*
X406250Y610461D01*
X406193Y610378D01*
X406139Y610292D01*
X406089Y610205D01*
X406042Y610116D01*
X405999Y610025D01*
X405959Y609933D01*
X405923Y609839D01*
X405890Y609744D01*
X405861Y609647D01*
X405836Y609550D01*
X405815Y609451D01*
X405797Y609352D01*
X405784Y609252D01*
X405774Y609152D01*
X405768Y609052D01*
X405766Y608951D01*
X405765Y608951D02*
X405765Y607653D01*
X410958Y607653D01*
X400605Y603758D02*
X400605Y611547D01*
X396710Y611547D01*
X396710Y610249D01*
X393122Y611547D02*
X393122Y603758D01*
X393446Y614793D02*
X393446Y615442D01*
X392797Y615442D01*
X392797Y614793D01*
X393446Y614793D01*
X388098Y611547D02*
X388098Y603758D01*
X388098Y611547D02*
X384853Y611547D01*
X384766Y611545D01*
X384678Y611539D01*
X384592Y611529D01*
X384505Y611516D01*
X384420Y611498D01*
X384335Y611477D01*
X384251Y611452D01*
X384169Y611423D01*
X384088Y611390D01*
X384008Y611354D01*
X383930Y611315D01*
X383854Y611271D01*
X383780Y611225D01*
X383709Y611175D01*
X383639Y611122D01*
X383572Y611066D01*
X383508Y611007D01*
X383446Y610946D01*
X383387Y610881D01*
X383331Y610814D01*
X383278Y610744D01*
X383228Y610673D01*
X383182Y610599D01*
X383139Y610523D01*
X383099Y610445D01*
X383063Y610365D01*
X383030Y610284D01*
X383001Y610202D01*
X382976Y610118D01*
X382955Y610033D01*
X382937Y609948D01*
X382924Y609861D01*
X382914Y609775D01*
X382908Y609687D01*
X382906Y609600D01*
X382905Y609600D02*
X382905Y603758D01*
X375923Y603758D02*
X372677Y603758D01*
X375923Y603758D02*
X376010Y603760D01*
X376098Y603766D01*
X376184Y603776D01*
X376271Y603789D01*
X376356Y603807D01*
X376441Y603828D01*
X376525Y603853D01*
X376607Y603882D01*
X376688Y603915D01*
X376768Y603951D01*
X376846Y603990D01*
X376922Y604034D01*
X376996Y604080D01*
X377067Y604130D01*
X377137Y604183D01*
X377204Y604239D01*
X377268Y604298D01*
X377330Y604360D01*
X377389Y604424D01*
X377445Y604491D01*
X377498Y604561D01*
X377548Y604632D01*
X377594Y604706D01*
X377638Y604782D01*
X377677Y604860D01*
X377713Y604940D01*
X377746Y605021D01*
X377775Y605103D01*
X377800Y605187D01*
X377821Y605272D01*
X377839Y605357D01*
X377852Y605444D01*
X377862Y605530D01*
X377868Y605618D01*
X377870Y605705D01*
X377870Y609600D01*
X377868Y609687D01*
X377862Y609775D01*
X377852Y609861D01*
X377839Y609948D01*
X377821Y610033D01*
X377800Y610118D01*
X377775Y610202D01*
X377746Y610284D01*
X377713Y610365D01*
X377677Y610445D01*
X377638Y610523D01*
X377594Y610599D01*
X377548Y610673D01*
X377498Y610744D01*
X377445Y610814D01*
X377389Y610881D01*
X377330Y610945D01*
X377268Y611007D01*
X377204Y611066D01*
X377137Y611122D01*
X377067Y611175D01*
X376996Y611225D01*
X376922Y611271D01*
X376846Y611315D01*
X376768Y611354D01*
X376688Y611390D01*
X376607Y611423D01*
X376525Y611452D01*
X376441Y611477D01*
X376356Y611498D01*
X376271Y611516D01*
X376184Y611529D01*
X376098Y611539D01*
X376010Y611545D01*
X375923Y611547D01*
X372677Y611547D01*
X372677Y601811D01*
X372678Y601811D02*
X372680Y601724D01*
X372686Y601636D01*
X372696Y601550D01*
X372709Y601463D01*
X372727Y601378D01*
X372748Y601293D01*
X372773Y601209D01*
X372802Y601127D01*
X372835Y601046D01*
X372871Y600966D01*
X372910Y600888D01*
X372954Y600812D01*
X373000Y600738D01*
X373050Y600667D01*
X373103Y600597D01*
X373159Y600530D01*
X373218Y600466D01*
X373280Y600404D01*
X373344Y600345D01*
X373411Y600289D01*
X373481Y600236D01*
X373552Y600186D01*
X373626Y600140D01*
X373702Y600096D01*
X373780Y600057D01*
X373860Y600021D01*
X373941Y599988D01*
X374023Y599959D01*
X374107Y599934D01*
X374192Y599913D01*
X374277Y599895D01*
X374364Y599882D01*
X374450Y599872D01*
X374538Y599866D01*
X374625Y599864D01*
X374625Y599863D02*
X377221Y599863D01*
D12*
X107188Y36068D02*
X107188Y19812D01*
X99963Y19812D01*
X91243Y26134D02*
X87179Y26134D01*
X91243Y26134D02*
X91355Y26132D01*
X91466Y26126D01*
X91577Y26116D01*
X91688Y26103D01*
X91798Y26085D01*
X91907Y26063D01*
X92016Y26038D01*
X92124Y26009D01*
X92230Y25976D01*
X92336Y25939D01*
X92440Y25899D01*
X92542Y25855D01*
X92643Y25807D01*
X92742Y25756D01*
X92840Y25701D01*
X92935Y25643D01*
X93028Y25582D01*
X93119Y25517D01*
X93208Y25449D01*
X93294Y25378D01*
X93377Y25305D01*
X93458Y25228D01*
X93537Y25148D01*
X93612Y25066D01*
X93684Y24981D01*
X93754Y24894D01*
X93820Y24804D01*
X93883Y24712D01*
X93943Y24617D01*
X93999Y24521D01*
X94052Y24423D01*
X94101Y24323D01*
X94147Y24221D01*
X94189Y24118D01*
X94228Y24013D01*
X94263Y23907D01*
X94294Y23800D01*
X94321Y23692D01*
X94345Y23583D01*
X94364Y23473D01*
X94380Y23363D01*
X94392Y23252D01*
X94400Y23140D01*
X94404Y23029D01*
X94404Y22917D01*
X94400Y22806D01*
X94392Y22694D01*
X94380Y22583D01*
X94364Y22473D01*
X94345Y22363D01*
X94321Y22254D01*
X94294Y22146D01*
X94263Y22039D01*
X94228Y21933D01*
X94189Y21828D01*
X94147Y21725D01*
X94101Y21623D01*
X94052Y21523D01*
X93999Y21425D01*
X93943Y21329D01*
X93883Y21234D01*
X93820Y21142D01*
X93754Y21052D01*
X93684Y20965D01*
X93612Y20880D01*
X93537Y20798D01*
X93458Y20718D01*
X93377Y20641D01*
X93294Y20568D01*
X93208Y20497D01*
X93119Y20429D01*
X93028Y20364D01*
X92935Y20303D01*
X92840Y20245D01*
X92742Y20190D01*
X92643Y20139D01*
X92542Y20091D01*
X92440Y20047D01*
X92336Y20007D01*
X92230Y19970D01*
X92124Y19937D01*
X92016Y19908D01*
X91907Y19883D01*
X91798Y19861D01*
X91688Y19843D01*
X91577Y19830D01*
X91466Y19820D01*
X91355Y19814D01*
X91243Y19812D01*
X87179Y19812D01*
X87179Y27940D01*
X87181Y28041D01*
X87187Y28142D01*
X87196Y28243D01*
X87209Y28344D01*
X87226Y28444D01*
X87247Y28543D01*
X87271Y28641D01*
X87299Y28738D01*
X87331Y28835D01*
X87366Y28930D01*
X87405Y29023D01*
X87447Y29115D01*
X87493Y29206D01*
X87542Y29295D01*
X87594Y29381D01*
X87650Y29466D01*
X87708Y29549D01*
X87770Y29629D01*
X87835Y29707D01*
X87902Y29783D01*
X87972Y29856D01*
X88045Y29926D01*
X88121Y29993D01*
X88199Y30058D01*
X88279Y30120D01*
X88362Y30178D01*
X88447Y30234D01*
X88534Y30286D01*
X88622Y30335D01*
X88713Y30381D01*
X88805Y30423D01*
X88898Y30462D01*
X88993Y30497D01*
X89090Y30529D01*
X89187Y30557D01*
X89285Y30581D01*
X89384Y30602D01*
X89484Y30619D01*
X89585Y30632D01*
X89686Y30641D01*
X89787Y30647D01*
X89888Y30649D01*
X89889Y30649D02*
X93501Y30649D01*
X78908Y26134D02*
X74392Y24328D01*
X78908Y26134D02*
X78996Y26171D01*
X79082Y26212D01*
X79167Y26256D01*
X79250Y26304D01*
X79330Y26355D01*
X79409Y26409D01*
X79485Y26467D01*
X79559Y26527D01*
X79631Y26591D01*
X79699Y26657D01*
X79765Y26727D01*
X79828Y26798D01*
X79889Y26873D01*
X79946Y26949D01*
X79999Y27028D01*
X80050Y27109D01*
X80097Y27192D01*
X80141Y27277D01*
X80181Y27364D01*
X80218Y27452D01*
X80251Y27542D01*
X80281Y27633D01*
X80306Y27725D01*
X80328Y27818D01*
X80346Y27912D01*
X80361Y28006D01*
X80371Y28101D01*
X80377Y28197D01*
X80380Y28292D01*
X80379Y28388D01*
X80373Y28483D01*
X80364Y28579D01*
X80351Y28673D01*
X80335Y28767D01*
X80314Y28861D01*
X80289Y28953D01*
X80261Y29044D01*
X80229Y29134D01*
X80194Y29223D01*
X80155Y29310D01*
X80112Y29396D01*
X80066Y29480D01*
X80016Y29561D01*
X79964Y29641D01*
X79908Y29719D01*
X79848Y29794D01*
X79786Y29866D01*
X79721Y29936D01*
X79653Y30004D01*
X79583Y30068D01*
X79510Y30130D01*
X79434Y30188D01*
X79356Y30244D01*
X79276Y30296D01*
X79194Y30345D01*
X79110Y30390D01*
X79024Y30432D01*
X78937Y30471D01*
X78848Y30506D01*
X78757Y30537D01*
X78666Y30564D01*
X78573Y30588D01*
X78480Y30608D01*
X78386Y30624D01*
X78291Y30636D01*
X78196Y30645D01*
X78100Y30649D01*
X78005Y30650D01*
X77758Y30643D01*
X77512Y30631D01*
X77266Y30613D01*
X77020Y30588D01*
X76776Y30558D01*
X76532Y30522D01*
X76289Y30481D01*
X76047Y30433D01*
X75806Y30379D01*
X75567Y30320D01*
X75329Y30255D01*
X75093Y30184D01*
X74858Y30108D01*
X74625Y30026D01*
X74395Y29938D01*
X74167Y29845D01*
X73940Y29747D01*
X74392Y24327D02*
X74304Y24290D01*
X74218Y24249D01*
X74133Y24205D01*
X74050Y24157D01*
X73970Y24106D01*
X73891Y24052D01*
X73815Y23994D01*
X73741Y23934D01*
X73669Y23870D01*
X73601Y23804D01*
X73535Y23734D01*
X73472Y23663D01*
X73411Y23588D01*
X73354Y23512D01*
X73301Y23433D01*
X73250Y23352D01*
X73203Y23269D01*
X73159Y23184D01*
X73119Y23097D01*
X73082Y23009D01*
X73049Y22919D01*
X73019Y22828D01*
X72994Y22736D01*
X72972Y22643D01*
X72954Y22549D01*
X72939Y22455D01*
X72929Y22360D01*
X72923Y22264D01*
X72920Y22169D01*
X72921Y22073D01*
X72927Y21978D01*
X72936Y21882D01*
X72949Y21788D01*
X72965Y21694D01*
X72986Y21600D01*
X73011Y21508D01*
X73039Y21417D01*
X73071Y21327D01*
X73106Y21238D01*
X73145Y21151D01*
X73188Y21065D01*
X73234Y20981D01*
X73284Y20900D01*
X73336Y20820D01*
X73392Y20742D01*
X73452Y20667D01*
X73514Y20595D01*
X73579Y20525D01*
X73647Y20457D01*
X73717Y20393D01*
X73790Y20331D01*
X73866Y20273D01*
X73944Y20217D01*
X74024Y20165D01*
X74106Y20116D01*
X74190Y20071D01*
X74276Y20029D01*
X74363Y19990D01*
X74452Y19955D01*
X74543Y19924D01*
X74634Y19897D01*
X74727Y19873D01*
X74820Y19853D01*
X74914Y19837D01*
X75009Y19825D01*
X75104Y19816D01*
X75200Y19812D01*
X75295Y19811D01*
X75296Y19812D02*
X75658Y19821D01*
X76020Y19839D01*
X76381Y19866D01*
X76741Y19901D01*
X77101Y19944D01*
X77460Y19996D01*
X77817Y20057D01*
X78172Y20126D01*
X78526Y20203D01*
X78878Y20289D01*
X79228Y20383D01*
X79576Y20486D01*
X79921Y20596D01*
X80263Y20715D01*
X66750Y19812D02*
X66750Y30649D01*
X67202Y35165D02*
X67202Y36068D01*
X66299Y36068D01*
X66299Y35165D01*
X67202Y35165D01*
X61760Y30649D02*
X56342Y30649D01*
X59954Y36068D02*
X59954Y22521D01*
X59952Y22420D01*
X59946Y22319D01*
X59937Y22218D01*
X59924Y22117D01*
X59907Y22017D01*
X59886Y21918D01*
X59862Y21820D01*
X59834Y21723D01*
X59802Y21626D01*
X59767Y21531D01*
X59728Y21438D01*
X59686Y21346D01*
X59640Y21255D01*
X59591Y21166D01*
X59539Y21080D01*
X59483Y20995D01*
X59425Y20912D01*
X59363Y20832D01*
X59298Y20754D01*
X59231Y20678D01*
X59161Y20605D01*
X59088Y20535D01*
X59012Y20468D01*
X58934Y20403D01*
X58854Y20341D01*
X58771Y20283D01*
X58686Y20227D01*
X58599Y20175D01*
X58511Y20126D01*
X58420Y20080D01*
X58328Y20038D01*
X58235Y19999D01*
X58140Y19964D01*
X58043Y19932D01*
X57946Y19904D01*
X57848Y19880D01*
X57749Y19859D01*
X57649Y19842D01*
X57548Y19829D01*
X57447Y19820D01*
X57346Y19814D01*
X57245Y19812D01*
X56342Y19812D01*
X50042Y19812D02*
X50042Y36068D01*
X50042Y30649D02*
X45527Y30649D01*
X45423Y30647D01*
X45320Y30641D01*
X45216Y30631D01*
X45113Y30617D01*
X45011Y30599D01*
X44910Y30578D01*
X44809Y30552D01*
X44710Y30523D01*
X44611Y30490D01*
X44514Y30453D01*
X44419Y30412D01*
X44325Y30368D01*
X44233Y30320D01*
X44143Y30269D01*
X44054Y30214D01*
X43968Y30156D01*
X43885Y30094D01*
X43803Y30030D01*
X43725Y29962D01*
X43649Y29892D01*
X43575Y29819D01*
X43505Y29742D01*
X43437Y29664D01*
X43373Y29582D01*
X43311Y29499D01*
X43253Y29413D01*
X43198Y29324D01*
X43147Y29234D01*
X43099Y29142D01*
X43055Y29048D01*
X43014Y28953D01*
X42977Y28856D01*
X42944Y28757D01*
X42915Y28658D01*
X42889Y28557D01*
X42868Y28456D01*
X42850Y28354D01*
X42836Y28251D01*
X42826Y28147D01*
X42820Y28044D01*
X42818Y27940D01*
X42817Y27940D02*
X42817Y19812D01*
X32887Y26134D02*
X28823Y26134D01*
X32887Y26134D02*
X32999Y26132D01*
X33110Y26126D01*
X33221Y26116D01*
X33332Y26103D01*
X33442Y26085D01*
X33551Y26063D01*
X33660Y26038D01*
X33768Y26009D01*
X33874Y25976D01*
X33980Y25939D01*
X34084Y25899D01*
X34186Y25855D01*
X34287Y25807D01*
X34386Y25756D01*
X34484Y25701D01*
X34579Y25643D01*
X34672Y25582D01*
X34763Y25517D01*
X34852Y25449D01*
X34938Y25378D01*
X35021Y25305D01*
X35102Y25228D01*
X35181Y25148D01*
X35256Y25066D01*
X35328Y24981D01*
X35398Y24894D01*
X35464Y24804D01*
X35527Y24712D01*
X35587Y24617D01*
X35643Y24521D01*
X35696Y24423D01*
X35745Y24323D01*
X35791Y24221D01*
X35833Y24118D01*
X35872Y24013D01*
X35907Y23907D01*
X35938Y23800D01*
X35965Y23692D01*
X35989Y23583D01*
X36008Y23473D01*
X36024Y23363D01*
X36036Y23252D01*
X36044Y23140D01*
X36048Y23029D01*
X36048Y22917D01*
X36044Y22806D01*
X36036Y22694D01*
X36024Y22583D01*
X36008Y22473D01*
X35989Y22363D01*
X35965Y22254D01*
X35938Y22146D01*
X35907Y22039D01*
X35872Y21933D01*
X35833Y21828D01*
X35791Y21725D01*
X35745Y21623D01*
X35696Y21523D01*
X35643Y21425D01*
X35587Y21329D01*
X35527Y21234D01*
X35464Y21142D01*
X35398Y21052D01*
X35328Y20965D01*
X35256Y20880D01*
X35181Y20798D01*
X35102Y20718D01*
X35021Y20641D01*
X34938Y20568D01*
X34852Y20497D01*
X34763Y20429D01*
X34672Y20364D01*
X34579Y20303D01*
X34484Y20245D01*
X34386Y20190D01*
X34287Y20139D01*
X34186Y20091D01*
X34084Y20047D01*
X33980Y20007D01*
X33874Y19970D01*
X33768Y19937D01*
X33660Y19908D01*
X33551Y19883D01*
X33442Y19861D01*
X33332Y19843D01*
X33221Y19830D01*
X33110Y19820D01*
X32999Y19814D01*
X32887Y19812D01*
X28823Y19812D01*
X28823Y27940D01*
X28825Y28041D01*
X28831Y28142D01*
X28840Y28243D01*
X28853Y28344D01*
X28870Y28444D01*
X28891Y28543D01*
X28915Y28641D01*
X28943Y28738D01*
X28975Y28835D01*
X29010Y28930D01*
X29049Y29023D01*
X29091Y29115D01*
X29137Y29206D01*
X29186Y29295D01*
X29238Y29381D01*
X29294Y29466D01*
X29352Y29549D01*
X29414Y29629D01*
X29479Y29707D01*
X29546Y29783D01*
X29616Y29856D01*
X29689Y29926D01*
X29765Y29993D01*
X29843Y30058D01*
X29923Y30120D01*
X30006Y30178D01*
X30091Y30234D01*
X30178Y30286D01*
X30266Y30335D01*
X30357Y30381D01*
X30449Y30423D01*
X30542Y30462D01*
X30637Y30497D01*
X30734Y30529D01*
X30831Y30557D01*
X30929Y30581D01*
X31028Y30602D01*
X31128Y30619D01*
X31229Y30632D01*
X31330Y30641D01*
X31431Y30647D01*
X31532Y30649D01*
X35144Y30649D01*
M02*
