M48
;GenerationSoftware,Autodesk,EAGLE,8.7.0*%
;CreationDate,2019-08-22T09:03:38Z*%
FMAT,2
ICI,OFF
METRIC,TZ,000.000
T7C0.350
T6C0.813
T5C1.000
T4C1.016
T3C1.118
T2C1.321
T1C2.032
%
G90
M71
T1
X57150Y53340
X2540Y39370
X95250Y5080
X95250Y76200
T2
X30480Y77470
X71120Y77470
X30480Y59690
X71120Y59690
T3
X4445Y53975
X80010Y72390
X4445Y59055
X80010Y67310
X8255Y39370
X90170Y38100
X96520Y38100
T4
X80645Y33020
X80645Y40640
X80645Y38100
X36195Y10795
X33655Y10795
X24130Y21590
X24130Y19050
X24130Y16510
X41275Y10795
X43815Y10795
X20320Y68580
X38735Y10795
X81915Y58420
X20320Y73660
X20320Y71120
X24130Y13970
X80645Y35560
X24130Y11430
X86995Y58420
T5
X35560Y46990
X33020Y46990
X30480Y46990
X27940Y46990
X25400Y46990
X22860Y46990
X20320Y46990
X17780Y46990
X15240Y46990
X12700Y46990
X10160Y46990
X7620Y46990
X5080Y46990
X20320Y31750
X7620Y31750
X10160Y31750
X12700Y31750
X15240Y31750
X17780Y31750
X40640Y46990
X22860Y31750
X5080Y31750
X27940Y31750
X30480Y31750
X33020Y31750
X35560Y31750
X38100Y31750
X40640Y31750
X38100Y46990
X25400Y31750
T6
X97790Y17145
X97790Y11430
X97790Y8890
X80010Y15240
X29845Y53975
X22225Y53975
X61595Y4445
X51435Y13970
X51435Y6350
X90170Y44450
X97790Y44450
X33655Y21590
X33655Y13970
X36830Y21590
X36830Y13970
X40005Y21590
X40005Y13970
X43180Y21590
X43180Y13970
X97790Y50800
X90170Y50800
X83185Y8255
X83185Y15875
X74930Y24765
X82550Y24765
X61595Y15875
X53975Y15875
X72390Y24765
X64770Y24765
X53975Y4445
X97790Y13970
X90170Y13970
X97790Y22860
X90170Y22860
X93980Y29845
X86360Y29845
X71755Y15875
X71755Y8255
X64135Y7620
X64135Y10160
X64135Y5080
X77470Y8255
X80010Y8255
X74930Y8255
X74930Y15240
X77470Y15240
X10160Y55880
X20320Y55880
X97790Y57150
X97790Y59690
X97790Y30480
X97790Y33020
X97790Y19685
T7
X21590Y24130
X57785Y33020
X57785Y26670
X53975Y49530
X15875Y41910
X9525Y24130
X69850Y37465
X62865Y37465
X69850Y48895
X53975Y18415
X46990Y18415
X90170Y17145
X69850Y43180
X59690Y43180
X15875Y39370
X61595Y26670
X62865Y48895
X61595Y33020
X53975Y26670
X53975Y33020
X85725Y12065
X53975Y38100
X86360Y21590
M30